SplineFontDB: 3.0
FontName: TEL-ElurItalic
FullName: TEL Elur Italic
FamilyName: TEL Elur
Weight: Book
Copyright: Copyright (c) 2009-2015, NLCI (http://www.nlci.in/fonts/)
Version: 1.0 Tue May 16 16:18:26 1995
ItalicAngle: 12
UnderlinePosition: -594
UnderlineWidth: 41
Ascent: 1638
Descent: 410
LayerCount: 2
Layer: 0 1 "Back"  1
Layer: 1 1 "Fore"  0
XUID: [1021 954 1709573002 8736389]
FSType: 0
OS2Version: 0
OS2_WeightWidthSlopeOnly: 0
OS2_UseTypoMetrics: 1
CreationTime: 1257736742
ModificationTime: 1257736742
PfmFamily: 81
TTFWeight: 400
TTFWidth: 5
LineGap: 0
VLineGap: 0
Panose: 5 0 0 0 0 0 0 0 0 0
OS2TypoAscent: -159
OS2TypoAOffset: 1
OS2TypoDescent: -493
OS2TypoDOffset: 1
OS2TypoLinegap: 0
OS2WinAscent: -336
OS2WinAOffset: 1
OS2WinDescent: -361
OS2WinDOffset: 1
HheadAscent: -336
HheadAOffset: 1
HheadDescent: 361
HheadDOffset: 1
OS2SubXSize: 1434
OS2SubYSize: 1331
OS2SubXOff: 0
OS2SubYOff: 293
OS2SupXSize: 1434
OS2SupYSize: 1331
OS2SupXOff: 0
OS2SupYOff: 928
OS2StrikeYSize: 102
OS2StrikeYPos: 530
OS2Vendor: 'Alts'
OS2UnicodeRanges: 00000000.00000000.00000000.00000000
DEI: 91125
TtTable: prep
NPUSHB
 1
 1
SCANTYPE
PUSHW_1
 511
SCANCTRL
EndTTInstrs
ShortTable: maxp 16
  1
  0
  315
  215
  12
  204
  6
  2
  8
  64
  10
  0
  3
  557
  5
  2
EndShort
LangName: 1033 "" "" "Italic" "NLCI:TEL Elur Italic" "" "1.0 Tue May 16 16:18:26 1995" 
Encoding: UnicodeBmp
UnicodeInterp: none
NameList: Adobe Glyph List
DisplaySize: -24
AntiAlias: 1
FitToEm: 1
Lookup: 4 0 0 "'akhn' Akhand in Telugu lookup 0"  {"'akhn' Akhand (ligatures)"  } ['akhn' ('telu' <'dflt' > ) ]
Lookup: 4 0 0 "'blwf' Below Base Forms in Telugu lookup 1"  {"'blwf' Below Base Form (sub)"  } ['blwf' ('telu' <'dflt' > ) ]

StartChar: .notdef
Encoding: 65536 -1 0
Width: 1024
Flags: W
LayerCount: 2
Fore
SplineSet
64 0 m 1,0,-1
 64 1145 l 1,1,-1
 960 1145 l 1,2,-1
 960 0 l 1,3,-1
 64 0 l 1,0,-1
896 64 m 1,4,-1
 896 1081 l 1,5,-1
 128 1081 l 1,6,-1
 128 64 l 1,7,-1
 896 64 l 1,4,-1
EndSplineSet
EndChar

StartChar: exclam
Encoding: 33 33 4
Width: 692
Flags: W
LayerCount: 2
Fore
SplineSet
401 100 m 0,0,1
 401 51 401 51 364.5 16.5 c 128,-1,2
 328 -18 328 -18 266 -18 c 0,3,4
 244 -18 244 -18 220.5 -10.5 c 128,-1,5
 197 -3 197 -3 178 12 c 128,-1,6
 159 27 159 27 147 49 c 128,-1,7
 135 71 135 71 135 100 c 0,8,9
 135 127 135 127 145 149.5 c 128,-1,10
 155 172 155 172 173 188.5 c 128,-1,11
 191 205 191 205 215 214 c 128,-1,12
 239 223 239 223 266 223 c 256,13,14
 293 223 293 223 317.5 214 c 128,-1,15
 342 205 342 205 360.5 189 c 128,-1,16
 379 173 379 173 390 150.5 c 128,-1,17
 401 128 401 128 401 100 c 0,0,1
608 1294 m 1,18,19
 550 1068 550 1068 501 875 c 0,20,21
 480 793 480 793 459 710.5 c 128,-1,22
 438 628 438 628 420 556 c 128,-1,23
 402 484 402 484 388 428.5 c 128,-1,24
 374 373 374 373 367 346 c 1,25,-1
 238 346 l 1,26,-1
 342 1231 l 2,27,28
 347 1270 347 1270 357.5 1301 c 128,-1,29
 368 1332 368 1332 387 1354 c 128,-1,30
 406 1376 406 1376 435 1387.5 c 128,-1,31
 464 1399 464 1399 506 1399 c 0,32,33
 608 1399 608 1399 608 1294 c 1,18,19
EndSplineSet
EndChar

StartChar: quotedbl
Encoding: 34 34 5
Width: 678
Flags: W
LayerCount: 2
Fore
SplineSet
440 1384 m 0,0,1
 440 1373 440 1373 429 1334.5 c 128,-1,2
 418 1296 418 1296 400.5 1242.5 c 128,-1,3
 383 1189 383 1189 362.5 1128.5 c 128,-1,4
 342 1068 342 1068 323.5 1014 c 128,-1,5
 305 960 305 960 290 919 c 128,-1,6
 275 878 275 878 270 864 c 1,7,-1
 205 864 l 1,8,-1
 231 1321 l 2,9,10
 233 1352 233 1352 240 1377.5 c 128,-1,11
 247 1403 247 1403 261 1422 c 128,-1,12
 275 1441 275 1441 298 1451.5 c 128,-1,13
 321 1462 321 1462 356 1462 c 256,14,15
 391 1462 391 1462 415.5 1442 c 128,-1,16
 440 1422 440 1422 440 1384 c 0,0,1
770 1384 m 0,17,18
 770 1373 770 1373 758.5 1334.5 c 128,-1,19
 747 1296 747 1296 729.5 1242.5 c 128,-1,20
 712 1189 712 1189 691.5 1128.5 c 128,-1,21
 671 1068 671 1068 651.5 1014 c 128,-1,22
 632 960 632 960 617.5 919 c 128,-1,23
 603 878 603 878 598 864 c 1,24,-1
 532 864 l 1,25,-1
 557 1321 l 2,26,27
 559 1352 559 1352 566.5 1377.5 c 128,-1,28
 574 1403 574 1403 588.5 1422 c 128,-1,29
 603 1441 603 1441 626 1451.5 c 128,-1,30
 649 1462 649 1462 684 1462 c 0,31,32
 721 1462 721 1462 745.5 1442 c 128,-1,33
 770 1422 770 1422 770 1384 c 0,17,18
EndSplineSet
EndChar

StartChar: numbersign
Encoding: 35 35 6
Width: 1522
Flags: W
LayerCount: 2
Fore
SplineSet
692 862 m 1,0,-1
 594 569 l 1,1,-1
 891 569 l 1,2,-1
 989 862 l 1,3,-1
 692 862 l 1,0,-1
1104 862 m 1,4,-1
 1006 569 l 1,5,-1
 1335 569 l 1,6,-1
 1335 467 l 1,7,-1
 971 467 l 1,8,-1
 797 -47 l 1,9,-1
 694 -14 l 1,10,-1
 856 467 l 1,11,-1
 559 467 l 1,12,-1
 385 -47 l 1,13,-1
 283 -12 l 1,14,-1
 446 467 l 1,15,-1
 156 467 l 1,16,-1
 156 569 l 1,17,-1
 479 569 l 1,18,-1
 580 862 l 1,19,-1
 250 862 l 1,20,-1
 250 967 l 1,21,-1
 614 967 l 1,22,-1
 778 1450 l 1,23,-1
 883 1417 l 1,24,-1
 727 967 l 1,25,-1
 1026 967 l 1,26,-1
 1188 1450 l 1,27,-1
 1294 1417 l 1,28,-1
 1139 967 l 1,29,-1
 1425 967 l 1,30,-1
 1425 862 l 1,31,-1
 1104 862 l 1,4,-1
EndSplineSet
EndChar

StartChar: dollar
Encoding: 36 36 7
Width: 1139
Flags: W
LayerCount: 2
Fore
SplineSet
762 371 m 0,0,1
 762 437 762 437 727 488.5 c 128,-1,2
 692 540 692 540 616 575 c 1,3,-1
 526 113 l 1,4,5
 641 141 641 141 701.5 208 c 128,-1,6
 762 275 762 275 762 371 c 0,0,1
627 1268 m 1,7,8
 578 1253 578 1253 538 1229.5 c 128,-1,9
 498 1206 498 1206 469.5 1174.5 c 128,-1,10
 441 1143 441 1143 425.5 1104 c 128,-1,11
 410 1065 410 1065 410 1020 c 0,12,13
 410 951 410 951 444 903 c 128,-1,14
 478 855 478 855 541 823 c 1,15,-1
 627 1268 l 1,7,8
1001 1010 m 1,16,-1
 881 1010 l 1,17,-1
 891 1210 l 2,18,19
 891 1217 891 1217 883 1227.5 c 128,-1,20
 875 1238 875 1238 868 1241 c 0,21,22
 866 1242 866 1242 855.5 1247 c 128,-1,23
 845 1252 845 1252 829 1257.5 c 128,-1,24
 813 1263 813 1263 791.5 1268.5 c 128,-1,25
 770 1274 770 1274 745 1276 c 1,26,-1
 649 768 l 1,27,28
 717 746 717 746 777 714 c 128,-1,29
 837 682 837 682 881.5 640 c 128,-1,30
 926 598 926 598 951.5 544.5 c 128,-1,31
 977 491 977 491 977 426 c 0,32,33
 977 347 977 347 951.5 285.5 c 128,-1,34
 926 224 926 224 884.5 177.5 c 128,-1,35
 843 131 843 131 791 99 c 128,-1,36
 739 67 739 67 686 46 c 128,-1,37
 633 25 633 25 584.5 14.5 c 128,-1,38
 536 4 536 4 502 2 c 1,39,-1
 463 -209 l 1,40,-1
 342 -209 l 1,41,-1
 381 0 l 1,42,43
 327 3 327 3 280 10 c 128,-1,44
 233 17 233 17 191 28 c 128,-1,45
 149 39 149 39 109 54.5 c 128,-1,46
 69 70 69 70 29 90 c 1,47,-1
 94 412 l 1,48,-1
 231 412 l 1,49,-1
 213 176 l 2,50,51
 213 168 213 168 217.5 164 c 128,-1,52
 222 160 222 160 227 158 c 0,53,54
 231 156 231 156 247.5 148.5 c 128,-1,55
 264 141 264 141 288 132 c 128,-1,56
 312 123 312 123 341.5 115 c 128,-1,57
 371 107 371 107 403 104 c 1,58,-1
 504 627 l 1,59,60
 439 654 439 654 384.5 688 c 128,-1,61
 330 722 330 722 290 763.5 c 128,-1,62
 250 805 250 805 227.5 855 c 128,-1,63
 205 905 205 905 205 965 c 0,64,65
 205 1052 205 1052 241.5 1123 c 128,-1,66
 278 1194 278 1194 339 1245.5 c 128,-1,67
 400 1297 400 1297 480 1328.5 c 128,-1,68
 560 1360 560 1360 647 1368 c 1,69,-1
 676 1522 l 1,70,-1
 793 1522 l 1,71,-1
 768 1374 l 1,72,73
 818 1372 818 1372 866 1364 c 128,-1,74
 914 1356 914 1356 954.5 1346.5 c 128,-1,75
 995 1337 995 1337 1025 1328 c 128,-1,76
 1055 1319 1055 1319 1067 1315 c 1,77,-1
 1001 1010 l 1,16,-1
EndSplineSet
EndChar

StartChar: percent
Encoding: 37 37 8
Width: 1761
Flags: W
LayerCount: 2
Fore
SplineSet
645 1161 m 0,0,1
 645 1188 645 1188 641.5 1217.5 c 128,-1,2
 638 1247 638 1247 626.5 1272 c 128,-1,3
 615 1297 615 1297 594 1313 c 128,-1,4
 573 1329 573 1329 539 1329 c 0,5,6
 492 1329 492 1329 455 1299.5 c 128,-1,7
 418 1270 418 1270 390 1222.5 c 128,-1,8
 362 1175 362 1175 342 1116 c 128,-1,9
 322 1057 322 1057 309.5 998.5 c 128,-1,10
 297 940 297 940 291 887.5 c 128,-1,11
 285 835 285 835 285 801 c 0,12,13
 285 773 285 773 289.5 742 c 128,-1,14
 294 711 294 711 306 685 c 128,-1,15
 318 659 318 659 340 642 c 128,-1,16
 362 625 362 625 397 625 c 0,17,18
 443 625 443 625 479 655.5 c 128,-1,19
 515 686 515 686 542.5 734 c 128,-1,20
 570 782 570 782 589.5 842 c 128,-1,21
 609 902 609 902 621.5 962 c 128,-1,22
 634 1022 634 1022 639.5 1074.5 c 128,-1,23
 645 1127 645 1127 645 1161 c 0,0,1
1532 582 m 0,24,25
 1532 609 1532 609 1528 638.5 c 128,-1,26
 1524 668 1524 668 1512.5 692.5 c 128,-1,27
 1501 717 1501 717 1479.5 733.5 c 128,-1,28
 1458 750 1458 750 1423 750 c 0,29,30
 1377 750 1377 750 1340.5 720.5 c 128,-1,31
 1304 691 1304 691 1276 643.5 c 128,-1,32
 1248 596 1248 596 1228 537 c 128,-1,33
 1208 478 1208 478 1195.5 419 c 128,-1,34
 1183 360 1183 360 1177 307.5 c 128,-1,35
 1171 255 1171 255 1171 221 c 0,36,37
 1171 193 1171 193 1175 162 c 128,-1,38
 1179 131 1179 131 1191 104.5 c 128,-1,39
 1203 78 1203 78 1225 60.5 c 128,-1,40
 1247 43 1247 43 1282 43 c 0,41,42
 1327 43 1327 43 1363.5 73.5 c 128,-1,43
 1400 104 1400 104 1427.5 152.5 c 128,-1,44
 1455 201 1455 201 1475 261.5 c 128,-1,45
 1495 322 1495 322 1507.5 382 c 128,-1,46
 1520 442 1520 442 1526 495 c 128,-1,47
 1532 548 1532 548 1532 582 c 0,24,25
797 1122 m 0,48,49
 797 1062 797 1062 786 996.5 c 128,-1,50
 775 931 775 931 752 867 c 128,-1,51
 729 803 729 803 695 745 c 128,-1,52
 661 687 661 687 614.5 643 c 128,-1,53
 568 599 568 599 510 573 c 128,-1,54
 452 547 452 547 381 547 c 0,55,56
 316 547 316 547 269.5 569.5 c 128,-1,57
 223 592 223 592 193.5 631 c 128,-1,58
 164 670 164 670 150.5 722.5 c 128,-1,59
 137 775 137 775 137 834 c 0,60,61
 137 894 137 894 148.5 959.5 c 128,-1,62
 160 1025 160 1025 182.5 1088.5 c 128,-1,63
 205 1152 205 1152 239.5 1210 c 128,-1,64
 274 1268 274 1268 320.5 1311.5 c 128,-1,65
 367 1355 367 1355 425.5 1381 c 128,-1,66
 484 1407 484 1407 555 1407 c 0,67,68
 620 1407 620 1407 666 1384.5 c 128,-1,69
 712 1362 712 1362 741 1323.5 c 128,-1,70
 770 1285 770 1285 783.5 1233 c 128,-1,71
 797 1181 797 1181 797 1122 c 0,48,49
401 0 m 1,72,-1
 272 0 l 1,73,-1
 1419 1374 l 1,74,-1
 1546 1374 l 1,75,-1
 401 0 l 1,72,-1
1681 543 m 0,76,77
 1681 483 1681 483 1670 417 c 128,-1,78
 1659 351 1659 351 1636 287 c 128,-1,79
 1613 223 1613 223 1579 165 c 128,-1,80
 1545 107 1545 107 1499 63 c 128,-1,81
 1453 19 1453 19 1394.5 -7 c 128,-1,82
 1336 -33 1336 -33 1266 -33 c 0,83,84
 1201 -33 1201 -33 1155 -10.5 c 128,-1,85
 1109 12 1109 12 1080 51 c 128,-1,86
 1051 90 1051 90 1037.5 142.5 c 128,-1,87
 1024 195 1024 195 1024 254 c 0,88,89
 1024 314 1024 314 1035 380 c 128,-1,90
 1046 446 1046 446 1069 509.5 c 128,-1,91
 1092 573 1092 573 1126 630.5 c 128,-1,92
 1160 688 1160 688 1206.5 731.5 c 128,-1,93
 1253 775 1253 775 1311 801 c 128,-1,94
 1369 827 1369 827 1440 827 c 0,95,96
 1505 827 1505 827 1551 804.5 c 128,-1,97
 1597 782 1597 782 1626 743.5 c 128,-1,98
 1655 705 1655 705 1668 653.5 c 128,-1,99
 1681 602 1681 602 1681 543 c 0,76,77
EndSplineSet
EndChar

StartChar: glyph9
Encoding: 38 38 9
Width: 1442
Flags: W
LayerCount: 2
Fore
SplineSet
432 672 m 1,0,1
 344 615 344 615 293 543 c 128,-1,2
 242 471 242 471 242 377 c 0,3,4
 242 315 242 315 263 265 c 128,-1,5
 284 215 284 215 319 180 c 128,-1,6
 354 145 354 145 400 125.5 c 128,-1,7
 446 106 446 106 496 106 c 0,8,9
 532 106 532 106 564.5 112.5 c 128,-1,10
 597 119 597 119 630 133 c 128,-1,11
 663 147 663 147 697.5 168.5 c 128,-1,12
 732 190 732 190 772 219 c 1,13,-1
 432 672 l 1,0,1
836 1112 m 0,14,15
 836 1148 836 1148 826 1182 c 128,-1,16
 816 1216 816 1216 796.5 1242 c 128,-1,17
 777 1268 777 1268 748 1284 c 128,-1,18
 719 1300 719 1300 682 1300 c 256,19,20
 645 1300 645 1300 604.5 1286 c 128,-1,21
 564 1272 564 1272 530 1244 c 128,-1,22
 496 1216 496 1216 473.5 1173.5 c 128,-1,23
 451 1131 451 1131 451 1073 c 0,24,25
 451 1036 451 1036 461 999.5 c 128,-1,26
 471 963 471 963 487 928.5 c 128,-1,27
 503 894 503 894 523.5 862.5 c 128,-1,28
 544 831 544 831 565 805 c 1,29,30
 625 829 625 829 675 858 c 128,-1,31
 725 887 725 887 760.5 924 c 128,-1,32
 796 961 796 961 816 1007 c 128,-1,33
 836 1053 836 1053 836 1112 c 0,14,15
1231 631 m 1,34,35
 1188 540 1188 540 1121.5 444 c 128,-1,36
 1055 348 1055 348 977 264 c 1,37,38
 1012 216 1012 216 1046 183.5 c 128,-1,39
 1080 151 1080 151 1118 131 c 128,-1,40
 1156 111 1156 111 1202 102 c 128,-1,41
 1248 93 1248 93 1307 92 c 1,42,-1
 1307 2 l 1,43,44
 1257 0 1257 0 1221.5 -2 c 128,-1,45
 1186 -4 1186 -4 1157 -6 c 0,46,47
 1125 -8 1125 -8 1094.5 -7 c 128,-1,48
 1064 -6 1064 -6 1036 0 c 1,49,50
 1011 4 1011 4 987.5 13.5 c 128,-1,51
 964 23 964 23 940.5 39 c 128,-1,52
 917 55 917 55 892 79 c 128,-1,53
 867 103 867 103 840 137 c 1,54,55
 795 103 795 103 746 74 c 128,-1,56
 697 45 697 45 642 23.5 c 128,-1,57
 587 2 587 2 525 -10.5 c 128,-1,58
 463 -23 463 -23 391 -23 c 0,59,60
 314 -23 314 -23 247.5 0 c 128,-1,61
 181 23 181 23 131.5 67 c 128,-1,62
 82 111 82 111 53.5 174 c 128,-1,63
 25 237 25 237 25 317 c 0,64,65
 25 393 25 393 52.5 456.5 c 128,-1,66
 80 520 80 520 128 573.5 c 128,-1,67
 176 627 176 627 240 671 c 128,-1,68
 304 715 304 715 377 752 c 1,69,70
 354 784 354 784 333.5 816 c 128,-1,71
 313 848 313 848 298 880.5 c 128,-1,72
 283 913 283 913 274.5 947 c 128,-1,73
 266 981 266 981 266 1018 c 0,74,75
 266 1101 266 1101 301 1171 c 128,-1,76
 336 1241 336 1241 397 1292 c 128,-1,77
 458 1343 458 1343 541.5 1372 c 128,-1,78
 625 1401 625 1401 723 1401 c 0,79,80
 807 1401 807 1401 866 1378 c 128,-1,81
 925 1355 925 1355 963 1316.5 c 128,-1,82
 1001 1278 1001 1278 1018.5 1229.5 c 128,-1,83
 1036 1181 1036 1181 1036 1130 c 0,84,85
 1036 1056 1036 1056 1005.5 997 c 128,-1,86
 975 938 975 938 920 890 c 128,-1,87
 865 842 865 842 788.5 804 c 128,-1,88
 712 766 712 766 621 735 c 1,89,-1
 909 354 l 1,90,91
 962 413 962 413 1002 480 c 128,-1,92
 1042 547 1042 547 1067 600 c 0,93,94
 1068 602 1068 602 1065 607 c 128,-1,95
 1062 612 1062 612 1058.5 617 c 128,-1,96
 1055 622 1055 622 1051.5 625.5 c 128,-1,97
 1048 629 1048 629 1047 629 c 2,98,-1
 942 647 l 1,99,-1
 942 741 l 1,100,-1
 1378 741 l 1,101,-1
 1378 647 l 1,102,-1
 1231 631 l 1,34,35
EndSplineSet
EndChar

StartChar: quotesingle
Encoding: 39 39 10
Width: 348
Flags: W
LayerCount: 2
Fore
SplineSet
451 1384 m 0,0,1
 451 1373 451 1373 439 1334.5 c 128,-1,2
 427 1296 427 1296 409 1242.5 c 128,-1,3
 391 1189 391 1189 369.5 1128.5 c 128,-1,4
 348 1068 348 1068 328 1014 c 128,-1,5
 308 960 308 960 292.5 919 c 128,-1,6
 277 878 277 878 272 864 c 1,7,-1
 205 864 l 1,8,-1
 231 1321 l 1,9,10
 234 1352 234 1352 241.5 1377.5 c 128,-1,11
 249 1403 249 1403 264 1422 c 128,-1,12
 279 1441 279 1441 303 1451.5 c 128,-1,13
 327 1462 327 1462 362 1462 c 0,14,15
 401 1462 401 1462 426 1442 c 128,-1,16
 451 1422 451 1422 451 1384 c 0,0,1
EndSplineSet
EndChar

StartChar: parenleft
Encoding: 40 40 11
Width: 858
Flags: W
LayerCount: 2
Fore
SplineSet
938 1376 m 1,0,1
 853 1365 853 1365 782.5 1323 c 128,-1,2
 712 1281 712 1281 654.5 1217.5 c 128,-1,3
 597 1154 597 1154 551.5 1073.5 c 128,-1,4
 506 993 506 993 472 904.5 c 128,-1,5
 438 816 438 816 414 724 c 128,-1,6
 390 632 390 632 375 545 c 128,-1,7
 360 458 360 458 353 381 c 128,-1,8
 346 304 346 304 346 246 c 0,9,10
 346 132 346 132 368.5 53.5 c 128,-1,11
 391 -25 391 -25 430.5 -77 c 128,-1,12
 470 -129 470 -129 523 -157.5 c 128,-1,13
 576 -186 576 -186 637 -199 c 1,14,-1
 618 -293 l 1,15,16
 514 -287 514 -287 427.5 -242.5 c 128,-1,17
 341 -198 341 -198 278 -122.5 c 128,-1,18
 215 -47 215 -47 180 56.5 c 128,-1,19
 145 160 145 160 145 285 c 0,20,21
 145 407 145 407 167 539 c 128,-1,22
 189 671 189 671 233 798.5 c 128,-1,23
 277 926 277 926 344 1042.5 c 128,-1,24
 411 1159 411 1159 501 1250 c 128,-1,25
 591 1341 591 1341 705 1399.5 c 128,-1,26
 819 1458 819 1458 956 1470 c 1,27,-1
 938 1376 l 1,0,1
EndSplineSet
EndChar

StartChar: parenright
Encoding: 41 41 12
Width: 856
Flags: W
LayerCount: 2
Fore
SplineSet
711 909 m 0,0,1
 711 739 711 739 682.5 588 c 128,-1,2
 654 437 654 437 602.5 308 c 128,-1,3
 551 179 551 179 477.5 73.5 c 128,-1,4
 404 -32 404 -32 314.5 -109 c 128,-1,5
 225 -186 225 -186 120.5 -233.5 c 128,-1,6
 16 -281 16 -281 -98 -295 c 1,7,-1
 -80 -197 l 1,8,9
 9 -185 9 -185 81.5 -140.5 c 128,-1,10
 154 -96 154 -96 212.5 -29 c 128,-1,11
 271 38 271 38 315.5 122.5 c 128,-1,12
 360 207 360 207 393 298.5 c 128,-1,13
 426 390 426 390 448.5 483.5 c 128,-1,14
 471 577 471 577 484.5 662.5 c 128,-1,15
 498 748 498 748 504 820.5 c 128,-1,16
 510 893 510 893 510 942 c 0,17,18
 510 973 510 973 506 1014 c 128,-1,19
 502 1055 502 1055 491.5 1100 c 128,-1,20
 481 1145 481 1145 461 1190 c 128,-1,21
 441 1235 441 1235 409 1273 c 128,-1,22
 377 1311 377 1311 330.5 1338.5 c 128,-1,23
 284 1366 284 1366 221 1376 c 1,24,-1
 240 1470 l 1,25,26
 349 1458 349 1458 426.5 1419 c 128,-1,27
 504 1380 504 1380 556.5 1327 c 128,-1,28
 609 1274 609 1274 639.5 1212 c 128,-1,29
 670 1150 670 1150 686 1092 c 128,-1,30
 702 1034 702 1034 706.5 985 c 128,-1,31
 711 936 711 936 711 909 c 0,0,1
EndSplineSet
EndChar

StartChar: asterisk
Encoding: 42 42 13
Width: 1024
Flags: W
LayerCount: 2
Fore
SplineSet
537 743 m 1,0,-1
 393 690 l 1,1,-1
 397 842 l 1,2,-1
 604 1008 l 1,3,-1
 631 989 l 1,4,-1
 537 743 l 1,0,-1
598 1036 m 1,5,-1
 332 1051 l 1,6,-1
 240 1167 l 1,7,-1
 383 1210 l 1,8,-1
 604 1065 l 1,9,-1
 598 1036 l 1,5,-1
748 743 m 1,10,-1
 653 989 l 1,11,-1
 680 1008 l 1,12,-1
 887 842 l 1,13,-1
 891 690 l 1,14,-1
 748 743 l 1,10,-1
655 1085 m 1,15,-1
 629 1085 l 1,16,-1
 557 1341 l 1,17,-1
 641 1466 l 1,18,-1
 727 1341 l 1,19,-1
 655 1085 l 1,15,-1
952 1051 m 1,20,-1
 688 1036 l 1,21,-1
 680 1065 l 1,22,-1
 899 1210 l 1,23,-1
 1044 1167 l 1,24,-1
 952 1051 l 1,20,-1
EndSplineSet
EndChar

StartChar: plus
Encoding: 43 43 14
Width: 2048
Flags: W
LayerCount: 2
Fore
SplineSet
1087 551 m 1,0,-1
 1087 0 l 1,1,-1
 961 0 l 1,2,-1
 961 551 l 1,3,-1
 410 551 l 1,4,-1
 410 678 l 1,5,-1
 961 678 l 1,6,-1
 961 1229 l 1,7,-1
 1087 1229 l 1,8,-1
 1087 678 l 1,9,-1
 1638 678 l 1,10,-1
 1638 551 l 1,11,-1
 1087 551 l 1,0,-1
EndSplineSet
EndChar

StartChar: comma
Encoding: 44 44 15
Width: 573
Flags: W
LayerCount: 2
Fore
SplineSet
326 96 m 0,0,1
 326 9 326 9 289 -68 c 128,-1,2
 252 -145 252 -145 190.5 -205 c 128,-1,3
 129 -265 129 -265 50 -303 c 128,-1,4
 -29 -341 -29 -341 -113 -348 c 1,5,-1
 -98 -274 l 1,6,7
 -35 -261 -35 -261 12.5 -237.5 c 128,-1,8
 60 -214 60 -214 94.5 -179.5 c 128,-1,9
 129 -145 129 -145 151 -97 c 128,-1,10
 173 -49 173 -49 184 14 c 1,11,-1
 55 14 l 1,12,13
 44 28 44 28 39.5 45.5 c 128,-1,14
 35 63 35 63 35 80 c 0,15,16
 35 111 35 111 48 141.5 c 128,-1,17
 61 172 61 172 82.5 196 c 128,-1,18
 104 220 104 220 132.5 235 c 128,-1,19
 161 250 161 250 193 250 c 0,20,21
 229 250 229 250 254.5 238.5 c 128,-1,22
 280 227 280 227 295.5 206 c 128,-1,23
 311 185 311 185 318.5 157 c 128,-1,24
 326 129 326 129 326 96 c 0,0,1
EndSplineSet
EndChar

StartChar: hyphen
Encoding: 45 45 16
Width: 653
Flags: W
LayerCount: 2
Fore
SplineSet
553 424 m 1,0,-1
 61 424 l 1,1,-1
 88 563 l 1,2,-1
 580 563 l 1,3,-1
 553 424 l 1,0,-1
EndSplineSet
EndChar

StartChar: period
Encoding: 46 46 17
Width: 573
Flags: W
LayerCount: 2
Fore
SplineSet
311 113 m 0,0,1
 311 84 311 84 300 59 c 128,-1,2
 289 34 289 34 270 15.5 c 128,-1,3
 251 -3 251 -3 225.5 -14 c 128,-1,4
 200 -25 200 -25 172 -25 c 0,5,6
 143 -25 143 -25 118.5 -14 c 128,-1,7
 94 -3 94 -3 76 15.5 c 128,-1,8
 58 34 58 34 47.5 59 c 128,-1,9
 37 84 37 84 37 113 c 0,10,11
 37 141 37 141 47.5 166 c 128,-1,12
 58 191 58 191 76 209.5 c 128,-1,13
 94 228 94 228 118.5 239 c 128,-1,14
 143 250 143 250 172 250 c 0,15,16
 200 250 200 250 225.5 239 c 128,-1,17
 251 228 251 228 270 209.5 c 128,-1,18
 289 191 289 191 300 166 c 128,-1,19
 311 141 311 141 311 113 c 0,0,1
EndSplineSet
EndChar

StartChar: slash
Encoding: 47 47 18
Width: 1004
Flags: W
LayerCount: 2
Fore
SplineSet
131 -190 m 1,0,-1
 0 -190 l 1,1,-1
 872 1374 l 1,2,-1
 1004 1374 l 1,3,-1
 131 -190 l 1,0,-1
EndSplineSet
EndChar

StartChar: zero
Encoding: 48 48 19
Width: 1139
Flags: W
LayerCount: 2
Fore
SplineSet
907 981 m 0,0,1
 907 1065 907 1065 892 1125.5 c 128,-1,2
 877 1186 877 1186 851 1225.5 c 128,-1,3
 825 1265 825 1265 790 1284 c 128,-1,4
 755 1303 755 1303 715 1303 c 0,5,6
 651 1303 651 1303 595.5 1262 c 128,-1,7
 540 1221 540 1221 493 1152 c 128,-1,8
 446 1083 446 1083 409 991.5 c 128,-1,9
 372 900 372 900 346 799 c 128,-1,10
 320 698 320 698 306.5 593.5 c 128,-1,11
 293 489 293 489 293 393 c 0,12,13
 293 288 293 288 313 225 c 128,-1,14
 333 162 333 162 362 128.5 c 128,-1,15
 391 95 391 95 425 84.5 c 128,-1,16
 459 74 459 74 487 74 c 0,17,18
 547 74 547 74 602 114.5 c 128,-1,19
 657 155 657 155 703.5 223.5 c 128,-1,20
 750 292 750 292 787.5 383 c 128,-1,21
 825 474 825 474 851.5 575 c 128,-1,22
 878 676 878 676 892.5 780.5 c 128,-1,23
 907 885 907 885 907 981 c 0,0,1
1128 946 m 0,24,25
 1128 826 1128 826 1107 707 c 128,-1,26
 1086 588 1086 588 1046 479.5 c 128,-1,27
 1006 371 1006 371 948.5 277 c 128,-1,28
 891 183 891 183 817.5 114.5 c 128,-1,29
 744 46 744 46 656 6.5 c 128,-1,30
 568 -33 568 -33 467 -33 c 0,31,32
 372 -33 372 -33 298 -2 c 128,-1,33
 224 29 224 29 173.5 87.5 c 128,-1,34
 123 146 123 146 96.5 231.5 c 128,-1,35
 70 317 70 317 70 426 c 0,36,37
 70 534 70 534 88.5 648.5 c 128,-1,38
 107 763 107 763 144 872 c 128,-1,39
 181 981 181 981 236.5 1078.5 c 128,-1,40
 292 1176 292 1176 366 1249 c 128,-1,41
 440 1322 440 1322 532.5 1364.5 c 128,-1,42
 625 1407 625 1407 735 1407 c 0,43,44
 837 1407 837 1407 911 1371.5 c 128,-1,45
 985 1336 985 1336 1033 1274 c 128,-1,46
 1081 1212 1081 1212 1104.5 1127.5 c 128,-1,47
 1128 1043 1128 1043 1128 946 c 0,24,25
EndSplineSet
EndChar

StartChar: one
Encoding: 49 49 20
Width: 1139
Flags: W
LayerCount: 2
Fore
SplineSet
623 147 m 2,0,1
 619 130 619 130 628 119 c 128,-1,2
 637 108 637 108 662 106 c 2,3,-1
 815 96 l 1,4,-1
 815 0 l 1,5,-1
 172 0 l 1,6,-1
 172 96 l 1,7,-1
 379 106 l 1,8,9
 396 108 396 108 405.5 120 c 128,-1,10
 415 132 415 132 418 147 c 2,11,-1
 627 1219 l 1,12,-1
 305 1178 l 1,13,-1
 305 1270 l 1,14,-1
 791 1407 l 1,15,-1
 866 1407 l 1,16,-1
 623 147 l 2,0,1
EndSplineSet
EndChar

StartChar: two
Encoding: 50 50 21
Width: 1139
Flags: W
LayerCount: 2
Fore
SplineSet
1096 1102 m 0,0,1
 1096 1032 1096 1032 1071.5 963 c 128,-1,2
 1047 894 1047 894 1005 827 c 128,-1,3
 963 760 963 760 905.5 696.5 c 128,-1,4
 848 633 848 633 782 575 c 0,5,6
 718 518 718 518 651.5 466 c 128,-1,7
 585 414 585 414 516 364.5 c 128,-1,8
 447 315 447 315 377.5 267 c 128,-1,9
 308 219 308 219 238 170 c 1,10,-1
 811 170 l 1,11,-1
 881 344 l 1,12,-1
 1004 344 l 1,13,-1
 940 0 l 1,14,-1
 -43 0 l 1,15,-1
 -16 133 l 1,16,17
 132 238 132 238 254 328.5 c 128,-1,18
 376 419 376 419 473.5 499 c 128,-1,19
 571 579 571 579 643.5 651 c 128,-1,20
 716 723 716 723 764 793 c 128,-1,21
 812 863 812 863 836 932.5 c 128,-1,22
 860 1002 860 1002 860 1077 c 0,23,24
 860 1135 860 1135 844 1176.5 c 128,-1,25
 828 1218 828 1218 799.5 1244 c 128,-1,26
 771 1270 771 1270 733 1282 c 128,-1,27
 695 1294 695 1294 651 1294 c 0,28,29
 624 1294 624 1294 598 1289 c 128,-1,30
 572 1284 572 1284 550 1276.5 c 128,-1,31
 528 1269 528 1269 510.5 1261 c 128,-1,32
 493 1253 493 1253 481 1247 c 1,33,-1
 438 1030 l 1,34,35
 433 1026 433 1026 423.5 1020 c 128,-1,36
 414 1014 414 1014 399.5 1008 c 128,-1,37
 385 1002 385 1002 366.5 997.5 c 128,-1,38
 348 993 348 993 324 993 c 0,39,40
 307 993 307 993 287.5 997 c 128,-1,41
 268 1001 268 1001 251 1011 c 128,-1,42
 234 1021 234 1021 222.5 1038.5 c 128,-1,43
 211 1056 211 1056 211 1083 c 0,44,45
 211 1140 211 1140 251.5 1197.5 c 128,-1,46
 292 1255 292 1255 361 1301.5 c 128,-1,47
 430 1348 430 1348 522 1377.5 c 128,-1,48
 614 1407 614 1407 717 1407 c 0,49,50
 797 1407 797 1407 866 1390 c 128,-1,51
 935 1373 935 1373 986 1336.5 c 128,-1,52
 1037 1300 1037 1300 1066.5 1242 c 128,-1,53
 1096 1184 1096 1184 1096 1102 c 0,0,1
EndSplineSet
EndChar

StartChar: three
Encoding: 51 51 22
Width: 1139
Flags: W
LayerCount: 2
Fore
SplineSet
1096 1116 m 0,0,1
 1096 1062 1096 1062 1073.5 1006.5 c 128,-1,2
 1051 951 1051 951 1005 900 c 128,-1,3
 959 849 959 849 887.5 806 c 128,-1,4
 816 763 816 763 719 733 c 1,5,6
 786 723 786 723 840 703.5 c 128,-1,7
 894 684 894 684 932 652 c 128,-1,8
 970 620 970 620 991 575 c 128,-1,9
 1012 530 1012 530 1012 469 c 0,10,11
 1012 371 1012 371 965 280.5 c 128,-1,12
 918 190 918 190 835 120.5 c 128,-1,13
 752 51 752 51 639 9 c 128,-1,14
 526 -33 526 -33 395 -33 c 0,15,16
 291 -33 291 -33 218.5 -10.5 c 128,-1,17
 146 12 146 12 101 46 c 128,-1,18
 56 80 56 80 36 119.5 c 128,-1,19
 16 159 16 159 16 193 c 0,20,21
 16 207 16 207 22.5 227.5 c 128,-1,22
 29 248 29 248 43.5 266.5 c 128,-1,23
 58 285 58 285 82.5 298 c 128,-1,24
 107 311 107 311 143 311 c 0,25,26
 169 311 169 311 192 306 c 128,-1,27
 215 301 215 301 233 293 c 1,28,-1
 264 119 l 1,29,30
 271 114 271 114 285.5 106 c 128,-1,31
 300 98 300 98 320 90.5 c 128,-1,32
 340 83 340 83 364.5 77.5 c 128,-1,33
 389 72 389 72 418 72 c 0,34,35
 492 72 492 72 558.5 100.5 c 128,-1,36
 625 129 625 129 675 178.5 c 128,-1,37
 725 228 725 228 754.5 294.5 c 128,-1,38
 784 361 784 361 784 438 c 0,39,40
 784 510 784 510 758.5 554 c 128,-1,41
 733 598 733 598 697 621 c 128,-1,42
 661 644 661 644 622 651.5 c 128,-1,43
 583 659 583 659 555 659 c 0,44,45
 517 659 517 659 482 655 c 128,-1,46
 447 651 447 651 412 645 c 1,47,-1
 430 772 l 1,48,49
 528 767 528 767 608 790 c 128,-1,50
 688 813 688 813 745 856 c 128,-1,51
 802 899 802 899 833 959 c 128,-1,52
 864 1019 864 1019 864 1090 c 0,53,54
 864 1150 864 1150 843 1190.5 c 128,-1,55
 822 1231 822 1231 790.5 1256 c 128,-1,56
 759 1281 759 1281 723 1292 c 128,-1,57
 687 1303 687 1303 657 1303 c 0,58,59
 624 1303 624 1303 595 1296 c 128,-1,60
 566 1289 566 1289 543 1279 c 128,-1,61
 520 1269 520 1269 502.5 1258 c 128,-1,62
 485 1247 485 1247 475 1239 c 1,63,-1
 444 1044 l 1,64,65
 437 1042 437 1042 424 1037.5 c 128,-1,66
 411 1033 411 1033 395 1028.5 c 128,-1,67
 379 1024 379 1024 362.5 1021 c 128,-1,68
 346 1018 346 1018 332 1018 c 0,69,70
 313 1018 313 1018 294 1024 c 128,-1,71
 275 1030 275 1030 259.5 1042.5 c 128,-1,72
 244 1055 244 1055 234.5 1074 c 128,-1,73
 225 1093 225 1093 225 1118 c 0,74,75
 225 1179 225 1179 268.5 1232 c 128,-1,76
 312 1285 312 1285 382.5 1324 c 128,-1,77
 453 1363 453 1363 543 1385 c 128,-1,78
 633 1407 633 1407 725 1407 c 0,79,80
 903 1407 903 1407 999.5 1333 c 128,-1,81
 1096 1259 1096 1259 1096 1116 c 0,0,1
EndSplineSet
EndChar

StartChar: four
Encoding: 52 52 23
Width: 1139
Flags: W
LayerCount: 2
Fore
SplineSet
272 555 m 1,0,-1
 690 555 l 1,1,-1
 799 1098 l 1,2,-1
 272 555 l 1,0,-1
1042 414 m 1,3,-1
 852 414 l 1,4,-1
 762 -55 l 1,5,-1
 569 -55 l 1,6,-1
 662 414 l 1,7,-1
 43 414 l 1,8,-1
 70 551 l 1,9,-1
 895 1407 l 1,10,-1
 1047 1407 l 1,11,-1
 883 555 l 1,12,-1
 1069 555 l 1,13,-1
 1042 414 l 1,3,-1
EndSplineSet
EndChar

StartChar: five
Encoding: 53 53 24
Width: 1139
Flags: W
LayerCount: 2
Fore
SplineSet
1079 1208 m 1,0,-1
 483 1208 l 1,1,-1
 403 811 l 1,2,3
 441 822 441 822 493.5 832 c 128,-1,4
 546 842 546 842 614 842 c 0,5,6
 684 842 684 842 753.5 825.5 c 128,-1,7
 823 809 823 809 878 770 c 128,-1,8
 933 731 933 731 967 668 c 128,-1,9
 1001 605 1001 605 1001 512 c 0,10,11
 1001 438 1001 438 978 369 c 128,-1,12
 955 300 955 300 913.5 239.5 c 128,-1,13
 872 179 872 179 814 129 c 128,-1,14
 756 79 756 79 685 43 c 128,-1,15
 614 7 614 7 532 -13 c 128,-1,16
 450 -33 450 -33 362 -33 c 0,17,18
 199 -33 199 -33 109.5 18.5 c 128,-1,19
 20 70 20 70 20 158 c 0,20,21
 20 182 20 182 29 205 c 128,-1,22
 38 228 38 228 55.5 245 c 128,-1,23
 73 262 73 262 98.5 272.5 c 128,-1,24
 124 283 124 283 158 283 c 0,25,26
 175 283 175 283 192 280.5 c 128,-1,27
 209 278 209 278 221 274 c 1,28,-1
 276 100 l 1,29,30
 308 89 308 89 340 80.5 c 128,-1,31
 372 72 372 72 410 72 c 0,32,33
 487 72 487 72 555 104 c 128,-1,34
 623 136 623 136 674 189.5 c 128,-1,35
 725 243 725 243 754.5 313 c 128,-1,36
 784 383 784 383 784 459 c 0,37,38
 784 536 784 536 755 586 c 128,-1,39
 726 636 726 636 678 665.5 c 128,-1,40
 630 695 630 695 569 707 c 128,-1,41
 508 719 508 719 444 719 c 0,42,43
 423 719 423 719 393.5 717 c 128,-1,44
 364 715 364 715 333 712 c 128,-1,45
 302 709 302 709 273 706 c 128,-1,46
 244 703 244 703 223 700 c 1,47,-1
 360 1374 l 1,48,-1
 1110 1374 l 1,49,-1
 1079 1208 l 1,0,-1
EndSplineSet
EndChar

StartChar: six
Encoding: 54 54 25
Width: 1139
Flags: W
LayerCount: 2
Fore
SplineSet
846 502 m 0,0,1
 846 569 846 569 831.5 623 c 128,-1,2
 817 677 817 677 787 715 c 128,-1,3
 757 753 757 753 710.5 774 c 128,-1,4
 664 795 664 795 600 795 c 0,5,6
 569 795 569 795 538 790 c 128,-1,7
 507 785 507 785 474 772.5 c 128,-1,8
 441 760 441 760 404.5 739.5 c 128,-1,9
 368 719 368 719 328 688 c 1,10,11
 326 678 326 678 319 648.5 c 128,-1,12
 312 619 312 619 305 580 c 128,-1,13
 298 541 298 541 292.5 498 c 128,-1,14
 287 455 287 455 287 418 c 0,15,16
 287 366 287 366 296 305 c 128,-1,17
 305 244 305 244 330 192 c 128,-1,18
 355 140 355 140 399 105 c 128,-1,19
 443 70 443 70 514 70 c 0,20,21
 578 70 578 70 638 105 c 128,-1,22
 698 140 698 140 744.5 199.5 c 128,-1,23
 791 259 791 259 818.5 337.5 c 128,-1,24
 846 416 846 416 846 502 c 0,0,1
1063 555 m 0,25,26
 1063 436 1063 436 1019.5 329.5 c 128,-1,27
 976 223 976 223 900 142.5 c 128,-1,28
 824 62 824 62 722.5 14.5 c 128,-1,29
 621 -33 621 -33 504 -33 c 0,30,31
 456 -33 456 -33 405 -24.5 c 128,-1,32
 354 -16 354 -16 305.5 5 c 128,-1,33
 257 26 257 26 214.5 61 c 128,-1,34
 172 96 172 96 139.5 148.5 c 128,-1,35
 107 201 107 201 88.5 273 c 128,-1,36
 70 345 70 345 70 440 c 0,37,38
 70 565 70 565 100.5 685.5 c 128,-1,39
 131 806 131 806 189 915 c 128,-1,40
 247 1024 247 1024 331 1118 c 128,-1,41
 415 1212 415 1212 522.5 1284.5 c 128,-1,42
 630 1357 630 1357 759 1404.5 c 128,-1,43
 888 1452 888 1452 1036 1468 c 1,44,-1
 1038 1356 l 1,45,46
 905 1341 905 1341 793 1294 c 128,-1,47
 681 1247 681 1247 594 1176 c 128,-1,48
 507 1105 507 1105 446.5 1014 c 128,-1,49
 386 923 386 923 358 821 c 1,50,51
 433 871 433 871 514 898.5 c 128,-1,52
 595 926 595 926 688 926 c 0,53,54
 770 926 770 926 839 900.5 c 128,-1,55
 908 875 908 875 957.5 827 c 128,-1,56
 1007 779 1007 779 1035 710.5 c 128,-1,57
 1063 642 1063 642 1063 555 c 0,25,26
EndSplineSet
EndChar

StartChar: seven
Encoding: 55 55 26
Width: 1139
Flags: W
LayerCount: 2
Fore
SplineSet
1221 1286 m 1,0,-1
 289 -29 l 1,1,-1
 276 -76 l 1,2,-1
 74 -76 l 1,3,-1
 985 1208 l 1,4,-1
 389 1208 l 1,5,-1
 324 1024 l 1,6,-1
 193 1024 l 1,7,-1
 262 1374 l 1,8,-1
 1237 1374 l 1,9,-1
 1221 1286 l 1,0,-1
EndSplineSet
EndChar

StartChar: eight
Encoding: 56 56 27
Width: 1139
Flags: W
LayerCount: 2
Fore
SplineSet
815 373 m 0,0,1
 815 421 815 421 785.5 462 c 128,-1,2
 756 503 756 503 707.5 539 c 128,-1,3
 659 575 659 575 596.5 607.5 c 128,-1,4
 534 640 534 640 469 670 c 1,5,6
 419 643 419 643 376.5 609 c 128,-1,7
 334 575 334 575 302.5 534 c 128,-1,8
 271 493 271 493 253.5 444.5 c 128,-1,9
 236 396 236 396 236 340 c 0,10,11
 236 286 236 286 254 238.5 c 128,-1,12
 272 191 272 191 306.5 155.5 c 128,-1,13
 341 120 341 120 390.5 99 c 128,-1,14
 440 78 440 78 504 78 c 0,15,16
 569 78 569 78 626 103.5 c 128,-1,17
 683 129 683 129 725 170 c 128,-1,18
 767 211 767 211 791 264 c 128,-1,19
 815 317 815 317 815 373 c 0,0,1
891 1100 m 0,20,21
 891 1147 891 1147 877 1185.5 c 128,-1,22
 863 1224 863 1224 837.5 1251.5 c 128,-1,23
 812 1279 812 1279 775 1294 c 128,-1,24
 738 1309 738 1309 692 1309 c 0,25,26
 635 1309 635 1309 584.5 1286.5 c 128,-1,27
 534 1264 534 1264 496.5 1225 c 128,-1,28
 459 1186 459 1186 437.5 1134 c 128,-1,29
 416 1082 416 1082 416 1024 c 0,30,31
 416 982 416 982 434.5 947 c 128,-1,32
 453 912 453 912 487 882 c 128,-1,33
 521 852 521 852 569.5 825.5 c 128,-1,34
 618 799 618 799 678 774 c 1,35,36
 726 799 726 799 765 832.5 c 128,-1,37
 804 866 804 866 832 906.5 c 128,-1,38
 860 947 860 947 875.5 995.5 c 128,-1,39
 891 1044 891 1044 891 1100 c 0,20,21
1085 1118 m 0,40,41
 1085 1037 1085 1037 1060.5 977 c 128,-1,42
 1036 917 1036 917 994 872 c 128,-1,43
 952 827 952 827 896 793 c 128,-1,44
 840 759 840 759 778 731 c 1,45,46
 818 713 818 713 863 687.5 c 128,-1,47
 908 662 908 662 946 625 c 128,-1,48
 984 588 984 588 1009 539.5 c 128,-1,49
 1034 491 1034 491 1034 428 c 0,50,51
 1034 333 1034 333 990.5 249.5 c 128,-1,52
 947 166 947 166 870.5 103 c 128,-1,53
 794 40 794 40 690.5 3.5 c 128,-1,54
 587 -33 587 -33 467 -33 c 0,55,56
 362 -33 362 -33 280.5 -9 c 128,-1,57
 199 15 199 15 143.5 59.5 c 128,-1,58
 88 104 88 104 59.5 166 c 128,-1,59
 31 228 31 228 31 303 c 0,60,61
 31 353 31 353 48 409 c 128,-1,62
 65 465 65 465 105.5 521 c 128,-1,63
 146 577 146 577 212.5 629.5 c 128,-1,64
 279 682 279 682 377 725 c 1,65,66
 325 753 325 753 292.5 784.5 c 128,-1,67
 260 816 260 816 242 849 c 128,-1,68
 224 882 224 882 217.5 915 c 128,-1,69
 211 948 211 948 211 979 c 0,70,71
 211 1063 211 1063 245.5 1140.5 c 128,-1,72
 280 1218 280 1218 344.5 1277.5 c 128,-1,73
 409 1337 409 1337 502 1372 c 128,-1,74
 595 1407 595 1407 711 1407 c 0,75,76
 804 1407 804 1407 874 1384.5 c 128,-1,77
 944 1362 944 1362 991 1323 c 128,-1,78
 1038 1284 1038 1284 1061.5 1231.5 c 128,-1,79
 1085 1179 1085 1179 1085 1118 c 0,40,41
EndSplineSet
EndChar

StartChar: nine
Encoding: 57 57 28
Width: 1139
Flags: W
LayerCount: 2
Fore
SplineSet
924 977 m 0,0,1
 924 1077 924 1077 901 1141.5 c 128,-1,2
 878 1206 878 1206 843 1243.5 c 128,-1,3
 808 1281 808 1281 766.5 1295 c 128,-1,4
 725 1309 725 1309 688 1309 c 0,5,6
 620 1309 620 1309 560 1273 c 128,-1,7
 500 1237 500 1237 454.5 1176.5 c 128,-1,8
 409 1116 409 1116 382.5 1036.5 c 128,-1,9
 356 957 356 957 356 870 c 0,10,11
 356 794 356 794 379 741 c 128,-1,12
 402 688 402 688 437.5 654.5 c 128,-1,13
 473 621 473 621 515.5 605.5 c 128,-1,14
 558 590 558 590 598 590 c 0,15,16
 653 590 653 590 702 606.5 c 128,-1,17
 751 623 751 623 789.5 644.5 c 128,-1,18
 828 666 828 666 853 686.5 c 128,-1,19
 878 707 878 707 885 715 c 1,20,21
 896 778 896 778 910 845 c 128,-1,22
 924 912 924 912 924 977 c 0,0,1
1141 979 m 0,23,24
 1141 828 1141 828 1098.5 698.5 c 128,-1,25
 1056 569 1056 569 982.5 459.5 c 128,-1,26
 909 350 909 350 810.5 260.5 c 128,-1,27
 712 171 712 171 600.5 100 c 128,-1,28
 489 29 489 29 370 -24 c 128,-1,29
 251 -77 251 -77 137 -113 c 1,30,-1
 94 -16 l 1,31,32
 203 26 203 26 302 74.5 c 128,-1,33
 401 123 401 123 491.5 188.5 c 128,-1,34
 582 254 582 254 664 343 c 128,-1,35
 746 432 746 432 821 555 c 1,36,37
 787 538 787 538 749 522 c 128,-1,38
 711 506 711 506 671 494 c 128,-1,39
 631 482 631 482 589 474.5 c 128,-1,40
 547 467 547 467 506 467 c 0,41,42
 442 467 442 467 376 486.5 c 128,-1,43
 310 506 310 506 256 549 c 128,-1,44
 202 592 202 592 167.5 661 c 128,-1,45
 133 730 133 730 133 829 c 0,46,47
 133 949 133 949 178 1054.5 c 128,-1,48
 223 1160 223 1160 302.5 1238 c 128,-1,49
 382 1316 382 1316 490 1361.5 c 128,-1,50
 598 1407 598 1407 723 1407 c 0,51,52
 758 1407 758 1407 803 1402 c 128,-1,53
 848 1397 848 1397 894 1381 c 128,-1,54
 940 1365 940 1365 984.5 1336 c 128,-1,55
 1029 1307 1029 1307 1064 1259.5 c 128,-1,56
 1099 1212 1099 1212 1120 1143 c 128,-1,57
 1141 1074 1141 1074 1141 979 c 0,23,24
EndSplineSet
EndChar

StartChar: colon
Encoding: 58 58 29
Width: 573
Flags: W
LayerCount: 2
Fore
SplineSet
311 113 m 0,0,1
 311 84 311 84 300 59 c 128,-1,2
 289 34 289 34 270 15.5 c 128,-1,3
 251 -3 251 -3 225.5 -14 c 128,-1,4
 200 -25 200 -25 172 -25 c 0,5,6
 143 -25 143 -25 118.5 -14 c 128,-1,7
 94 -3 94 -3 75 15.5 c 128,-1,8
 56 34 56 34 45.5 59 c 128,-1,9
 35 84 35 84 35 113 c 0,10,11
 35 141 35 141 45.5 166 c 128,-1,12
 56 191 56 191 75 209.5 c 128,-1,13
 94 228 94 228 118.5 239 c 128,-1,14
 143 250 143 250 172 250 c 0,15,16
 200 250 200 250 225.5 239 c 128,-1,17
 251 228 251 228 270 209.5 c 128,-1,18
 289 191 289 191 300 166 c 128,-1,19
 311 141 311 141 311 113 c 0,0,1
461 874 m 256,20,21
 461 846 461 846 450 821 c 128,-1,22
 439 796 439 796 420 777.5 c 128,-1,23
 401 759 401 759 375.5 748 c 128,-1,24
 350 737 350 737 322 737 c 0,25,26
 293 737 293 737 268 748 c 128,-1,27
 243 759 243 759 224.5 777.5 c 128,-1,28
 206 796 206 796 195 821 c 128,-1,29
 184 846 184 846 184 874 c 256,30,31
 184 902 184 902 195 927.5 c 128,-1,32
 206 953 206 953 224.5 971.5 c 128,-1,33
 243 990 243 990 268 1001 c 128,-1,34
 293 1012 293 1012 322 1012 c 0,35,36
 350 1012 350 1012 375.5 1001 c 128,-1,37
 401 990 401 990 420 971.5 c 128,-1,38
 439 953 439 953 450 927.5 c 128,-1,39
 461 902 461 902 461 874 c 256,20,21
EndSplineSet
EndChar

StartChar: semicolon
Encoding: 59 59 30
Width: 573
Flags: W
LayerCount: 2
Fore
SplineSet
326 98 m 0,0,1
 326 11 326 11 289 -67 c 128,-1,2
 252 -145 252 -145 190.5 -205 c 128,-1,3
 129 -265 129 -265 50 -303 c 128,-1,4
 -29 -341 -29 -341 -113 -348 c 1,5,-1
 -98 -274 l 1,6,7
 -35 -261 -35 -261 12.5 -238 c 128,-1,8
 60 -215 60 -215 94.5 -180.5 c 128,-1,9
 129 -146 129 -146 151 -98 c 128,-1,10
 173 -50 173 -50 184 14 c 1,11,-1
 55 14 l 1,12,13
 44 28 44 28 39.5 47.5 c 128,-1,14
 35 67 35 67 35 84 c 0,15,16
 35 114 35 114 48 143.5 c 128,-1,17
 61 173 61 173 83 197 c 128,-1,18
 105 221 105 221 133.5 235.5 c 128,-1,19
 162 250 162 250 193 250 c 0,20,21
 228 250 228 250 253.5 238.5 c 128,-1,22
 279 227 279 227 295 206.5 c 128,-1,23
 311 186 311 186 318.5 158 c 128,-1,24
 326 130 326 130 326 98 c 0,0,1
461 874 m 256,25,26
 461 846 461 846 450 821 c 128,-1,27
 439 796 439 796 420 777.5 c 128,-1,28
 401 759 401 759 375.5 748 c 128,-1,29
 350 737 350 737 322 737 c 0,30,31
 293 737 293 737 268 748 c 128,-1,32
 243 759 243 759 224.5 777.5 c 128,-1,33
 206 796 206 796 195 821 c 128,-1,34
 184 846 184 846 184 874 c 256,35,36
 184 902 184 902 195 927.5 c 128,-1,37
 206 953 206 953 224.5 971.5 c 128,-1,38
 243 990 243 990 268 1001 c 128,-1,39
 293 1012 293 1012 322 1012 c 0,40,41
 350 1012 350 1012 375.5 1001 c 128,-1,42
 401 990 401 990 420 971.5 c 128,-1,43
 439 953 439 953 450 927.5 c 128,-1,44
 461 902 461 902 461 874 c 256,25,26
EndSplineSet
EndChar

StartChar: less
Encoding: 60 60 31
Width: 2048
Flags: W
LayerCount: 2
Fore
SplineSet
410 551 m 1,0,-1
 410 678 l 1,1,-1
 1638 1149 l 1,2,-1
 1638 1022 l 1,3,-1
 541 614 l 1,4,-1
 1638 207 l 1,5,-1
 1638 80 l 1,6,-1
 410 551 l 1,0,-1
EndSplineSet
EndChar

StartChar: equal
Encoding: 61 61 32
Width: 2048
Flags: W
LayerCount: 2
Fore
SplineSet
410 365 m 1,0,-1
 410 492 l 1,1,-1
 1638 492 l 1,2,-1
 1638 365 l 1,3,-1
 410 365 l 1,0,-1
410 737 m 1,4,-1
 410 864 l 1,5,-1
 1638 864 l 1,6,-1
 1638 737 l 1,7,-1
 410 737 l 1,4,-1
EndSplineSet
EndChar

StartChar: greater
Encoding: 62 62 33
Width: 2048
Flags: W
LayerCount: 2
Fore
SplineSet
410 80 m 1,0,-1
 410 207 l 1,1,-1
 1507 614 l 1,2,-1
 410 1022 l 1,3,-1
 410 1149 l 1,4,-1
 1638 678 l 1,5,-1
 1638 551 l 1,6,-1
 410 80 l 1,0,-1
EndSplineSet
EndChar

StartChar: question
Encoding: 63 63 34
Width: 995
Flags: W
LayerCount: 2
Fore
SplineSet
465 90 m 256,0,1
 465 66 465 66 456.5 44 c 128,-1,2
 448 22 448 22 431 5 c 128,-1,3
 414 -12 414 -12 389.5 -22.5 c 128,-1,4
 365 -33 365 -33 334 -33 c 0,5,6
 302 -33 302 -33 276.5 -23 c 128,-1,7
 251 -13 251 -13 233.5 4 c 128,-1,8
 216 21 216 21 206.5 42.5 c 128,-1,9
 197 64 197 64 197 88 c 256,10,11
 197 112 197 112 206.5 134.5 c 128,-1,12
 216 157 216 157 233.5 174.5 c 128,-1,13
 251 192 251 192 276.5 202.5 c 128,-1,14
 302 213 302 213 334 213 c 0,15,16
 365 213 365 213 389.5 203 c 128,-1,17
 414 193 414 193 431 175.5 c 128,-1,18
 448 158 448 158 456.5 136 c 128,-1,19
 465 114 465 114 465 90 c 256,0,1
948 1112 m 0,20,21
 948 1009 948 1009 906.5 927.5 c 128,-1,22
 865 846 865 846 798.5 782.5 c 128,-1,23
 732 719 732 719 648.5 671.5 c 128,-1,24
 565 624 565 624 481 590 c 1,25,-1
 434 346 l 1,26,-1
 297 346 l 1,27,-1
 352 651 l 1,28,29
 422 673 422 673 489 712.5 c 128,-1,30
 556 752 556 752 608.5 807.5 c 128,-1,31
 661 863 661 863 693 934.5 c 128,-1,32
 725 1006 725 1006 725 1092 c 0,33,34
 725 1197 725 1197 668 1251 c 128,-1,35
 611 1305 611 1305 512 1305 c 1,36,-1
 387 1102 l 1,37,-1
 328 1102 l 2,38,39
 275 1102 275 1102 245 1124 c 128,-1,40
 215 1146 215 1146 215 1186 c 0,41,42
 215 1216 215 1216 232.5 1254.5 c 128,-1,43
 250 1293 250 1293 292 1326.5 c 128,-1,44
 334 1360 334 1360 402.5 1383.5 c 128,-1,45
 471 1407 471 1407 573 1407 c 0,46,47
 664 1407 664 1407 734 1386.5 c 128,-1,48
 804 1366 804 1366 851.5 1327.5 c 128,-1,49
 899 1289 899 1289 923.5 1234.5 c 128,-1,50
 948 1180 948 1180 948 1112 c 0,20,21
EndSplineSet
EndChar

StartChar: at
Encoding: 64 64 35
Width: 1917
Flags: W
LayerCount: 2
Fore
SplineSet
1217 805 m 2,0,1
 1220 818 1220 818 1211.5 838 c 128,-1,2
 1203 858 1203 858 1186.5 876.5 c 128,-1,3
 1170 895 1170 895 1146.5 908.5 c 128,-1,4
 1123 922 1123 922 1096 922 c 0,5,6
 1020 922 1020 922 959 886.5 c 128,-1,7
 898 851 898 851 855 789.5 c 128,-1,8
 812 728 812 728 789 645.5 c 128,-1,9
 766 563 766 563 766 469 c 0,10,11
 766 358 766 358 807 303 c 128,-1,12
 848 248 848 248 926 248 c 0,13,14
 960 248 960 248 991 261.5 c 128,-1,15
 1022 275 1022 275 1048.5 295 c 128,-1,16
 1075 315 1075 315 1097 338 c 128,-1,17
 1119 361 1119 361 1135 381 c 1,18,-1
 1217 805 l 2,0,1
1790 764 m 0,19,20
 1790 660 1790 660 1767 571.5 c 128,-1,21
 1744 483 1744 483 1705.5 411 c 128,-1,22
 1667 339 1667 339 1616 283.5 c 128,-1,23
 1565 228 1565 228 1509 190.5 c 128,-1,24
 1453 153 1453 153 1396 134 c 128,-1,25
 1339 115 1339 115 1288 115 c 0,26,27
 1203 115 1203 115 1165.5 157.5 c 128,-1,28
 1128 200 1128 200 1128 285 c 1,29,30
 1048 204 1048 204 977 160.5 c 128,-1,31
 906 117 906 117 834 117 c 0,32,33
 778 117 778 117 731 140.5 c 128,-1,34
 684 164 684 164 650 207.5 c 128,-1,35
 616 251 616 251 597 312.5 c 128,-1,36
 578 374 578 374 578 451 c 0,37,38
 578 568 578 568 621 670 c 128,-1,39
 664 772 664 772 735 847 c 128,-1,40
 806 922 806 922 897 965 c 128,-1,41
 988 1008 988 1008 1085 1008 c 0,42,43
 1107 1008 1107 1008 1133 1004 c 128,-1,44
 1159 1000 1159 1000 1185.5 992.5 c 128,-1,45
 1212 985 1212 985 1238 974.5 c 128,-1,46
 1264 964 1264 964 1286 952 c 1,47,-1
 1323 999 l 1,48,-1
 1440 999 l 1,49,50
 1438 993 1438 993 1431 963.5 c 128,-1,51
 1424 934 1424 934 1413.5 890.5 c 128,-1,52
 1403 847 1403 847 1390.5 792.5 c 128,-1,53
 1378 738 1378 738 1365 683 c 0,54,55
 1335 553 1335 553 1298 391 c 0,56,57
 1290 356 1290 356 1290 326.5 c 128,-1,58
 1290 297 1290 297 1299 276 c 128,-1,59
 1308 255 1308 255 1326.5 243 c 128,-1,60
 1345 231 1345 231 1374 231 c 0,61,62
 1404 231 1404 231 1439.5 247.5 c 128,-1,63
 1475 264 1475 264 1510 296 c 128,-1,64
 1545 328 1545 328 1577.5 374 c 128,-1,65
 1610 420 1610 420 1635 479 c 128,-1,66
 1660 538 1660 538 1675 609.5 c 128,-1,67
 1690 681 1690 681 1690 762 c 0,68,69
 1690 858 1690 858 1667.5 937.5 c 128,-1,70
 1645 1017 1645 1017 1605 1079.5 c 128,-1,71
 1565 1142 1565 1142 1510.5 1188 c 128,-1,72
 1456 1234 1456 1234 1392 1264.5 c 128,-1,73
 1328 1295 1328 1295 1257 1310 c 128,-1,74
 1186 1325 1186 1325 1114 1325 c 0,75,76
 997 1325 997 1325 892.5 1297.5 c 128,-1,77
 788 1270 788 1270 699.5 1219.5 c 128,-1,78
 611 1169 611 1169 539.5 1097 c 128,-1,79
 468 1025 468 1025 418.5 936 c 128,-1,80
 369 847 369 847 342 743.5 c 128,-1,81
 315 640 315 640 315 526 c 0,82,83
 315 370 315 370 363.5 235 c 128,-1,84
 412 100 412 100 504 1 c 128,-1,85
 596 -98 596 -98 729 -154.5 c 128,-1,86
 862 -211 862 -211 1032 -211 c 0,87,88
 1122 -211 1122 -211 1200.5 -197 c 128,-1,89
 1279 -183 1279 -183 1346.5 -161 c 128,-1,90
 1414 -139 1414 -139 1471 -112 c 128,-1,91
 1528 -85 1528 -85 1575 -59 c 1,92,-1
 1604 -133 l 1,93,94
 1535 -170 1535 -170 1462.5 -202.5 c 128,-1,95
 1390 -235 1390 -235 1313.5 -259.5 c 128,-1,96
 1237 -284 1237 -284 1154.5 -298.5 c 128,-1,97
 1072 -313 1072 -313 983 -313 c 0,98,99
 873 -313 873 -313 770.5 -288 c 128,-1,100
 668 -263 668 -263 577.5 -215.5 c 128,-1,101
 487 -168 487 -168 412 -98.5 c 128,-1,102
 337 -29 337 -29 283.5 60 c 128,-1,103
 230 149 230 149 200 257 c 128,-1,104
 170 365 170 365 170 489 c 0,105,106
 170 641 170 641 206.5 768.5 c 128,-1,107
 243 896 243 896 307 999 c 128,-1,108
 371 1102 371 1102 458.5 1180 c 128,-1,109
 546 1258 546 1258 648.5 1310 c 128,-1,110
 751 1362 751 1362 863.5 1388.5 c 128,-1,111
 976 1415 976 1415 1090 1415 c 0,112,113
 1242 1415 1242 1415 1370.5 1372.5 c 128,-1,114
 1499 1330 1499 1330 1592 1247.5 c 128,-1,115
 1685 1165 1685 1165 1737.5 1043.5 c 128,-1,116
 1790 922 1790 922 1790 764 c 0,19,20
EndSplineSet
EndChar

StartChar: A
Encoding: 65 65 36
Width: 1378
Flags: W
LayerCount: 2
Fore
SplineSet
766 1155 m 1,0,-1
 463 623 l 1,1,-1
 854 623 l 1,2,-1
 766 1155 l 1,0,-1
801 0 m 1,3,-1
 801 86 l 1,4,-1
 895 96 l 1,5,6
 940 102 940 102 934 135 c 2,7,-1
 872 526 l 1,8,-1
 408 526 l 1,9,-1
 199 135 l 2,10,11
 188 115 188 115 198.5 107 c 128,-1,12
 209 99 209 99 238 96 c 2,13,-1
 332 86 l 1,14,-1
 332 0 l 1,15,-1
 -109 0 l 1,16,-1
 -109 86 l 1,17,-1
 6 98 l 1,18,-1
 762 1407 l 1,19,-1
 926 1407 l 1,20,-1
 1147 135 l 2,21,22
 1150 115 1150 115 1158 106.5 c 128,-1,23
 1166 98 1166 98 1188 96 c 2,24,-1
 1282 86 l 1,25,-1
 1282 0 l 1,26,-1
 801 0 l 1,3,-1
EndSplineSet
EndChar

StartChar: B
Encoding: 66 66 37
Width: 1243
Flags: W
LayerCount: 2
Fore
SplineSet
1176 1112 m 0,0,1
 1176 1033 1176 1033 1149 972 c 128,-1,2
 1122 911 1122 911 1075.5 865.5 c 128,-1,3
 1029 820 1029 820 966.5 787 c 128,-1,4
 904 754 904 754 834 731 c 1,5,6
 901 722 901 722 956 703.5 c 128,-1,7
 1011 685 1011 685 1051 653 c 128,-1,8
 1091 621 1091 621 1113 573.5 c 128,-1,9
 1135 526 1135 526 1135 459 c 0,10,11
 1135 333 1135 333 1089 245.5 c 128,-1,12
 1043 158 1043 158 961.5 103.5 c 128,-1,13
 880 49 880 49 769.5 24.5 c 128,-1,14
 659 0 659 0 530 0 c 2,15,-1
 -31 0 l 1,16,-1
 -31 86 l 1,17,-1
 98 96 l 2,18,19
 117 98 117 98 125.5 107.5 c 128,-1,20
 134 117 134 117 137 135 c 2,21,-1
 350 1237 l 2,22,23
 353 1254 353 1254 345 1265 c 128,-1,24
 337 1276 337 1276 309 1278 c 2,25,-1
 195 1288 l 1,26,-1
 195 1374 l 1,27,-1
 770 1374 l 2,28,29
 881 1374 881 1374 958.5 1355.5 c 128,-1,30
 1036 1337 1036 1337 1084.5 1302.5 c 128,-1,31
 1133 1268 1133 1268 1154.5 1219.5 c 128,-1,32
 1176 1171 1176 1171 1176 1112 c 0,0,1
911 438 m 0,33,34
 911 501 911 501 889 544.5 c 128,-1,35
 867 588 867 588 826.5 615 c 128,-1,36
 786 642 786 642 728 654 c 128,-1,37
 670 666 670 666 598 666 c 0,38,39
 560 666 560 666 519 663 c 128,-1,40
 478 660 478 660 444 655 c 1,41,-1
 336 98 l 1,42,43
 348 97 348 97 364.5 96 c 128,-1,44
 381 95 381 95 398.5 94 c 128,-1,45
 416 93 416 93 433 92.5 c 128,-1,46
 450 92 450 92 463 92 c 0,47,48
 683 92 683 92 797 183.5 c 128,-1,49
 911 275 911 275 911 438 c 0,33,34
948 1098 m 0,50,51
 948 1195 948 1195 874.5 1240.5 c 128,-1,52
 801 1286 801 1286 670 1286 c 0,53,54
 638 1286 638 1286 610 1284 c 128,-1,55
 582 1282 582 1282 565 1280 c 1,56,-1
 465 760 l 1,57,58
 477 759 477 759 490 758 c 2,59,-1
 517 757 l 2,60,61
 531 757 531 757 542.5 756.5 c 128,-1,62
 554 756 554 756 561 756 c 0,63,64
 657 756 657 756 729.5 783.5 c 128,-1,65
 802 811 802 811 850.5 857.5 c 128,-1,66
 899 904 899 904 923.5 966.5 c 128,-1,67
 948 1029 948 1029 948 1098 c 0,50,51
EndSplineSet
EndChar

StartChar: C
Encoding: 67 67 38
Width: 1290
Flags: W
LayerCount: 2
Fore
SplineSet
1264 1006 m 1,0,-1
 1143 1006 l 1,1,-1
 1143 1196 l 2,2,3
 1143 1212 1143 1212 1131.5 1229 c 128,-1,4
 1120 1246 1120 1246 1106 1251 c 0,5,6
 1102 1253 1102 1253 1088 1261.5 c 128,-1,7
 1074 1270 1074 1270 1051.5 1279 c 128,-1,8
 1029 1288 1029 1288 999 1295.5 c 128,-1,9
 969 1303 969 1303 932 1303 c 0,10,11
 853 1303 853 1303 777 1278 c 128,-1,12
 701 1253 701 1253 632.5 1206 c 128,-1,13
 564 1159 564 1159 506 1091 c 128,-1,14
 448 1023 448 1023 405.5 936.5 c 128,-1,15
 363 850 363 850 339 746 c 128,-1,16
 315 642 315 642 315 524 c 0,17,18
 315 408 315 408 348.5 323 c 128,-1,19
 382 238 382 238 439 182 c 128,-1,20
 496 126 496 126 572.5 99 c 128,-1,21
 649 72 649 72 735 72 c 0,22,23
 768 72 768 72 795 76.5 c 128,-1,24
 822 81 822 81 841.5 87 c 128,-1,25
 861 93 861 93 873 98.5 c 128,-1,26
 885 104 885 104 889 106 c 1,27,28
 901 108 901 108 915.5 120.5 c 128,-1,29
 930 133 930 133 936 147 c 2,30,-1
 1024 381 l 1,31,-1
 1145 381 l 1,32,-1
 1090 49 l 1,33,34
 1078 45 1078 45 1038.5 32 c 128,-1,35
 999 19 999 19 941.5 4.5 c 128,-1,36
 884 -10 884 -10 813 -21.5 c 128,-1,37
 742 -33 742 -33 668 -33 c 0,38,39
 566 -33 566 -33 484 -10 c 128,-1,40
 402 13 402 13 339 53 c 128,-1,41
 276 93 276 93 230 148 c 128,-1,42
 184 203 184 203 155 267.5 c 128,-1,43
 126 332 126 332 112 403 c 128,-1,44
 98 474 98 474 98 547 c 0,45,46
 98 656 98 656 125 762 c 128,-1,47
 152 868 152 868 203 963.5 c 128,-1,48
 254 1059 254 1059 327 1140.5 c 128,-1,49
 400 1222 400 1222 491.5 1281 c 128,-1,50
 583 1340 583 1340 691.5 1373.5 c 128,-1,51
 800 1407 800 1407 922 1407 c 0,52,53
 972 1407 972 1407 1018 1401.5 c 128,-1,54
 1064 1396 1064 1396 1111 1385.5 c 128,-1,55
 1158 1375 1158 1375 1209 1359.5 c 128,-1,56
 1260 1344 1260 1344 1319 1325 c 1,57,-1
 1264 1006 l 1,0,-1
EndSplineSet
EndChar

StartChar: D
Encoding: 68 68 39
Width: 1374
Flags: W
LayerCount: 2
Fore
SplineSet
1116 868 m 0,0,1
 1116 996 1116 996 1077 1074 c 128,-1,2
 1038 1152 1038 1152 972 1195 c 128,-1,3
 906 1238 906 1238 819 1253.5 c 128,-1,4
 732 1269 732 1269 637 1272 c 1,5,-1
 563 1272 l 1,6,-1
 338 106 l 1,7,-1
 487 106 l 1,8,9
 642 108 642 108 760 172.5 c 128,-1,10
 878 237 878 237 957 343 c 128,-1,11
 1036 449 1036 449 1076 585.5 c 128,-1,12
 1116 722 1116 722 1116 868 c 0,0,1
1337 850 m 0,13,14
 1337 724 1337 724 1308 612 c 128,-1,15
 1279 500 1279 500 1224 405.5 c 128,-1,16
 1169 311 1169 311 1090.5 236 c 128,-1,17
 1012 161 1012 161 913.5 108.5 c 128,-1,18
 815 56 815 56 698.5 28 c 128,-1,19
 582 0 582 0 451 0 c 2,20,-1
 -31 0 l 1,21,-1
 -31 86 l 1,22,-1
 96 96 l 2,23,24
 116 98 116 98 124 107.5 c 128,-1,25
 132 117 132 117 137 135 c 1,26,-1
 350 1237 l 2,27,28
 353 1254 353 1254 345 1265 c 128,-1,29
 337 1276 337 1276 309 1278 c 2,30,-1
 195 1288 l 1,31,-1
 195 1374 l 1,32,-1
 684 1374 l 2,33,34
 824 1374 824 1374 943.5 1347 c 128,-1,35
 1063 1320 1063 1320 1150.5 1258 c 128,-1,36
 1238 1196 1238 1196 1287.5 1096 c 128,-1,37
 1337 996 1337 996 1337 850 c 0,13,14
EndSplineSet
EndChar

StartChar: E
Encoding: 69 69 40
Width: 1143
Flags: W
LayerCount: 2
Fore
SplineSet
1126 1067 m 1,0,-1
 995 1067 l 1,1,-1
 995 1233 l 2,2,3
 995 1255 995 1255 987 1263.5 c 128,-1,4
 979 1272 979 1272 956 1272 c 2,5,-1
 563 1272 l 1,6,-1
 469 768 l 1,7,-1
 743 768 l 2,8,9
 765 768 765 768 776.5 776.5 c 128,-1,10
 788 785 788 785 795 807 c 2,11,-1
 834 944 l 1,12,-1
 948 944 l 1,13,-1
 858 475 l 1,14,-1
 741 475 l 1,15,-1
 762 621 l 2,16,17
 768 662 768 662 723 662 c 2,18,-1
 446 662 l 1,19,-1
 340 102 l 1,20,-1
 821 102 l 2,21,22
 843 102 843 102 854.5 113.5 c 128,-1,23
 866 125 866 125 872 143 c 2,24,-1
 936 340 l 1,25,-1
 1061 340 l 1,26,-1
 993 0 l 1,27,-1
 -31 0 l 1,28,-1
 -31 86 l 1,29,-1
 88 96 l 2,30,31
 131 99 131 99 137 135 c 2,32,-1
 350 1237 l 2,33,34
 353 1254 353 1254 345 1265 c 128,-1,35
 337 1276 337 1276 311 1278 c 2,36,-1
 197 1288 l 1,37,-1
 197 1374 l 1,38,-1
 1188 1374 l 1,39,-1
 1126 1067 l 1,0,-1
EndSplineSet
EndChar

StartChar: F
Encoding: 70 70 41
Width: 1053
Flags: W
LayerCount: 2
Fore
SplineSet
1102 1044 m 1,0,-1
 971 1044 l 1,1,-1
 971 1233 l 2,2,3
 971 1255 971 1255 962 1263.5 c 128,-1,4
 953 1272 953 1272 930 1272 c 2,5,-1
 563 1272 l 1,6,-1
 463 745 l 1,7,-1
 725 745 l 2,8,9
 747 745 747 745 758 754 c 128,-1,10
 769 763 769 763 774 784 c 2,11,-1
 813 924 l 1,12,-1
 930 924 l 1,13,-1
 840 457 l 1,14,-1
 723 457 l 1,15,-1
 743 600 l 1,16,17
 747 620 747 620 735.5 630.5 c 128,-1,18
 724 641 724 641 702 641 c 2,19,-1
 442 641 l 1,20,-1
 344 135 l 2,21,22
 341 120 341 120 349 109 c 128,-1,23
 357 98 357 98 383 96 c 2,24,-1
 516 86 l 1,25,-1
 516 0 l 1,26,-1
 -31 0 l 1,27,-1
 -31 86 l 1,28,-1
 86 96 l 2,29,30
 128 99 128 99 137 135 c 1,31,-1
 350 1237 l 2,32,33
 353 1254 353 1254 345 1265 c 128,-1,34
 337 1276 337 1276 309 1278 c 2,35,-1
 195 1288 l 1,36,-1
 195 1374 l 1,37,-1
 1165 1374 l 1,38,-1
 1102 1044 l 1,0,-1
EndSplineSet
EndChar

StartChar: G
Encoding: 71 71 42
Width: 1409
Flags: W
LayerCount: 2
Fore
SplineSet
1266 567 m 2,0,1
 1246 565 1246 565 1232.5 556.5 c 128,-1,2
 1219 548 1219 548 1214 528 c 1,3,-1
 1122 47 l 1,4,5
 1112 44 1112 44 1087 37.5 c 128,-1,6
 1062 31 1062 31 1027 22 c 128,-1,7
 992 13 992 13 949.5 3.5 c 128,-1,8
 907 -6 907 -6 861 -14.5 c 128,-1,9
 815 -23 815 -23 768.5 -28 c 128,-1,10
 722 -33 722 -33 680 -33 c 0,11,12
 563 -33 563 -33 474.5 -6 c 128,-1,13
 386 21 386 21 321.5 66.5 c 128,-1,14
 257 112 257 112 214 171.5 c 128,-1,15
 171 231 171 231 145 296 c 128,-1,16
 119 361 119 361 108.5 426.5 c 128,-1,17
 98 492 98 492 98 549 c 0,18,19
 98 680 98 680 133 794.5 c 128,-1,20
 168 909 168 909 229.5 1004.5 c 128,-1,21
 291 1100 291 1100 374.5 1174.5 c 128,-1,22
 458 1249 458 1249 556.5 1301 c 128,-1,23
 655 1353 655 1353 763 1380 c 128,-1,24
 871 1407 871 1407 981 1407 c 0,25,26
 1031 1407 1031 1407 1074.5 1403 c 128,-1,27
 1118 1399 1118 1399 1162 1390.5 c 128,-1,28
 1206 1382 1206 1382 1254.5 1368.5 c 128,-1,29
 1303 1355 1303 1355 1362 1337 c 1,30,-1
 1298 1008 l 1,31,-1
 1159 1008 l 1,32,-1
 1165 1196 l 1,33,34
 1167 1219 1167 1219 1156 1233.5 c 128,-1,35
 1145 1248 1145 1248 1126 1253 c 0,36,37
 1122 1254 1122 1254 1109 1261 c 128,-1,38
 1096 1268 1096 1268 1074.5 1276 c 128,-1,39
 1053 1284 1053 1284 1023 1290 c 128,-1,40
 993 1296 993 1296 956 1296 c 0,41,42
 879 1296 879 1296 802.5 1271 c 128,-1,43
 726 1246 726 1246 655.5 1199 c 128,-1,44
 585 1152 585 1152 524.5 1083.5 c 128,-1,45
 464 1015 464 1015 419.5 928.5 c 128,-1,46
 375 842 375 842 349.5 738 c 128,-1,47
 324 634 324 634 324 516 c 0,48,49
 324 433 324 433 343 368.5 c 128,-1,50
 362 304 362 304 394 255 c 128,-1,51
 426 206 426 206 467 172 c 128,-1,52
 508 138 508 138 552 116.5 c 128,-1,53
 596 95 596 95 640 85.5 c 128,-1,54
 684 76 684 76 721 76 c 0,55,56
 752 76 752 76 783.5 80 c 128,-1,57
 815 84 815 84 843 90 c 128,-1,58
 871 96 871 96 893.5 102 c 128,-1,59
 916 108 916 108 928 111 c 1,60,-1
 1008 528 l 2,61,62
 1011 545 1011 545 1003 555 c 128,-1,63
 995 565 995 565 967 567 c 2,64,-1
 854 578 l 1,65,-1
 854 664 l 1,66,-1
 1382 664 l 1,67,-1
 1382 578 l 1,68,-1
 1266 567 l 2,0,1
EndSplineSet
EndChar

StartChar: H
Encoding: 72 72 43
Width: 1485
Flags: W
LayerCount: 2
Fore
SplineSet
1452 1278 m 2,0,1
 1433 1276 1433 1276 1420.5 1266.5 c 128,-1,2
 1408 1257 1408 1257 1403 1237 c 1,3,-1
 1190 135 l 2,4,5
 1187 120 1187 120 1195 109 c 128,-1,6
 1203 98 1203 98 1231 96 c 2,7,-1
 1346 86 l 1,8,-1
 1346 0 l 1,9,-1
 811 0 l 1,10,-1
 811 86 l 1,11,-1
 934 96 l 2,12,13
 952 98 952 98 966 107.5 c 128,-1,14
 980 117 980 117 983 135 c 2,15,-1
 1085 668 l 1,16,-1
 446 668 l 1,17,-1
 344 135 l 2,18,19
 341 120 341 120 349 109 c 128,-1,20
 357 98 357 98 383 96 c 2,21,-1
 502 86 l 1,22,-1
 502 0 l 1,23,-1
 -31 0 l 1,24,-1
 -31 86 l 1,25,-1
 86 96 l 2,26,27
 128 99 128 99 137 135 c 1,28,-1
 350 1237 l 2,29,30
 353 1254 353 1254 345 1265 c 128,-1,31
 337 1276 337 1276 309 1278 c 2,32,-1
 195 1288 l 1,33,-1
 195 1374 l 1,34,-1
 727 1374 l 1,35,-1
 727 1288 l 1,36,-1
 606 1278 l 2,37,38
 588 1276 588 1276 574 1266.5 c 128,-1,39
 560 1257 560 1257 557 1237 c 2,40,-1
 467 770 l 1,41,-1
 1106 770 l 1,42,-1
 1196 1237 l 2,43,44
 1199 1254 1199 1254 1191 1265 c 128,-1,45
 1183 1276 1183 1276 1155 1278 c 2,46,-1
 1038 1288 l 1,47,-1
 1038 1374 l 1,48,-1
 1571 1374 l 1,49,-1
 1571 1288 l 1,50,-1
 1452 1278 l 2,0,1
EndSplineSet
EndChar

StartChar: I
Encoding: 73 73 44
Width: 643
Flags: W
LayerCount: 2
Fore
SplineSet
598 1278 m 2,0,1
 578 1276 578 1276 570 1266.5 c 128,-1,2
 562 1257 562 1257 557 1237 c 1,3,-1
 344 135 l 2,4,5
 341 120 341 120 349 109 c 128,-1,6
 357 98 357 98 385 96 c 2,7,-1
 504 86 l 1,8,-1
 504 0 l 1,9,-1
 -31 0 l 1,10,-1
 -31 86 l 1,11,-1
 98 96 l 2,12,13
 117 98 117 98 125.5 107.5 c 128,-1,14
 134 117 134 117 137 135 c 2,15,-1
 350 1237 l 2,16,17
 353 1254 353 1254 345 1265 c 128,-1,18
 337 1276 337 1276 311 1278 c 2,19,-1
 197 1288 l 1,20,-1
 197 1374 l 1,21,-1
 729 1374 l 1,22,-1
 729 1288 l 1,23,-1
 598 1278 l 2,0,1
EndSplineSet
EndChar

StartChar: J
Encoding: 74 74 45
Width: 958
Flags: W
LayerCount: 2
Fore
SplineSet
922 1278 m 2,0,1
 880 1275 880 1275 870 1237 c 1,2,-1
 739 524 l 2,3,4
 716 397 716 397 683 294 c 128,-1,5
 650 191 650 191 593 118.5 c 128,-1,6
 536 46 536 46 448.5 6.5 c 128,-1,7
 361 -33 361 -33 229 -33 c 0,8,9
 169 -33 169 -33 122 -25 c 128,-1,10
 75 -17 75 -17 41.5 -6.5 c 128,-1,11
 8 4 8 4 -12.5 14.5 c 128,-1,12
 -33 25 -33 25 -41 29 c 1,13,-1
 27 379 l 1,14,-1
 162 379 l 1,15,-1
 162 129 l 2,16,17
 162 103 162 103 187 88.5 c 128,-1,18
 212 74 212 74 244 74 c 0,19,20
 309 74 309 74 355 103 c 128,-1,21
 401 132 401 132 433 187 c 128,-1,22
 465 242 465 242 487.5 322.5 c 128,-1,23
 510 403 510 403 528 506 c 1,24,-1
 664 1237 l 2,25,26
 667 1254 667 1254 659 1265 c 128,-1,27
 651 1276 651 1276 625 1278 c 2,28,-1
 506 1288 l 1,29,-1
 506 1374 l 1,30,-1
 1038 1374 l 1,31,-1
 1038 1288 l 1,32,-1
 922 1278 l 2,0,1
EndSplineSet
EndChar

StartChar: K
Encoding: 75 75 46
Width: 1343
Flags: W
LayerCount: 2
Fore
SplineSet
1245 1272 m 1,0,-1
 709 754 l 1,1,-1
 993 203 l 2,2,3
 1012 165 1012 165 1029.5 141.5 c 128,-1,4
 1047 118 1047 118 1066 104.5 c 128,-1,5
 1085 91 1085 91 1106.5 86.5 c 128,-1,6
 1128 82 1128 82 1155 82 c 0,7,8
 1174 82 1174 82 1195 83 c 128,-1,9
 1216 84 1216 84 1241 86 c 1,10,-1
 1241 0 l 1,11,12
 1193 -14 1193 -14 1141 -23.5 c 128,-1,13
 1089 -33 1089 -33 1049 -33 c 0,14,15
 1004 -33 1004 -33 970.5 -26 c 128,-1,16
 937 -19 937 -19 909 -1.5 c 128,-1,17
 881 16 881 16 858 45 c 128,-1,18
 835 74 835 74 811 119 c 2,19,-1
 559 604 l 1,20,-1
 434 604 l 1,21,-1
 342 135 l 2,22,23
 339 120 339 120 348 109 c 128,-1,24
 357 98 357 98 383 96 c 2,25,-1
 502 86 l 1,26,-1
 502 0 l 1,27,-1
 -33 0 l 1,28,-1
 -33 86 l 1,29,-1
 86 96 l 2,30,31
 129 99 129 99 135 135 c 1,32,-1
 350 1237 l 2,33,34
 353 1254 353 1254 345 1265 c 128,-1,35
 337 1276 337 1276 311 1278 c 2,36,-1
 197 1288 l 1,37,-1
 197 1374 l 1,38,-1
 729 1374 l 1,39,-1
 729 1288 l 1,40,-1
 608 1278 l 2,41,42
 588 1276 588 1276 575 1266.5 c 128,-1,43
 562 1257 562 1257 557 1237 c 1,44,-1
 453 700 l 1,45,-1
 487 700 l 1,46,-1
 1032 1237 l 2,47,48
 1045 1249 1045 1249 1042.5 1262.5 c 128,-1,49
 1040 1276 1040 1276 1018 1278 c 2,50,-1
 887 1288 l 1,51,-1
 887 1374 l 1,52,-1
 1417 1374 l 1,53,-1
 1417 1288 l 1,54,-1
 1245 1272 l 1,0,-1
EndSplineSet
EndChar

StartChar: L
Encoding: 76 76 47
Width: 1061
Flags: W
LayerCount: 2
Fore
SplineSet
915 0 m 1,0,-1
 -31 0 l 1,1,-1
 -31 86 l 1,2,-1
 88 96 l 2,3,4
 131 99 131 99 137 135 c 2,5,-1
 350 1237 l 2,6,7
 353 1254 353 1254 345 1265 c 128,-1,8
 337 1276 337 1276 311 1278 c 2,9,-1
 197 1288 l 1,10,-1
 197 1374 l 1,11,-1
 729 1374 l 1,12,-1
 729 1288 l 1,13,-1
 608 1278 l 2,14,15
 585 1276 585 1276 572.5 1264 c 128,-1,16
 560 1252 560 1252 557 1237 c 2,17,-1
 340 102 l 1,18,-1
 743 102 l 2,19,20
 763 102 763 102 775.5 113.5 c 128,-1,21
 788 125 788 125 795 143 c 1,22,-1
 868 379 l 1,23,-1
 989 379 l 1,24,-1
 915 0 l 1,0,-1
EndSplineSet
EndChar

StartChar: M
Encoding: 77 77 48
Width: 1765
Flags: W
LayerCount: 2
Fore
SplineSet
1733 1278 m 2,0,1
 1691 1275 1691 1275 1681 1237 c 1,2,-1
 1470 135 l 2,3,4
 1467 120 1467 120 1475.5 109 c 128,-1,5
 1484 98 1484 98 1511 96 c 2,6,-1
 1626 86 l 1,7,-1
 1626 0 l 1,8,-1
 1094 0 l 1,9,-1
 1094 86 l 1,10,-1
 1214 96 l 2,11,12
 1233 98 1233 98 1247 107.5 c 128,-1,13
 1261 117 1261 117 1264 135 c 2,14,-1
 1462 1174 l 1,15,-1
 805 0 l 1,16,-1
 682 0 l 1,17,-1
 477 1163 l 1,18,-1
 287 135 l 2,19,20
 284 120 284 120 292 109 c 128,-1,21
 300 98 300 98 326 96 c 2,22,-1
 440 86 l 1,23,-1
 440 0 l 1,24,-1
 -29 0 l 1,25,-1
 -29 86 l 1,26,-1
 88 96 l 2,27,28
 130 99 130 99 139 135 c 1,29,-1
 350 1237 l 2,30,31
 353 1254 353 1254 345 1265 c 128,-1,32
 337 1276 337 1276 309 1278 c 2,33,-1
 195 1288 l 1,34,-1
 195 1374 l 1,35,-1
 653 1374 l 1,36,-1
 653 1317 l 1,37,-1
 829 326 l 1,38,-1
 1376 1307 l 1,39,-1
 1376 1374 l 1,40,-1
 1849 1374 l 1,41,-1
 1849 1288 l 1,42,-1
 1733 1278 l 2,0,1
EndSplineSet
EndChar

StartChar: N
Encoding: 78 78 49
Width: 1456
Flags: W
LayerCount: 2
Fore
SplineSet
1430 1278 m 2,0,1
 1410 1276 1410 1276 1396.5 1266.5 c 128,-1,2
 1383 1257 1383 1257 1378 1237 c 1,3,-1
 1137 0 l 1,4,-1
 989 0 l 1,5,-1
 473 1087 l 1,6,-1
 291 135 l 2,7,8
 288 120 288 120 296 109 c 128,-1,9
 304 98 304 98 332 96 c 2,10,-1
 446 86 l 1,11,-1
 446 0 l 1,12,-1
 -29 0 l 1,13,-1
 -29 86 l 1,14,-1
 88 96 l 2,15,16
 130 99 130 99 139 135 c 1,17,-1
 350 1237 l 2,18,19
 353 1254 353 1254 345 1265 c 128,-1,20
 337 1276 337 1276 311 1278 c 2,21,-1
 197 1288 l 1,22,-1
 197 1374 l 1,23,-1
 592 1374 l 1,24,-1
 592 1321 l 1,25,-1
 1053 344 l 1,26,-1
 1227 1237 l 2,27,28
 1230 1254 1230 1254 1222 1265 c 128,-1,29
 1214 1276 1214 1276 1188 1278 c 2,30,-1
 1071 1288 l 1,31,-1
 1071 1374 l 1,32,-1
 1546 1374 l 1,33,-1
 1546 1288 l 1,34,-1
 1430 1278 l 2,0,1
EndSplineSet
EndChar

StartChar: O
Encoding: 79 79 50
Width: 1454
Flags: W
LayerCount: 2
Fore
SplineSet
1182 854 m 0,0,1
 1182 956 1182 956 1156.5 1039 c 128,-1,2
 1131 1122 1131 1122 1085.5 1181.5 c 128,-1,3
 1040 1241 1040 1241 977.5 1273 c 128,-1,4
 915 1305 915 1305 842 1305 c 0,5,6
 767 1305 767 1305 700 1272 c 128,-1,7
 633 1239 633 1239 576 1182 c 128,-1,8
 519 1125 519 1125 473.5 1048.5 c 128,-1,9
 428 972 428 972 396 885 c 128,-1,10
 364 798 364 798 347 704.5 c 128,-1,11
 330 611 330 611 330 520 c 0,12,13
 330 416 330 416 356.5 333.5 c 128,-1,14
 383 251 383 251 428.5 193.5 c 128,-1,15
 474 136 474 136 536 105 c 128,-1,16
 598 74 598 74 670 74 c 0,17,18
 745 74 745 74 812 107.5 c 128,-1,19
 879 141 879 141 936 199 c 128,-1,20
 993 257 993 257 1038.5 333.5 c 128,-1,21
 1084 410 1084 410 1116 497 c 128,-1,22
 1148 584 1148 584 1165 675.5 c 128,-1,23
 1182 767 1182 767 1182 854 c 0,0,1
1415 854 m 0,24,25
 1415 746 1415 746 1392 638.5 c 128,-1,26
 1369 531 1369 531 1325 432 c 128,-1,27
 1281 333 1281 333 1216 248.5 c 128,-1,28
 1151 164 1151 164 1066.5 101 c 128,-1,29
 982 38 982 38 878.5 2.5 c 128,-1,30
 775 -33 775 -33 655 -33 c 0,31,32
 532 -33 532 -33 430 7.5 c 128,-1,33
 328 48 328 48 254 123 c 128,-1,34
 180 198 180 198 139 303 c 128,-1,35
 98 408 98 408 98 537 c 0,36,37
 98 647 98 647 123 754 c 128,-1,38
 148 861 148 861 195.5 958 c 128,-1,39
 243 1055 243 1055 310.5 1137 c 128,-1,40
 378 1219 378 1219 462.5 1279 c 128,-1,41
 547 1339 547 1339 647.5 1373 c 128,-1,42
 748 1407 748 1407 860 1407 c 0,43,44
 987 1407 987 1407 1090 1363.5 c 128,-1,45
 1193 1320 1193 1320 1265 1245 c 128,-1,46
 1337 1170 1337 1170 1376 1069 c 128,-1,47
 1415 968 1415 968 1415 854 c 0,24,25
EndSplineSet
EndChar

StartChar: P
Encoding: 80 80 51
Width: 1159
Flags: W
LayerCount: 2
Fore
SplineSet
956 1012 m 0,0,1
 956 1071 956 1071 939.5 1120 c 128,-1,2
 923 1169 923 1169 885.5 1204 c 128,-1,3
 848 1239 848 1239 787.5 1258.5 c 128,-1,4
 727 1278 727 1278 639 1278 c 0,5,6
 620 1278 620 1278 598.5 1277 c 128,-1,7
 577 1276 577 1276 561 1274 c 1,8,-1
 434 623 l 1,9,10
 479 619 479 619 524.5 620.5 c 128,-1,11
 570 622 570 622 614 629.5 c 128,-1,12
 658 637 658 637 699 651.5 c 128,-1,13
 740 666 740 666 776 688 c 0,14,15
 815 711 815 711 848 742 c 128,-1,16
 881 773 881 773 905 813 c 128,-1,17
 929 853 929 853 942.5 902.5 c 128,-1,18
 956 952 956 952 956 1012 c 0,0,1
1169 1047 m 0,19,20
 1169 923 1169 923 1122 824 c 128,-1,21
 1075 725 1075 725 991.5 655.5 c 128,-1,22
 908 586 908 586 793.5 549 c 128,-1,23
 679 512 679 512 545 512 c 0,24,25
 529 512 529 512 507 512.5 c 128,-1,26
 485 513 485 513 465 514 c 0,27,28
 441 515 441 515 416 516 c 1,29,-1
 340 135 l 2,30,31
 337 120 337 120 345 109 c 128,-1,32
 353 98 353 98 381 96 c 2,33,-1
 498 86 l 1,34,-1
 498 0 l 1,35,-1
 -35 0 l 1,36,-1
 -35 86 l 1,37,-1
 84 96 l 2,38,39
 124 99 124 99 133 135 c 1,40,-1
 348 1237 l 2,41,42
 351 1254 351 1254 343 1265 c 128,-1,43
 335 1276 335 1276 307 1278 c 2,44,-1
 193 1288 l 1,45,-1
 193 1374 l 1,46,-1
 702 1374 l 2,47,48
 828 1374 828 1374 916.5 1349.5 c 128,-1,49
 1005 1325 1005 1325 1061.5 1281.5 c 128,-1,50
 1118 1238 1118 1238 1143.5 1178 c 128,-1,51
 1169 1118 1169 1118 1169 1047 c 0,19,20
EndSplineSet
EndChar

StartChar: Q
Encoding: 81 81 52
Width: 1454
Flags: W
LayerCount: 2
Fore
SplineSet
1182 856 m 0,0,1
 1182 953 1182 953 1158 1035 c 128,-1,2
 1134 1117 1134 1117 1090.5 1176.5 c 128,-1,3
 1047 1236 1047 1236 986.5 1269.5 c 128,-1,4
 926 1303 926 1303 852 1303 c 0,5,6
 776 1303 776 1303 707 1271.5 c 128,-1,7
 638 1240 638 1240 579.5 1185 c 128,-1,8
 521 1130 521 1130 473.5 1055 c 128,-1,9
 426 980 426 980 393 893 c 128,-1,10
 360 806 360 806 342 711 c 128,-1,11
 324 616 324 616 324 520 c 256,12,13
 324 424 324 424 348 342.5 c 128,-1,14
 372 261 372 261 416.5 202 c 128,-1,15
 461 143 461 143 524.5 109.5 c 128,-1,16
 588 76 588 76 668 76 c 0,17,18
 741 76 741 76 807.5 109 c 128,-1,19
 874 142 874 142 931.5 199 c 128,-1,20
 989 256 989 256 1035 332.5 c 128,-1,21
 1081 409 1081 409 1114 495.5 c 128,-1,22
 1147 582 1147 582 1164.5 674.5 c 128,-1,23
 1182 767 1182 767 1182 856 c 0,0,1
1479 -227 m 1,24,25
 1467 -233 1467 -233 1432 -250 c 128,-1,26
 1397 -267 1397 -267 1348 -284 c 128,-1,27
 1299 -301 1299 -301 1243 -314.5 c 128,-1,28
 1187 -328 1187 -328 1133 -328 c 0,29,30
 1054 -328 1054 -328 995 -305 c 128,-1,31
 936 -282 936 -282 891.5 -241 c 128,-1,32
 847 -200 847 -200 813.5 -145 c 128,-1,33
 780 -90 780 -90 752 -25 c 1,34,35
 729 -27 729 -27 701.5 -30 c 128,-1,36
 674 -33 674 -33 649 -33 c 0,37,38
 536 -33 536 -33 435 4.5 c 128,-1,39
 334 42 334 42 258.5 114 c 128,-1,40
 183 186 183 186 138.5 291 c 128,-1,41
 94 396 94 396 94 530 c 0,42,43
 94 636 94 636 119.5 742 c 128,-1,44
 145 848 145 848 192.5 945.5 c 128,-1,45
 240 1043 240 1043 308 1127.5 c 128,-1,46
 376 1212 376 1212 461 1274 c 128,-1,47
 546 1336 546 1336 647.5 1371.5 c 128,-1,48
 749 1407 749 1407 862 1407 c 0,49,50
 987 1407 987 1407 1089 1365 c 128,-1,51
 1191 1323 1191 1323 1263 1249 c 128,-1,52
 1335 1175 1335 1175 1374 1074 c 128,-1,53
 1413 973 1413 973 1413 856 c 0,54,55
 1413 801 1413 801 1406 734 c 128,-1,56
 1399 667 1399 667 1381 594.5 c 128,-1,57
 1363 522 1363 522 1331 447 c 128,-1,58
 1299 372 1299 372 1249 299.5 c 128,-1,59
 1199 227 1199 227 1129 161 c 128,-1,60
 1059 95 1059 95 965 41 c 1,61,62
 996 -16 996 -16 1024 -62 c 128,-1,63
 1052 -108 1052 -108 1084 -141 c 128,-1,64
 1116 -174 1116 -174 1154 -191.5 c 128,-1,65
 1192 -209 1192 -209 1243 -209 c 0,66,67
 1273 -209 1273 -209 1304.5 -202.5 c 128,-1,68
 1336 -196 1336 -196 1367 -186 c 128,-1,69
 1398 -176 1398 -176 1426.5 -164 c 128,-1,70
 1455 -152 1455 -152 1479 -141 c 1,71,-1
 1479 -227 l 1,24,25
EndSplineSet
EndChar

StartChar: R
Encoding: 82 82 53
Width: 1313
Flags: W
LayerCount: 2
Fore
SplineSet
958 1042 m 0,0,1
 958 1117 958 1117 925.5 1163 c 128,-1,2
 893 1209 893 1209 842 1234 c 128,-1,3
 791 1259 791 1259 729 1266.5 c 128,-1,4
 667 1274 667 1274 608 1272 c 0,5,6
 600 1272 600 1272 586 1271 c 128,-1,7
 572 1270 572 1270 563 1270 c 1,8,-1
 459 711 l 1,9,-1
 504 711 l 2,10,11
 587 711 587 711 668 726 c 128,-1,12
 749 741 749 741 813.5 779 c 128,-1,13
 878 817 878 817 918 880.5 c 128,-1,14
 958 944 958 944 958 1042 c 0,0,1
1260 0 m 1,15,16
 1218 -19 1218 -19 1181.5 -26 c 128,-1,17
 1145 -33 1145 -33 1110 -33 c 0,18,19
 1017 -33 1017 -33 960.5 -3 c 128,-1,20
 904 27 904 27 871.5 75 c 128,-1,21
 839 123 839 123 823.5 181.5 c 128,-1,22
 808 240 808 240 797 297 c 0,23,24
 785 354 785 354 770.5 409.5 c 128,-1,25
 756 465 756 465 729.5 508.5 c 128,-1,26
 703 552 703 552 659 579 c 128,-1,27
 615 606 615 606 543 606 c 0,28,29
 529 606 529 606 511 605.5 c 128,-1,30
 493 605 493 605 476 605 c 0,31,32
 457 604 457 604 436 604 c 1,33,-1
 348 135 l 2,34,35
 345 120 345 120 353 109 c 128,-1,36
 361 98 361 98 387 96 c 2,37,-1
 506 86 l 1,38,-1
 506 0 l 1,39,-1
 -27 0 l 1,40,-1
 -27 86 l 1,41,-1
 90 96 l 2,42,43
 132 99 132 99 141 135 c 1,44,-1
 350 1237 l 2,45,46
 353 1254 353 1254 345 1265 c 128,-1,47
 337 1276 337 1276 311 1278 c 2,48,-1
 197 1288 l 1,49,-1
 197 1374 l 1,50,-1
 745 1374 l 2,51,52
 830 1374 830 1374 910.5 1360 c 128,-1,53
 991 1346 991 1346 1053 1311 c 128,-1,54
 1115 1276 1115 1276 1152.5 1217.5 c 128,-1,55
 1190 1159 1190 1159 1190 1071 c 0,56,57
 1190 988 1190 988 1157 921 c 128,-1,58
 1124 854 1124 854 1067 801.5 c 128,-1,59
 1010 749 1010 749 934 711 c 128,-1,60
 858 673 858 673 772 649 c 1,61,62
 835 622 835 622 872.5 588.5 c 128,-1,63
 910 555 910 555 933 514 c 128,-1,64
 956 473 956 473 969 423 c 128,-1,65
 982 373 982 373 997 315 c 0,66,67
 1012 258 1012 258 1030 214.5 c 128,-1,68
 1048 171 1048 171 1077.5 142 c 128,-1,69
 1107 113 1107 113 1150.5 98.5 c 128,-1,70
 1194 84 1194 84 1260 84 c 1,71,-1
 1260 0 l 1,15,16
EndSplineSet
EndChar

StartChar: S
Encoding: 83 83 54
Width: 1067
Flags: W
LayerCount: 2
Fore
SplineSet
985 1020 m 1,0,-1
 864 1020 l 1,1,-1
 872 1227 l 2,2,3
 872 1237 872 1237 857 1250.5 c 128,-1,4
 842 1264 842 1264 816.5 1276.5 c 128,-1,5
 791 1289 791 1289 758 1298 c 128,-1,6
 725 1307 725 1307 688 1307 c 0,7,8
 629 1307 629 1307 573.5 1286 c 128,-1,9
 518 1265 518 1265 475 1227.5 c 128,-1,10
 432 1190 432 1190 406.5 1138.5 c 128,-1,11
 381 1087 381 1087 381 1026 c 0,12,13
 381 971 381 971 411 929.5 c 128,-1,14
 441 888 441 888 485 856 c 128,-1,15
 529 824 529 824 579 800 c 128,-1,16
 629 776 629 776 670 756 c 1,17,18
 724 728 724 728 775.5 697 c 128,-1,19
 827 666 827 666 867 627 c 128,-1,20
 907 588 907 588 931.5 537.5 c 128,-1,21
 956 487 956 487 956 420 c 0,22,23
 956 346 956 346 925.5 266 c 128,-1,24
 895 186 895 186 827 119.5 c 128,-1,25
 759 53 759 53 650.5 10 c 128,-1,26
 542 -33 542 -33 385 -33 c 0,27,28
 306 -33 306 -33 238.5 -18.5 c 128,-1,29
 171 -4 171 -4 119.5 14.5 c 128,-1,30
 68 33 68 33 34.5 50.5 c 128,-1,31
 1 68 1 68 -10 74 c 1,32,-1
 59 403 l 1,33,-1
 199 403 l 1,34,-1
 176 168 l 2,35,36
 175 156 175 156 190 144 c 128,-1,37
 205 132 205 132 229 121.5 c 128,-1,38
 253 111 253 111 282 102.5 c 128,-1,39
 311 94 311 94 337.5 87.5 c 128,-1,40
 364 81 364 81 384.5 77.5 c 128,-1,41
 405 74 405 74 412 74 c 0,42,43
 478 74 478 74 538 94.5 c 128,-1,44
 598 115 598 115 643.5 153.5 c 128,-1,45
 689 192 689 192 716 247.5 c 128,-1,46
 743 303 743 303 743 373 c 0,47,48
 743 425 743 425 712.5 465.5 c 128,-1,49
 682 506 682 506 637.5 538 c 128,-1,50
 593 570 593 570 543 594.5 c 128,-1,51
 493 619 493 619 455 639 c 0,52,53
 401 667 401 667 350 697.5 c 128,-1,54
 299 728 299 728 259.5 765.5 c 128,-1,55
 220 803 220 803 196 850 c 128,-1,56
 172 897 172 897 172 958 c 0,57,58
 172 1060 172 1060 212 1143 c 128,-1,59
 252 1226 252 1226 323.5 1284.5 c 128,-1,60
 395 1343 395 1343 492.5 1375 c 128,-1,61
 590 1407 590 1407 705 1407 c 0,62,63
 774 1407 774 1407 833 1397.5 c 128,-1,64
 892 1388 892 1388 937 1375 c 128,-1,65
 982 1362 982 1362 1011.5 1350 c 128,-1,66
 1041 1338 1041 1338 1051 1333 c 1,67,-1
 985 1020 l 1,0,-1
EndSplineSet
EndChar

StartChar: T
Encoding: 84 84 55
Width: 1200
Flags: W
LayerCount: 2
Fore
SplineSet
1266 1061 m 1,0,-1
 1137 1061 l 1,1,-1
 1145 1241 l 1,2,3
 1148 1282 1148 1282 1106 1282 c 2,4,-1
 842 1282 l 1,5,-1
 629 135 l 2,6,7
 626 120 626 120 634 109 c 128,-1,8
 642 98 642 98 670 96 c 2,9,-1
 786 86 l 1,10,-1
 786 0 l 1,11,-1
 254 0 l 1,12,-1
 254 86 l 1,13,-1
 373 96 l 2,14,15
 391 98 391 98 405 107.5 c 128,-1,16
 419 117 419 117 422 135 c 2,17,-1
 635 1282 l 1,18,-1
 379 1282 l 2,19,20
 340 1282 340 1282 328 1241 c 1,21,-1
 264 1061 l 1,22,-1
 135 1061 l 1,23,-1
 195 1374 l 1,24,-1
 1329 1374 l 1,25,-1
 1266 1061 l 1,0,-1
EndSplineSet
EndChar

StartChar: U
Encoding: 85 85 56
Width: 1448
Flags: W
LayerCount: 2
Fore
SplineSet
1415 1278 m 2,0,1
 1397 1276 1397 1276 1383 1266.5 c 128,-1,2
 1369 1257 1369 1257 1366 1237 c 2,3,-1
 1208 438 l 2,4,5
 1187 327 1187 327 1141 239.5 c 128,-1,6
 1095 152 1095 152 1023.5 91.5 c 128,-1,7
 952 31 952 31 855.5 -1 c 128,-1,8
 759 -33 759 -33 637 -33 c 0,9,10
 542 -33 542 -33 460.5 -13.5 c 128,-1,11
 379 6 379 6 318 49 c 128,-1,12
 257 92 257 92 222.5 160 c 128,-1,13
 188 228 188 228 188 326 c 0,14,15
 188 357 188 357 194.5 413 c 128,-1,16
 201 469 201 469 215 541 c 2,17,-1
 358 1237 l 2,18,19
 361 1254 361 1254 353 1265 c 128,-1,20
 345 1276 345 1276 317 1278 c 2,21,-1
 203 1288 l 1,22,-1
 203 1374 l 1,23,-1
 735 1374 l 1,24,-1
 735 1288 l 1,25,-1
 614 1278 l 2,26,27
 596 1276 596 1276 582 1266.5 c 128,-1,28
 568 1257 568 1257 565 1237 c 1,29,-1
 424 541 l 2,30,31
 412 481 412 481 406.5 433.5 c 128,-1,32
 401 386 401 386 401 358 c 0,33,34
 401 293 401 293 421.5 245 c 128,-1,35
 442 197 442 197 479.5 164.5 c 128,-1,36
 517 132 517 132 570.5 116 c 128,-1,37
 624 100 624 100 690 100 c 0,38,39
 790 100 790 100 857.5 133.5 c 128,-1,40
 925 167 925 167 970 223 c 128,-1,41
 1015 279 1015 279 1041 353.5 c 128,-1,42
 1067 428 1067 428 1083 510 c 2,43,-1
 1227 1237 l 2,44,45
 1230 1254 1230 1254 1222 1265 c 128,-1,46
 1214 1276 1214 1276 1186 1278 c 2,47,-1
 1071 1288 l 1,48,-1
 1071 1374 l 1,49,-1
 1534 1374 l 1,50,-1
 1534 1288 l 1,51,-1
 1415 1278 l 2,0,1
EndSplineSet
EndChar

StartChar: V
Encoding: 86 86 57
Width: 1317
Flags: W
LayerCount: 2
Fore
SplineSet
1358 1276 m 1,0,-1
 651 -33 l 1,1,-1
 496 -33 l 1,2,-1
 297 1243 l 2,3,4
 294 1263 294 1263 281 1272.5 c 128,-1,5
 268 1282 268 1282 248 1284 c 2,6,-1
 170 1288 l 1,7,-1
 170 1374 l 1,8,-1
 635 1374 l 1,9,-1
 635 1288 l 1,10,-1
 547 1284 l 2,11,12
 524 1282 524 1282 513.5 1273.5 c 128,-1,13
 503 1265 503 1265 506 1243 c 2,14,-1
 659 252 l 1,15,-1
 1180 1243 l 2,16,17
 1188 1259 1188 1259 1183 1270.5 c 128,-1,18
 1178 1282 1178 1282 1149 1284 c 2,19,-1
 1049 1288 l 1,20,-1
 1049 1374 l 1,21,-1
 1466 1374 l 1,22,-1
 1466 1288 l 1,23,-1
 1358 1276 l 1,0,-1
EndSplineSet
EndChar

StartChar: W
Encoding: 87 87 58
Width: 1898
Flags: W
LayerCount: 2
Fore
SplineSet
1927 1276 m 1,0,-1
 1313 -33 l 1,1,-1
 1182 -33 l 1,2,-1
 1063 1061 l 1,3,-1
 551 -33 l 1,4,-1
 408 -33 l 1,5,-1
 305 1243 l 2,6,7
 303 1263 303 1263 292.5 1272.5 c 128,-1,8
 282 1282 282 1282 256 1284 c 2,9,-1
 170 1288 l 1,10,-1
 170 1374 l 1,11,-1
 643 1374 l 1,12,-1
 643 1288 l 1,13,-1
 553 1284 l 2,14,15
 530 1282 530 1282 521 1272 c 128,-1,16
 512 1262 512 1262 512 1243 c 1,17,-1
 584 354 l 1,18,-1
 1065 1374 l 1,19,-1
 1231 1374 l 1,20,-1
 1335 340 l 1,21,-1
 1751 1243 l 2,22,23
 1769 1281 1769 1281 1712 1284 c 2,24,-1
 1620 1288 l 1,25,-1
 1620 1374 l 1,26,-1
 2048 1374 l 1,27,-1
 2048 1288 l 1,28,-1
 1927 1276 l 1,0,-1
EndSplineSet
EndChar

StartChar: X
Encoding: 88 88 59
Width: 1296
Flags: W
LayerCount: 2
Fore
SplineSet
1266 1280 m 2,0,1
 1250 1278 1250 1278 1236.5 1267.5 c 128,-1,2
 1223 1257 1223 1257 1217 1249 c 2,3,-1
 766 737 l 1,4,-1
 1034 125 l 1,5,6
 1044 106 1044 106 1054 101 c 128,-1,7
 1064 96 1064 96 1075 94 c 1,8,-1
 1186 86 l 1,9,-1
 1186 0 l 1,10,-1
 657 0 l 1,11,-1
 657 86 l 1,12,-1
 788 94 l 2,13,14
 805 96 805 96 815 108 c 128,-1,15
 825 120 825 120 817 135 c 1,16,-1
 633 565 l 1,17,-1
 246 135 l 1,18,19
 233 123 233 123 235.5 109.5 c 128,-1,20
 238 96 238 96 264 94 c 2,21,-1
 387 86 l 1,22,-1
 387 0 l 1,23,-1
 -90 0 l 1,24,-1
 -90 86 l 1,25,-1
 8 94 l 2,26,27
 25 96 25 96 38 106.5 c 128,-1,28
 51 117 51 117 57 125 c 2,29,-1
 567 696 l 1,30,-1
 322 1249 l 2,31,32
 314 1268 314 1268 304 1273 c 128,-1,33
 294 1278 294 1278 283 1280 c 1,34,-1
 170 1288 l 1,35,-1
 170 1374 l 1,36,-1
 702 1374 l 1,37,-1
 702 1288 l 1,38,-1
 569 1280 l 2,39,40
 552 1278 552 1278 542 1266.5 c 128,-1,41
 532 1255 532 1255 539 1239 c 2,42,-1
 707 856 l 1,43,-1
 1042 1239 l 2,44,45
 1053 1251 1053 1251 1051.5 1264.5 c 128,-1,46
 1050 1278 1050 1278 1024 1280 c 2,47,-1
 926 1288 l 1,48,-1
 926 1374 l 1,49,-1
 1389 1374 l 1,50,-1
 1389 1288 l 1,51,-1
 1266 1280 l 2,0,1
EndSplineSet
EndChar

StartChar: Y
Encoding: 89 89 60
Width: 1309
Flags: W
LayerCount: 2
Fore
SplineSet
1341 1280 m 2,0,1
 1326 1278 1326 1278 1311 1267.5 c 128,-1,2
 1296 1257 1296 1257 1288 1249 c 1,3,-1
 768 575 l 1,4,-1
 682 135 l 1,5,6
 677 120 677 120 686 109 c 128,-1,7
 695 98 695 98 721 96 c 2,8,-1
 836 86 l 1,9,-1
 836 0 l 1,10,-1
 303 0 l 1,11,-1
 303 86 l 1,12,-1
 422 96 l 2,13,14
 440 98 440 98 453 107.5 c 128,-1,15
 466 117 466 117 471 135 c 1,16,-1
 555 557 l 1,17,-1
 326 1249 l 2,18,19
 319 1269 319 1269 308.5 1273.5 c 128,-1,20
 298 1278 298 1278 287 1280 c 1,21,-1
 172 1288 l 1,22,-1
 172 1374 l 1,23,-1
 702 1374 l 1,24,-1
 702 1288 l 1,25,-1
 571 1280 l 2,26,27
 554 1278 554 1278 545.5 1267 c 128,-1,28
 537 1256 537 1256 543 1239 c 2,29,-1
 711 707 l 1,30,-1
 1106 1239 l 2,31,32
 1110 1246 1110 1246 1113 1253 c 128,-1,33
 1116 1260 1116 1260 1115 1265.5 c 128,-1,34
 1114 1271 1114 1271 1108.5 1275 c 128,-1,35
 1103 1279 1103 1279 1090 1280 c 2,36,-1
 963 1288 l 1,37,-1
 963 1374 l 1,38,-1
 1456 1374 l 1,39,-1
 1456 1288 l 1,40,-1
 1341 1280 l 2,0,1
EndSplineSet
EndChar

StartChar: Z
Encoding: 90 90 61
Width: 1153
Flags: W
LayerCount: 2
Fore
SplineSet
1200 1282 m 1,0,-1
 236 109 l 1,1,-1
 793 109 l 2,2,3
 833 109 833 109 844 150 c 2,4,-1
 905 379 l 1,5,-1
 1044 379 l 1,6,-1
 973 0 l 1,7,-1
 -41 0 l 1,8,-1
 -23 90 l 1,9,-1
 938 1268 l 1,10,-1
 459 1268 l 2,11,12
 437 1268 437 1268 426.5 1258.5 c 128,-1,13
 416 1249 416 1249 410 1229 c 2,14,-1
 354 1049 l 1,15,-1
 213 1049 l 1,16,-1
 279 1374 l 1,17,-1
 1219 1374 l 1,18,-1
 1200 1282 l 1,0,-1
EndSplineSet
EndChar

StartChar: bracketleft
Encoding: 91 91 62
Width: 862
Flags: W
LayerCount: 2
Fore
SplineSet
631 1354 m 1,0,-1
 326 -174 l 1,1,-1
 639 -174 l 1,2,-1
 639 -270 l 1,3,-1
 111 -270 l 1,4,-1
 455 1450 l 1,5,-1
 965 1450 l 1,6,-1
 965 1354 l 1,7,-1
 631 1354 l 1,0,-1
EndSplineSet
EndChar

StartChar: backslash
Encoding: 92 92 63
Width: 1001
Flags: W
LayerCount: 2
Fore
SplineSet
870 -190 m 1,0,-1
 0 1374 l 1,1,-1
 131 1374 l 1,2,-1
 1001 -190 l 1,3,-1
 870 -190 l 1,0,-1
EndSplineSet
EndChar

StartChar: bracketright
Encoding: 93 93 64
Width: 862
Flags: W
LayerCount: 2
Fore
SplineSet
426 -270 m 1,0,-1
 -84 -270 l 1,1,-1
 -84 -172 l 1,2,-1
 252 -172 l 1,3,-1
 555 1356 l 1,4,-1
 242 1356 l 1,5,-1
 242 1450 l 1,6,-1
 770 1450 l 1,7,-1
 426 -270 l 1,0,-1
EndSplineSet
EndChar

StartChar: asciicircum
Encoding: 94 94 65
Width: 702
Flags: W
LayerCount: 2
Fore
SplineSet
676 1128 m 1,0,-1
 508 1317 l 1,1,-1
 262 1128 l 1,2,-1
 119 1128 l 1,3,-1
 457 1475 l 1,4,-1
 618 1475 l 1,5,-1
 819 1128 l 1,6,-1
 676 1128 l 1,0,-1
EndSplineSet
EndChar

StartChar: underscore
Encoding: 95 95 66
Width: 622
Flags: W
LayerCount: 2
Fore
SplineSet
462 -315 m 1,0,-1
 -160 -315 l 1,1,-1
 -131 -180 l 1,2,-1
 488 -180 l 1,3,-1
 462 -315 l 1,0,-1
EndSplineSet
EndChar

StartChar: grave
Encoding: 96 96 67
Width: 805
Flags: W
LayerCount: 2
Fore
SplineSet
526 1128 m 1,0,-1
 229 1323 l 2,1,2
 208 1337 208 1337 195 1357.5 c 128,-1,3
 182 1378 182 1378 182 1409 c 0,4,5
 182 1424 182 1424 186.5 1440 c 128,-1,6
 191 1456 191 1456 201.5 1469 c 128,-1,7
 212 1482 212 1482 229.5 1490.5 c 128,-1,8
 247 1499 247 1499 274 1499 c 0,9,10
 296 1499 296 1499 311.5 1495 c 128,-1,11
 327 1491 327 1491 339 1484.5 c 128,-1,12
 351 1478 351 1478 360.5 1468.5 c 128,-1,13
 370 1459 370 1459 379 1448 c 2,14,-1
 653 1128 l 1,15,-1
 526 1128 l 1,0,-1
EndSplineSet
EndChar

StartChar: a
Encoding: 97 97 68
Width: 1067
Flags: W
LayerCount: 2
Fore
SplineSet
760 803 m 2,0,1
 761 808 761 808 752.5 826 c 128,-1,2
 744 844 744 844 732 863.5 c 128,-1,3
 720 883 720 883 706.5 898 c 128,-1,4
 693 913 693 913 684 913 c 0,5,6
 606 913 606 913 544.5 887.5 c 128,-1,7
 483 862 483 862 437 818.5 c 128,-1,8
 391 775 391 775 358.5 718 c 128,-1,9
 326 661 326 661 306 599 c 128,-1,10
 286 537 286 537 277 474 c 128,-1,11
 268 411 268 411 268 354 c 0,12,13
 268 311 268 311 275 268 c 128,-1,14
 282 225 282 225 299.5 190 c 128,-1,15
 317 155 317 155 347.5 133 c 128,-1,16
 378 111 378 111 426 111 c 0,17,18
 462 111 462 111 498 127 c 128,-1,19
 534 143 534 143 565 164 c 128,-1,20
 596 185 596 185 619 206 c 128,-1,21
 642 227 642 227 653 238 c 1,22,-1
 760 803 l 2,0,1
1061 55 m 1,23,24
 1049 50 1049 50 1017 36.5 c 128,-1,25
 985 23 985 23 945.5 9.5 c 128,-1,26
 906 -4 906 -4 865.5 -14.5 c 128,-1,27
 825 -25 825 -25 795 -25 c 0,28,29
 758 -25 758 -25 732.5 -16 c 128,-1,30
 707 -7 707 -7 690.5 11 c 128,-1,31
 674 29 674 29 665 55 c 128,-1,32
 656 81 656 81 653 115 c 1,33,34
 630 93 630 93 599 68.5 c 128,-1,35
 568 44 568 44 530.5 23 c 128,-1,36
 493 2 493 2 450.5 -11.5 c 128,-1,37
 408 -25 408 -25 362 -25 c 0,38,39
 302 -25 302 -25 256.5 -8 c 128,-1,40
 211 9 211 9 178 37.5 c 128,-1,41
 145 66 145 66 123.5 103.5 c 128,-1,42
 102 141 102 141 89 181.5 c 128,-1,43
 76 222 76 222 71 263.5 c 128,-1,44
 66 305 66 305 66 342 c 0,45,46
 66 421 66 421 83 501.5 c 128,-1,47
 100 582 100 582 133.5 656.5 c 128,-1,48
 167 731 167 731 217 796 c 128,-1,49
 267 861 267 861 332.5 909 c 128,-1,50
 398 957 398 957 478.5 984.5 c 128,-1,51
 559 1012 559 1012 655 1012 c 0,52,53
 683 1012 683 1012 710.5 1005.5 c 128,-1,54
 738 999 738 999 762 988.5 c 128,-1,55
 786 978 786 978 806 965 c 128,-1,56
 826 952 826 952 840 938 c 1,57,-1
 870 987 l 1,58,-1
 1010 987 l 1,59,60
 1005 975 1005 975 999 958.5 c 128,-1,61
 993 942 993 942 987 925 c 128,-1,62
 981 908 981 908 976.5 893 c 128,-1,63
 972 878 972 878 971 870 c 1,64,65
 964 843 964 843 951 788.5 c 128,-1,66
 938 734 938 734 923.5 666 c 128,-1,67
 909 598 909 598 893.5 523.5 c 128,-1,68
 878 449 878 449 866 382.5 c 128,-1,69
 854 316 854 316 846 264.5 c 128,-1,70
 838 213 838 213 838 190 c 0,71,72
 838 136 838 136 861 116 c 128,-1,73
 884 96 884 96 926 96 c 0,74,75
 936 96 936 96 955.5 100.5 c 128,-1,76
 975 105 975 105 996 111 c 128,-1,77
 1017 117 1017 117 1035 122 c 128,-1,78
 1053 127 1053 127 1061 129 c 1,79,-1
 1061 55 l 1,23,24
EndSplineSet
EndChar

StartChar: b
Encoding: 98 98 69
Width: 1008
Flags: W
LayerCount: 2
Fore
SplineSet
739 627 m 0,0,1
 739 696 739 696 723 743.5 c 128,-1,2
 707 791 707 791 684 821 c 128,-1,3
 661 851 661 851 635.5 864 c 128,-1,4
 610 877 610 877 592 877 c 0,5,6
 567 877 567 877 537 869 c 128,-1,7
 507 861 507 861 475.5 846.5 c 128,-1,8
 444 832 444 832 413 813 c 128,-1,9
 382 794 382 794 356 772 c 1,10,-1
 242 152 l 1,11,12
 252 137 252 137 269 123 c 128,-1,13
 286 109 286 109 308 97.5 c 128,-1,14
 330 86 330 86 356 79 c 128,-1,15
 382 72 382 72 410 72 c 0,16,17
 457 72 457 72 499.5 96 c 128,-1,18
 542 120 542 120 578.5 161 c 128,-1,19
 615 202 615 202 645 257 c 128,-1,20
 675 312 675 312 695.5 373.5 c 128,-1,21
 716 435 716 435 727.5 500.5 c 128,-1,22
 739 566 739 566 739 627 c 0,0,1
942 635 m 256,23,24
 942 571 942 571 928 497.5 c 128,-1,25
 914 424 914 424 884.5 351 c 128,-1,26
 855 278 855 278 809 210 c 128,-1,27
 763 142 763 142 699 90 c 128,-1,28
 635 38 635 38 552 6.5 c 128,-1,29
 469 -25 469 -25 365 -25 c 0,30,31
 278 -25 278 -25 193.5 -1 c 128,-1,32
 109 23 109 23 37 70 c 1,33,-1
 279 1368 l 1,34,-1
 96 1386 l 1,35,-1
 96 1448 l 1,36,-1
 416 1509 l 1,37,-1
 496 1509 l 1,38,-1
 379 889 l 1,39,40
 407 914 407 914 440.5 936.5 c 128,-1,41
 474 959 474 959 510 975.5 c 128,-1,42
 546 992 546 992 584 1002 c 128,-1,43
 622 1012 622 1012 659 1012 c 0,44,45
 738 1012 738 1012 792 977 c 128,-1,46
 846 942 846 942 879.5 887 c 128,-1,47
 913 832 913 832 927.5 765.5 c 128,-1,48
 942 699 942 699 942 635 c 256,23,24
EndSplineSet
EndChar

StartChar: c
Encoding: 99 99 70
Width: 891
Flags: W
LayerCount: 2
Fore
SplineSet
825 868 m 0,0,1
 825 848 825 848 819 827 c 128,-1,2
 813 806 813 806 795.5 788 c 128,-1,3
 778 770 778 770 747.5 755.5 c 128,-1,4
 717 741 717 741 668 735 c 1,5,-1
 551 893 l 1,6,7
 496 890 496 890 453 862.5 c 128,-1,8
 410 835 410 835 377.5 792 c 128,-1,9
 345 749 345 749 322.5 694.5 c 128,-1,10
 300 640 300 640 286 584 c 128,-1,11
 272 528 272 528 266 475 c 128,-1,12
 260 422 260 422 260 381 c 0,13,14
 260 331 260 331 269.5 282.5 c 128,-1,15
 279 234 279 234 300.5 195.5 c 128,-1,16
 322 157 322 157 356.5 133 c 128,-1,17
 391 109 391 109 442 109 c 0,18,19
 483 109 483 109 525 123.5 c 128,-1,20
 567 138 567 138 609.5 164 c 128,-1,21
 652 190 652 190 695 226 c 128,-1,22
 738 262 738 262 782 305 c 1,23,-1
 782 176 l 1,24,25
 750 145 750 145 709 110 c 128,-1,26
 668 75 668 75 618 45 c 128,-1,27
 568 15 568 15 508.5 -5 c 128,-1,28
 449 -25 449 -25 381 -25 c 0,29,30
 308 -25 308 -25 249.5 0.5 c 128,-1,31
 191 26 191 26 150.5 74.5 c 128,-1,32
 110 123 110 123 88 194 c 128,-1,33
 66 265 66 265 66 356 c 0,34,35
 66 448 66 448 87.5 532 c 128,-1,36
 109 616 109 616 147 689 c 128,-1,37
 185 762 185 762 237 821.5 c 128,-1,38
 289 881 289 881 350 923.5 c 128,-1,39
 411 966 411 966 479 989 c 128,-1,40
 547 1012 547 1012 616 1012 c 0,41,42
 671 1012 671 1012 711 998 c 128,-1,43
 751 984 751 984 776 963 c 128,-1,44
 801 942 801 942 813 916.5 c 128,-1,45
 825 891 825 891 825 868 c 0,0,1
EndSplineSet
EndChar

StartChar: d
Encoding: 100 100 71
Width: 1077
Flags: W
LayerCount: 2
Fore
SplineSet
850 176 m 2,0,1
 845 147 845 147 853 129 c 128,-1,2
 861 111 861 111 874.5 100.5 c 128,-1,3
 888 90 888 90 902.5 86 c 128,-1,4
 917 82 917 82 924 82 c 256,5,6
 931 82 931 82 952.5 87.5 c 128,-1,7
 974 93 974 93 998 100 c 128,-1,8
 1022 107 1022 107 1043 113 c 2,9,-1
 1071 121 l 1,10,-1
 1071 45 l 1,11,12
 1059 40 1059 40 1027 28.5 c 128,-1,13
 995 17 995 17 956 5 c 128,-1,14
 917 -7 917 -7 875.5 -16 c 128,-1,15
 834 -25 834 -25 803 -25 c 0,16,17
 756 -25 756 -25 726 -13.5 c 128,-1,18
 696 -2 696 -2 679 18.5 c 128,-1,19
 662 39 662 39 655.5 67 c 128,-1,20
 649 95 649 95 649 129 c 1,21,22
 622 100 622 100 589.5 72.5 c 128,-1,23
 557 45 557 45 520 23.5 c 128,-1,24
 483 2 483 2 442 -11.5 c 128,-1,25
 401 -25 401 -25 358 -25 c 0,26,27
 272 -25 272 -25 215.5 8 c 128,-1,28
 159 41 159 41 126 94 c 128,-1,29
 93 147 93 147 79.5 212 c 128,-1,30
 66 277 66 277 66 342 c 0,31,32
 66 423 66 423 83.5 504.5 c 128,-1,33
 101 586 101 586 135.5 660.5 c 128,-1,34
 170 735 170 735 220 799 c 128,-1,35
 270 863 270 863 334 910.5 c 128,-1,36
 398 958 398 958 476.5 985 c 128,-1,37
 555 1012 555 1012 645 1012 c 0,38,39
 668 1012 668 1012 690 1007.5 c 128,-1,40
 712 1003 712 1003 732 997 c 128,-1,41
 752 991 752 991 769 984 c 128,-1,42
 786 977 786 977 799 973 c 1,43,-1
 868 1368 l 1,44,-1
 682 1386 l 1,45,-1
 682 1448 l 1,46,-1
 999 1509 l 1,47,-1
 1083 1509 l 1,48,-1
 850 176 l 2,0,1
770 807 m 2,49,50
 771 811 771 811 758.5 829.5 c 128,-1,51
 746 848 746 848 726.5 868 c 128,-1,52
 707 888 707 888 684 904 c 128,-1,53
 661 920 661 920 641 920 c 0,54,55
 566 920 566 920 498 876.5 c 128,-1,56
 430 833 430 833 378 757 c 128,-1,57
 326 681 326 681 295 577.5 c 128,-1,58
 264 474 264 474 264 354 c 0,59,60
 264 288 264 288 277.5 240 c 128,-1,61
 291 192 291 192 313.5 161 c 128,-1,62
 336 130 336 130 365 115 c 128,-1,63
 394 100 394 100 424 100 c 0,64,65
 452 100 452 100 484.5 114 c 128,-1,66
 517 128 517 128 550 151.5 c 128,-1,67
 583 175 583 175 615.5 205.5 c 128,-1,68
 648 236 648 236 676 268 c 1,69,-1
 770 807 l 2,49,50
EndSplineSet
EndChar

StartChar: e
Encoding: 101 101 72
Width: 889
Flags: W
LayerCount: 2
Fore
SplineSet
672 807 m 0,0,1
 672 827 672 827 664 846.5 c 128,-1,2
 656 866 656 866 642 881 c 128,-1,3
 628 896 628 896 607 905.5 c 128,-1,4
 586 915 586 915 561 915 c 0,5,6
 527 915 527 915 496 897 c 128,-1,7
 465 879 465 879 436.5 849 c 128,-1,8
 408 819 408 819 383.5 780 c 128,-1,9
 359 741 359 741 339.5 698 c 128,-1,10
 320 655 320 655 305 611 c 128,-1,11
 290 567 290 567 281 528 c 1,12,13
 346 534 346 534 415.5 558 c 128,-1,14
 485 582 485 582 542 619.5 c 128,-1,15
 599 657 599 657 635.5 705 c 128,-1,16
 672 753 672 753 672 807 c 0,0,1
854 805 m 0,17,18
 854 749 854 749 828 702 c 128,-1,19
 802 655 802 655 757.5 617 c 128,-1,20
 713 579 713 579 654.5 549.5 c 128,-1,21
 596 520 596 520 531.5 499.5 c 128,-1,22
 467 479 467 479 400 466.5 c 128,-1,23
 333 454 333 454 272 451 c 1,24,25
 269 431 269 431 266.5 403 c 128,-1,26
 264 375 264 375 264 356 c 0,27,28
 264 300 264 300 277.5 253 c 128,-1,29
 291 206 291 206 316.5 171.5 c 128,-1,30
 342 137 342 137 378 117.5 c 128,-1,31
 414 98 414 98 459 98 c 0,32,33
 528 98 528 98 611 148 c 128,-1,34
 694 198 694 198 807 297 c 1,35,-1
 807 168 l 1,36,37
 778 140 778 140 736 106.5 c 128,-1,38
 694 73 694 73 640.5 43.5 c 128,-1,39
 587 14 587 14 524 -5.5 c 128,-1,40
 461 -25 461 -25 391 -25 c 0,41,42
 360 -25 360 -25 323.5 -19 c 128,-1,43
 287 -13 287 -13 251 2.5 c 128,-1,44
 215 18 215 18 181.5 45 c 128,-1,45
 148 72 148 72 122.5 113.5 c 128,-1,46
 97 155 97 155 81.5 212.5 c 128,-1,47
 66 270 66 270 66 348 c 0,48,49
 66 429 66 429 85.5 509.5 c 128,-1,50
 105 590 105 590 140.5 663.5 c 128,-1,51
 176 737 176 737 226 800.5 c 128,-1,52
 276 864 276 864 336 910.5 c 128,-1,53
 396 957 396 957 464.5 983.5 c 128,-1,54
 533 1010 533 1010 606 1010 c 0,55,56
 677 1010 677 1010 724.5 986.5 c 128,-1,57
 772 963 772 963 801 930 c 128,-1,58
 830 897 830 897 842 862 c 128,-1,59
 854 827 854 827 854 805 c 0,17,18
EndSplineSet
EndChar

StartChar: f
Encoding: 102 102 73
Width: 659
Flags: W
LayerCount: 2
Fore
SplineSet
903 1382 m 0,0,1
 903 1333 903 1333 867 1306.5 c 128,-1,2
 831 1280 831 1280 774 1272 c 1,3,-1
 614 1401 l 1,4,5
 592 1383 592 1383 573 1349 c 128,-1,6
 554 1315 554 1315 538 1272 c 128,-1,7
 522 1229 522 1229 508.5 1180.5 c 128,-1,8
 495 1132 495 1132 485 1086.5 c 128,-1,9
 475 1041 475 1041 468 1001.5 c 128,-1,10
 461 962 461 962 457 936 c 1,11,-1
 707 936 l 1,12,-1
 707 834 l 1,13,-1
 438 834 l 1,14,15
 435 811 435 811 427.5 754 c 128,-1,16
 420 697 420 697 409 622 c 128,-1,17
 398 547 398 547 385.5 461.5 c 128,-1,18
 373 376 373 376 360.5 296.5 c 128,-1,19
 348 217 348 217 336 150 c 128,-1,20
 324 83 324 83 315 45 c 0,21,22
 301 -12 301 -12 276.5 -72.5 c 128,-1,23
 252 -133 252 -133 218.5 -190 c 128,-1,24
 185 -247 185 -247 144.5 -298 c 128,-1,25
 104 -349 104 -349 58.5 -387 c 128,-1,26
 13 -425 13 -425 -36.5 -447 c 128,-1,27
 -86 -469 -86 -469 -137 -469 c 0,28,29
 -176 -469 -176 -469 -201.5 -456 c 128,-1,30
 -227 -443 -227 -443 -241 -425.5 c 128,-1,31
 -255 -408 -255 -408 -260.5 -391.5 c 128,-1,32
 -266 -375 -266 -375 -266 -367 c 0,33,34
 -266 -328 -266 -328 -251 -306.5 c 128,-1,35
 -236 -285 -236 -285 -213 -268 c 1,36,-1
 -4 -322 l 1,37,38
 23 -289 23 -289 45.5 -241 c 128,-1,39
 68 -193 68 -193 86.5 -135 c 128,-1,40
 105 -77 105 -77 120 -10.5 c 128,-1,41
 135 56 135 56 147 127 c 0,42,43
 173 272 173 272 195 450.5 c 128,-1,44
 217 629 217 629 248 831 c 1,45,-1
 90 815 l 1,46,-1
 92 895 l 1,47,-1
 270 954 l 1,48,49
 280 1008 280 1008 297.5 1070.5 c 128,-1,50
 315 1133 315 1133 341 1194.5 c 128,-1,51
 367 1256 367 1256 402.5 1313 c 128,-1,52
 438 1370 438 1370 484 1413.5 c 128,-1,53
 530 1457 530 1457 587.5 1483 c 128,-1,54
 645 1509 645 1509 715 1509 c 0,55,56
 767 1509 767 1509 803 1496 c 128,-1,57
 839 1483 839 1483 861 1463.5 c 128,-1,58
 883 1444 883 1444 893 1422 c 128,-1,59
 903 1400 903 1400 903 1382 c 0,0,1
EndSplineSet
EndChar

StartChar: g
Encoding: 103 103 74
Width: 901
Flags: W
LayerCount: 2
Fore
SplineSet
657 -180 m 0,0,1
 657 -143 657 -143 635 -112 c 128,-1,2
 613 -81 613 -81 553 -53 c 2,3,-1
 297 63 l 1,4,5
 248 51 248 51 215.5 30 c 128,-1,6
 183 9 183 9 164 -17.5 c 128,-1,7
 145 -44 145 -44 137 -74 c 128,-1,8
 129 -104 129 -104 129 -135 c 0,9,10
 129 -170 129 -170 144 -212 c 128,-1,11
 159 -254 159 -254 190.5 -290 c 128,-1,12
 222 -326 222 -326 270 -350.5 c 128,-1,13
 318 -375 318 -375 383 -375 c 0,14,15
 457 -375 457 -375 509 -354 c 128,-1,16
 561 -333 561 -333 594 -303 c 128,-1,17
 627 -273 627 -273 642 -239.5 c 128,-1,18
 657 -206 657 -206 657 -180 c 0,0,1
635 735 m 0,19,20
 635 773 635 773 628 807.5 c 128,-1,21
 621 842 621 842 606.5 868.5 c 128,-1,22
 592 895 592 895 569.5 910.5 c 128,-1,23
 547 926 547 926 516 926 c 0,24,25
 479 926 479 926 440 899 c 128,-1,26
 401 872 401 872 368.5 825 c 128,-1,27
 336 778 336 778 315.5 715 c 128,-1,28
 295 652 295 652 295 580 c 0,29,30
 295 543 295 543 303 511.5 c 128,-1,31
 311 480 311 480 326.5 457.5 c 128,-1,32
 342 435 342 435 363.5 422.5 c 128,-1,33
 385 410 385 410 412 410 c 0,34,35
 463 410 463 410 504.5 442.5 c 128,-1,36
 546 475 546 475 575 524 c 128,-1,37
 604 573 604 573 619.5 630 c 128,-1,38
 635 687 635 687 635 735 c 0,19,20
805 862 m 1,39,40
 814 839 814 839 822.5 803 c 128,-1,41
 831 767 831 767 831 725 c 0,42,43
 831 627 831 627 795 554 c 128,-1,44
 759 481 759 481 698 432 c 128,-1,45
 637 383 637 383 556.5 358.5 c 128,-1,46
 476 334 476 334 387 334 c 1,47,48
 380 319 380 319 375 301 c 128,-1,49
 370 283 370 283 367 265.5 c 128,-1,50
 364 248 364 248 363 233.5 c 128,-1,51
 362 219 362 219 365 211 c 1,52,-1
 639 86 l 2,53,54
 686 65 686 65 724.5 43.5 c 128,-1,55
 763 22 763 22 790.5 -3.5 c 128,-1,56
 818 -29 818 -29 833 -61.5 c 128,-1,57
 848 -94 848 -94 848 -139 c 0,58,59
 848 -183 848 -183 827.5 -224.5 c 128,-1,60
 807 -266 807 -266 771.5 -302.5 c 128,-1,61
 736 -339 736 -339 686.5 -370 c 128,-1,62
 637 -401 637 -401 579.5 -423 c 128,-1,63
 522 -445 522 -445 458.5 -457 c 128,-1,64
 395 -469 395 -469 330 -469 c 0,65,66
 229 -469 229 -469 155 -444 c 128,-1,67
 81 -419 81 -419 32.5 -378 c 128,-1,68
 -16 -337 -16 -337 -39.5 -283 c 128,-1,69
 -63 -229 -63 -229 -63 -170 c 0,70,71
 -63 -118 -63 -118 -41.5 -74 c 128,-1,72
 -20 -30 -20 -30 17 5 c 128,-1,73
 54 40 54 40 103.5 67 c 128,-1,74
 153 94 153 94 209 113 c 1,75,76
 204 137 204 137 208.5 169.5 c 128,-1,77
 213 202 213 202 223.5 235.5 c 128,-1,78
 234 269 234 269 251 300 c 128,-1,79
 268 331 268 331 289 352 c 1,80,81
 248 370 248 370 213 393.5 c 128,-1,82
 178 417 178 417 152.5 447.5 c 128,-1,83
 127 478 127 478 112.5 517.5 c 128,-1,84
 98 557 98 557 98 606 c 0,85,86
 98 681 98 681 126 753.5 c 128,-1,87
 154 826 154 826 207.5 883.5 c 128,-1,88
 261 941 261 941 337.5 976.5 c 128,-1,89
 414 1012 414 1012 512 1012 c 0,90,91
 549 1012 549 1012 581.5 1005.5 c 128,-1,92
 614 999 614 999 640.5 990.5 c 128,-1,93
 667 982 667 982 686.5 973 c 128,-1,94
 706 964 706 964 715 958 c 1,95,-1
 993 958 l 1,96,-1
 993 862 l 1,97,-1
 805 862 l 1,39,40
EndSplineSet
EndChar

StartChar: h
Encoding: 104 104 75
Width: 1073
Flags: W
LayerCount: 2
Fore
SplineSet
1069 51 m 1,0,1
 1056 46 1056 46 1023.5 34 c 128,-1,2
 991 22 991 22 951 8.5 c 128,-1,3
 911 -5 911 -5 869 -15 c 128,-1,4
 827 -25 827 -25 795 -25 c 0,5,6
 776 -25 776 -25 747 -19.5 c 128,-1,7
 718 -14 718 -14 692.5 0.5 c 128,-1,8
 667 15 667 15 652 41 c 128,-1,9
 637 67 637 67 645 109 c 2,10,-1
 770 713 l 2,11,12
 779 753 779 753 768.5 784 c 128,-1,13
 758 815 758 815 739 835.5 c 128,-1,14
 720 856 720 856 697 866.5 c 128,-1,15
 674 877 674 877 657 877 c 0,16,17
 633 877 633 877 598.5 865 c 128,-1,18
 564 853 564 853 525.5 832 c 128,-1,19
 487 811 487 811 448 781.5 c 128,-1,20
 409 752 409 752 375 717 c 1,21,-1
 225 0 l 1,22,-1
 37 0 l 1,23,-1
 319 1368 l 1,24,-1
 137 1386 l 1,25,-1
 137 1448 l 1,26,-1
 457 1509 l 1,27,-1
 539 1509 l 1,28,-1
 401 848 l 1,29,30
 432 882 432 882 474.5 912 c 128,-1,31
 517 942 517 942 565.5 964.5 c 128,-1,32
 614 987 614 987 666.5 999.5 c 128,-1,33
 719 1012 719 1012 770 1012 c 0,34,35
 826 1012 826 1012 869 994.5 c 128,-1,36
 912 977 912 977 938.5 942.5 c 128,-1,37
 965 908 965 908 972.5 856 c 128,-1,38
 980 804 980 804 965 735 c 2,39,-1
 852 184 l 2,40,41
 846 155 846 155 855 135.5 c 128,-1,42
 864 116 864 116 879.5 104.5 c 128,-1,43
 895 93 895 93 912 88.5 c 128,-1,44
 929 84 929 84 938 84 c 0,45,46
 966 84 966 84 999 98 c 128,-1,47
 1032 112 1032 112 1067 123 c 1,48,-1
 1069 51 l 1,0,1
EndSplineSet
EndChar

StartChar: i
Encoding: 105 105 76
Width: 545
Flags: W
LayerCount: 2
Fore
SplineSet
539 59 m 1,0,1
 527 54 527 54 495 40 c 128,-1,2
 463 26 463 26 420 11.5 c 128,-1,3
 377 -3 377 -3 329.5 -14 c 128,-1,4
 282 -25 282 -25 240 -25 c 0,5,6
 187 -25 187 -25 156 -7 c 128,-1,7
 125 11 125 11 110 40 c 128,-1,8
 95 69 95 69 93 105 c 128,-1,9
 91 141 91 141 98 176 c 2,10,-1
 229 870 l 1,11,-1
 53 889 l 1,12,-1
 53 948 l 1,13,-1
 362 1012 l 1,14,-1
 446 1012 l 1,15,-1
 291 193 l 2,16,17
 287 172 287 172 291.5 153 c 128,-1,18
 296 134 296 134 306.5 119.5 c 128,-1,19
 317 105 317 105 333.5 96.5 c 128,-1,20
 350 88 350 88 371 88 c 0,21,22
 389 88 389 88 413.5 94.5 c 128,-1,23
 438 101 438 101 462.5 109.5 c 128,-1,24
 487 118 487 118 508 126 c 128,-1,25
 529 134 529 134 539 137 c 1,26,-1
 539 59 l 1,0,1
530 1313 m 0,27,28
 530 1290 530 1290 521.5 1269.5 c 128,-1,29
 513 1249 513 1249 497.5 1233 c 128,-1,30
 482 1217 482 1217 459 1207.5 c 128,-1,31
 436 1198 436 1198 406 1198 c 0,32,33
 343 1198 343 1198 311 1231.5 c 128,-1,34
 279 1265 279 1265 279 1313 c 0,35,36
 279 1333 279 1333 287.5 1353 c 128,-1,37
 296 1373 296 1373 312.5 1389.5 c 128,-1,38
 329 1406 329 1406 353 1416.5 c 128,-1,39
 377 1427 377 1427 408 1427 c 0,40,41
 437 1427 437 1427 459.5 1417 c 128,-1,42
 482 1407 482 1407 498 1391 c 128,-1,43
 514 1375 514 1375 522 1354.5 c 128,-1,44
 530 1334 530 1334 530 1313 c 0,27,28
EndSplineSet
EndChar

StartChar: j
Encoding: 106 106 77
Width: 559
Flags: W
LayerCount: 2
Fore
SplineSet
328 164 m 2,0,1
 319 113 319 113 301 46 c 128,-1,2
 283 -21 283 -21 255.5 -91.5 c 128,-1,3
 228 -162 228 -162 190.5 -229.5 c 128,-1,4
 153 -297 153 -297 105 -350.5 c 128,-1,5
 57 -404 57 -404 -1 -436.5 c 128,-1,6
 -59 -469 -59 -469 -127 -469 c 0,7,8
 -192 -469 -192 -469 -228 -438 c 128,-1,9
 -264 -407 -264 -407 -264 -360 c 0,10,11
 -264 -341 -264 -341 -258 -326 c 128,-1,12
 -252 -311 -252 -311 -243 -300 c 128,-1,13
 -234 -289 -234 -289 -224.5 -281 c 128,-1,14
 -215 -273 -215 -273 -207 -268 c 1,15,-1
 -2 -324 l 1,16,17
 13 -308 13 -308 28.5 -275 c 128,-1,18
 44 -242 44 -242 59 -200.5 c 128,-1,19
 74 -159 74 -159 86 -113 c 128,-1,20
 98 -67 98 -67 106 -25 c 2,21,-1
 260 870 l 1,22,-1
 88 889 l 1,23,-1
 88 948 l 1,24,-1
 397 1012 l 1,25,-1
 473 1012 l 1,26,-1
 328 164 l 2,0,1
545 1313 m 0,27,28
 545 1295 545 1295 536 1274.5 c 128,-1,29
 527 1254 527 1254 510 1237 c 128,-1,30
 493 1220 493 1220 469.5 1209 c 128,-1,31
 446 1198 446 1198 418 1198 c 0,32,33
 362 1198 362 1198 326.5 1230.5 c 128,-1,34
 291 1263 291 1263 291 1313 c 0,35,36
 291 1336 291 1336 298.5 1357 c 128,-1,37
 306 1378 306 1378 322 1394.5 c 128,-1,38
 338 1411 338 1411 362 1420.5 c 128,-1,39
 386 1430 386 1430 418 1430 c 0,40,41
 449 1430 449 1430 472.5 1420.5 c 128,-1,42
 496 1411 496 1411 512 1394.5 c 128,-1,43
 528 1378 528 1378 536.5 1357 c 128,-1,44
 545 1336 545 1336 545 1313 c 0,27,28
EndSplineSet
EndChar

StartChar: k
Encoding: 107 107 78
Width: 1042
Flags: W
LayerCount: 2
Fore
SplineSet
1018 47 m 1,0,1
 992 34 992 34 958.5 21 c 128,-1,2
 925 8 925 8 890 -2 c 128,-1,3
 855 -12 855 -12 821.5 -18.5 c 128,-1,4
 788 -25 788 -25 764 -25 c 0,5,6
 739 -25 739 -25 715 -16.5 c 128,-1,7
 691 -8 691 -8 669.5 5.5 c 128,-1,8
 648 19 648 19 630 36.5 c 128,-1,9
 612 54 612 54 600 72 c 0,10,11
 586 93 586 93 568.5 126.5 c 128,-1,12
 551 160 551 160 531.5 200 c 128,-1,13
 512 240 512 240 492 283.5 c 128,-1,14
 472 327 472 327 453.5 367.5 c 128,-1,15
 435 408 435 408 419.5 443 c 128,-1,16
 404 478 404 478 393 500 c 1,17,-1
 299 416 l 1,18,-1
 215 0 l 1,19,-1
 27 0 l 1,20,-1
 299 1368 l 1,21,-1
 119 1386 l 1,22,-1
 119 1448 l 1,23,-1
 436 1509 l 1,24,-1
 518 1509 l 1,25,-1
 328 557 l 1,26,-1
 659 899 l 2,27,28
 688 929 688 929 712 950.5 c 128,-1,29
 736 972 736 972 758.5 985.5 c 128,-1,30
 781 999 781 999 804 1005.5 c 128,-1,31
 827 1012 827 1012 854 1012 c 0,32,33
 888 1012 888 1012 913.5 1002 c 128,-1,34
 939 992 939 992 955.5 976 c 128,-1,35
 972 960 972 960 980 940 c 128,-1,36
 988 920 988 920 987 901 c 1,37,38
 987 866 987 866 954.5 828.5 c 128,-1,39
 922 791 922 791 850 766 c 1,40,-1
 780 840 l 1,41,42
 752 818 752 818 719.5 791 c 128,-1,43
 687 764 687 764 654 736 c 128,-1,44
 621 708 621 708 591 681 c 128,-1,45
 561 654 561 654 537 633 c 1,46,47
 550 607 550 607 565.5 568 c 128,-1,48
 581 529 581 529 598.5 484.5 c 128,-1,49
 616 440 616 440 636.5 393.5 c 128,-1,50
 657 347 657 347 680 305 c 0,51,52
 703 262 703 262 728.5 222.5 c 128,-1,53
 754 183 754 183 781 152.5 c 128,-1,54
 808 122 808 122 836 104 c 128,-1,55
 864 86 864 86 891 86 c 0,56,57
 902 86 902 86 918 88.5 c 128,-1,58
 934 91 934 91 952 95 c 128,-1,59
 970 99 970 99 987.5 105 c 128,-1,60
 1005 111 1005 111 1018 117 c 1,61,-1
 1018 47 l 1,0,1
EndSplineSet
EndChar

StartChar: l
Encoding: 108 108 79
Width: 543
Flags: W
LayerCount: 2
Fore
SplineSet
539 53 m 1,0,1
 527 48 527 48 494 35.5 c 128,-1,2
 461 23 461 23 420 9.5 c 128,-1,3
 379 -4 379 -4 334.5 -14.5 c 128,-1,4
 290 -25 290 -25 254 -25 c 0,5,6
 207 -25 207 -25 174 -14 c 128,-1,7
 141 -3 141 -3 120 17 c 128,-1,8
 99 37 99 37 89.5 64.5 c 128,-1,9
 80 92 80 92 80 125 c 0,10,11
 80 156 80 156 86 197 c 1,12,-1
 311 1368 l 1,13,-1
 129 1386 l 1,14,-1
 129 1448 l 1,15,-1
 449 1509 l 1,16,-1
 528 1509 l 1,17,-1
 279 203 l 2,18,19
 275 182 275 182 281 161.5 c 128,-1,20
 287 141 287 141 300 125.5 c 128,-1,21
 313 110 313 110 332 100 c 128,-1,22
 351 90 351 90 373 90 c 0,23,24
 388 90 388 90 412.5 95.5 c 128,-1,25
 437 101 437 101 462 108 c 128,-1,26
 487 115 487 115 508.5 122 c 128,-1,27
 530 129 530 129 539 131 c 1,28,-1
 539 53 l 1,0,1
EndSplineSet
EndChar

StartChar: m
Encoding: 109 109 80
Width: 1589
Flags: W
LayerCount: 2
Fore
SplineSet
1583 53 m 1,0,1
 1557 42 1557 42 1524.5 28.5 c 128,-1,2
 1492 15 1492 15 1457.5 3 c 128,-1,3
 1423 -9 1423 -9 1389 -17 c 128,-1,4
 1355 -25 1355 -25 1325 -25 c 0,5,6
 1283 -25 1283 -25 1249.5 -15.5 c 128,-1,7
 1216 -6 1216 -6 1193.5 12 c 128,-1,8
 1171 30 1171 30 1161.5 57 c 128,-1,9
 1152 84 1152 84 1159 119 c 2,10,-1
 1272 666 l 2,11,12
 1282 717 1282 717 1279 755 c 128,-1,13
 1276 793 1276 793 1263.5 818 c 128,-1,14
 1251 843 1251 843 1232.5 855.5 c 128,-1,15
 1214 868 1214 868 1194 868 c 0,16,17
 1147 868 1147 868 1102.5 847 c 128,-1,18
 1058 826 1058 826 1021 797.5 c 128,-1,19
 984 769 984 769 957 739.5 c 128,-1,20
 930 710 930 710 920 692 c 1,21,-1
 776 0 l 1,22,-1
 586 0 l 1,23,-1
 723 668 l 2,24,25
 730 701 730 701 729.5 736.5 c 128,-1,26
 729 772 729 772 719.5 801 c 128,-1,27
 710 830 710 830 690 849 c 128,-1,28
 670 868 670 868 637 868 c 0,29,30
 601 868 601 868 560.5 847 c 128,-1,31
 520 826 520 826 482.5 797 c 128,-1,32
 445 768 445 768 414.5 737.5 c 128,-1,33
 384 707 384 707 369 688 c 1,34,-1
 225 0 l 1,35,-1
 37 0 l 1,36,-1
 213 870 l 1,37,-1
 43 889 l 1,38,-1
 43 948 l 1,39,-1
 350 1012 l 1,40,-1
 434 1012 l 1,41,-1
 395 823 l 1,42,43
 433 859 433 859 476 893.5 c 128,-1,44
 519 928 519 928 565 954 c 128,-1,45
 611 980 611 980 658 996 c 128,-1,46
 705 1012 705 1012 750 1012 c 0,47,48
 801 1012 801 1012 834.5 993 c 128,-1,49
 868 974 868 974 888.5 945.5 c 128,-1,50
 909 917 909 917 918.5 884 c 128,-1,51
 928 851 928 851 932 823 c 1,52,53
 969 860 969 860 1014 894 c 128,-1,54
 1059 928 1059 928 1108 954.5 c 128,-1,55
 1157 981 1157 981 1207.5 996.5 c 128,-1,56
 1258 1012 1258 1012 1305 1012 c 0,57,58
 1356 1012 1356 1012 1394.5 993.5 c 128,-1,59
 1433 975 1433 975 1456.5 941 c 128,-1,60
 1480 907 1480 907 1486.5 859 c 128,-1,61
 1493 811 1493 811 1481 752 c 2,62,-1
 1366 199 l 2,63,64
 1361 174 1361 174 1367 153.5 c 128,-1,65
 1373 133 1373 133 1385.5 118 c 128,-1,66
 1398 103 1398 103 1416 94.5 c 128,-1,67
 1434 86 1434 86 1454 86 c 0,68,69
 1479 86 1479 86 1512 98 c 128,-1,70
 1545 110 1545 110 1583 123 c 1,71,-1
 1583 53 l 1,0,1
EndSplineSet
EndChar

StartChar: n
Encoding: 110 110 81
Width: 1085
Flags: W
LayerCount: 2
Fore
SplineSet
1079 41 m 1,0,1
 1066 36 1066 36 1033.5 25.5 c 128,-1,2
 1001 15 1001 15 961 3.5 c 128,-1,3
 921 -8 921 -8 879 -16.5 c 128,-1,4
 837 -25 837 -25 805 -25 c 0,5,6
 787 -25 787 -25 755.5 -21.5 c 128,-1,7
 724 -18 724 -18 695 -5.5 c 128,-1,8
 666 7 666 7 648 31 c 128,-1,9
 630 55 630 55 639 96 c 2,10,-1
 764 725 l 1,11,12
 771 766 771 766 764.5 793 c 128,-1,13
 758 820 758 820 743.5 836.5 c 128,-1,14
 729 853 729 853 710 859.5 c 128,-1,15
 691 866 691 866 674 866 c 0,16,17
 649 866 649 866 612.5 851.5 c 128,-1,18
 576 837 576 837 535.5 813 c 128,-1,19
 495 789 495 789 454 756.5 c 128,-1,20
 413 724 413 724 379 688 c 1,21,-1
 238 0 l 1,22,-1
 47 0 l 1,23,-1
 225 870 l 1,24,-1
 53 889 l 1,25,-1
 53 948 l 1,26,-1
 362 1012 l 1,27,-1
 444 1012 l 1,28,-1
 406 821 l 1,29,30
 440 855 440 855 484 889.5 c 128,-1,31
 528 924 528 924 578 951 c 128,-1,32
 628 978 628 978 681.5 995 c 128,-1,33
 735 1012 735 1012 786 1012 c 0,34,35
 898 1012 898 1012 945.5 950 c 128,-1,36
 993 888 993 888 969 750 c 1,37,-1
 860 172 l 2,38,39
 855 143 855 143 864.5 126 c 128,-1,40
 874 109 874 109 889.5 100 c 128,-1,41
 905 91 905 91 922 88.5 c 128,-1,42
 939 86 939 86 948 86 c 0,43,44
 976 86 976 86 1009 94 c 128,-1,45
 1042 102 1042 102 1077 113 c 1,46,-1
 1079 41 l 1,0,1
EndSplineSet
EndChar

StartChar: o
Encoding: 111 111 82
Width: 1036
Flags: W
LayerCount: 2
Fore
SplineSet
766 623 m 0,0,1
 766 696 766 696 752 752 c 128,-1,2
 738 808 738 808 714 846 c 128,-1,3
 690 884 690 884 656.5 904 c 128,-1,4
 623 924 623 924 584 924 c 0,5,6
 517 924 517 924 459.5 875.5 c 128,-1,7
 402 827 402 827 360 748.5 c 128,-1,8
 318 670 318 670 294 571.5 c 128,-1,9
 270 473 270 473 270 373 c 0,10,11
 270 297 270 297 284 240 c 128,-1,12
 298 183 298 183 323 144.5 c 128,-1,13
 348 106 348 106 381 87 c 128,-1,14
 414 68 414 68 453 68 c 0,15,16
 501 68 501 68 543.5 92.5 c 128,-1,17
 586 117 586 117 620.5 158.5 c 128,-1,18
 655 200 655 200 682 255 c 128,-1,19
 709 310 709 310 728 371.5 c 128,-1,20
 747 433 747 433 756.5 498 c 128,-1,21
 766 563 766 563 766 623 c 0,0,1
973 614 m 0,22,23
 973 531 973 531 954.5 451.5 c 128,-1,24
 936 372 936 372 901.5 301 c 128,-1,25
 867 230 867 230 818.5 170.5 c 128,-1,26
 770 111 770 111 709.5 67.5 c 128,-1,27
 649 24 649 24 578 -0.5 c 128,-1,28
 507 -25 507 -25 428 -25 c 0,29,30
 344 -25 344 -25 276 2 c 128,-1,31
 208 29 208 29 161 79.5 c 128,-1,32
 114 130 114 130 88.5 201.5 c 128,-1,33
 63 273 63 273 63 362 c 0,34,35
 63 445 63 445 81 525.5 c 128,-1,36
 99 606 99 606 132.5 678 c 128,-1,37
 166 750 166 750 214 811.5 c 128,-1,38
 262 873 262 873 322.5 917.5 c 128,-1,39
 383 962 383 962 454.5 987 c 128,-1,40
 526 1012 526 1012 606 1012 c 0,41,42
 680 1012 680 1012 746.5 989 c 128,-1,43
 813 966 813 966 863.5 917 c 128,-1,44
 914 868 914 868 943.5 793 c 128,-1,45
 973 718 973 718 973 614 c 0,22,23
EndSplineSet
EndChar

StartChar: p
Encoding: 112 112 83
Width: 1012
Flags: W
LayerCount: 2
Fore
SplineSet
743 625 m 0,0,1
 743 670 743 670 733.5 716.5 c 128,-1,2
 724 763 724 763 704.5 801 c 128,-1,3
 685 839 685 839 655 863 c 128,-1,4
 625 887 625 887 584 887 c 0,5,6
 547 887 547 887 510 870.5 c 128,-1,7
 473 854 473 854 442.5 833.5 c 128,-1,8
 412 813 412 813 390 793.5 c 128,-1,9
 368 774 368 774 360 768 c 1,10,-1
 238 133 l 1,11,12
 247 128 247 128 263.5 117.5 c 128,-1,13
 280 107 280 107 302 97 c 128,-1,14
 324 87 324 87 349 79.5 c 128,-1,15
 374 72 374 72 401 72 c 0,16,17
 457 72 457 72 504 97 c 128,-1,18
 551 122 551 122 589 164.5 c 128,-1,19
 627 207 627 207 656 263 c 128,-1,20
 685 319 685 319 704 380.5 c 128,-1,21
 723 442 723 442 733 505 c 128,-1,22
 743 568 743 568 743 625 c 0,0,1
946 633 m 0,23,24
 946 549 946 549 926 467.5 c 128,-1,25
 906 386 906 386 868.5 313 c 128,-1,26
 831 240 831 240 778 178 c 128,-1,27
 725 116 725 116 660 71 c 128,-1,28
 595 26 595 26 519 0.5 c 128,-1,29
 443 -25 443 -25 360 -25 c 0,30,31
 314 -25 314 -25 277 -12 c 128,-1,32
 240 1 240 1 215 12 c 1,33,-1
 150 -317 l 2,34,35
 146 -334 146 -334 154.5 -344.5 c 128,-1,36
 163 -355 163 -355 190 -358 c 2,37,-1
 319 -369 l 1,38,-1
 319 -446 l 1,39,-1
 -197 -446 l 1,40,-1
 -197 -369 l 1,41,-1
 -90 -358 l 1,42,43
 -47 -355 -47 -355 -41 -317 c 1,44,-1
 190 870 l 1,45,-1
 18 889 l 1,46,-1
 18 948 l 1,47,-1
 328 1012 l 1,48,-1
 408 1012 l 1,49,-1
 383 885 l 1,50,51
 409 902 409 902 442.5 924 c 128,-1,52
 476 946 476 946 514 965.5 c 128,-1,53
 552 985 552 985 593.5 998.5 c 128,-1,54
 635 1012 635 1012 678 1012 c 0,55,56
 756 1012 756 1012 807.5 978.5 c 128,-1,57
 859 945 859 945 889.5 891 c 128,-1,58
 920 837 920 837 933 769 c 128,-1,59
 946 701 946 701 946 633 c 0,23,24
EndSplineSet
EndChar

StartChar: q
Encoding: 113 113 84
Width: 1069
Flags: W
LayerCount: 2
Fore
SplineSet
772 795 m 2,0,1
 774 806 774 806 762.5 826.5 c 128,-1,2
 751 847 751 847 733.5 867.5 c 128,-1,3
 716 888 716 888 697.5 903 c 128,-1,4
 679 918 679 918 668 918 c 0,5,6
 584 918 584 918 510.5 875 c 128,-1,7
 437 832 437 832 382 756 c 128,-1,8
 327 680 327 680 295.5 577 c 128,-1,9
 264 474 264 474 264 354 c 0,10,11
 264 296 264 296 275.5 249 c 128,-1,12
 287 202 287 202 308.5 169 c 128,-1,13
 330 136 330 136 361 118 c 128,-1,14
 392 100 392 100 430 100 c 0,15,16
 461 100 461 100 491.5 111.5 c 128,-1,17
 522 123 522 123 550.5 142 c 128,-1,18
 579 161 579 161 607 184 c 128,-1,19
 635 207 635 207 662 231 c 1,20,-1
 772 795 l 2,0,1
743 -317 m 2,21,22
 740 -334 740 -334 748.5 -344.5 c 128,-1,23
 757 -355 757 -355 784 -358 c 2,24,-1
 911 -369 l 1,25,-1
 911 -446 l 1,26,-1
 395 -446 l 1,27,-1
 395 -369 l 1,28,-1
 504 -358 l 2,29,30
 524 -356 524 -356 537 -346.5 c 128,-1,31
 550 -337 550 -337 555 -317 c 1,32,-1
 639 109 l 1,33,34
 568 50 568 50 494 12.5 c 128,-1,35
 420 -25 420 -25 348 -25 c 0,36,37
 286 -25 286 -25 234.5 -1.5 c 128,-1,38
 183 22 183 22 145.5 69 c 128,-1,39
 108 116 108 116 87 185 c 128,-1,40
 66 254 66 254 66 346 c 0,41,42
 66 425 66 425 85 505 c 128,-1,43
 104 585 104 585 139 659 c 128,-1,44
 174 733 174 733 225 797.5 c 128,-1,45
 276 862 276 862 340 909.5 c 128,-1,46
 404 957 404 957 480 984.5 c 128,-1,47
 556 1012 556 1012 641 1012 c 0,48,49
 706 1012 706 1012 756 993 c 128,-1,50
 806 974 806 974 834 952 c 1,51,-1
 883 1012 l 1,52,-1
 1006 1012 l 1,53,-1
 743 -317 l 2,21,22
EndSplineSet
EndChar

StartChar: r
Encoding: 114 114 85
Width: 766
Flags: W
LayerCount: 2
Fore
SplineSet
838 874 m 0,0,1
 838 838 838 838 825 816.5 c 128,-1,2
 812 795 812 795 788 784 c 128,-1,3
 764 773 764 773 730.5 769.5 c 128,-1,4
 697 766 697 766 655 766 c 1,5,-1
 606 864 l 1,6,7
 568 848 568 848 524.5 808.5 c 128,-1,8
 481 769 481 769 442 718.5 c 128,-1,9
 403 668 403 668 374 614.5 c 128,-1,10
 345 561 345 561 336 516 c 2,11,-1
 229 0 l 1,12,-1
 39 0 l 1,13,-1
 215 870 l 1,14,-1
 43 889 l 1,15,-1
 43 948 l 1,16,-1
 352 1012 l 1,17,-1
 434 1012 l 1,18,-1
 391 805 l 1,19,20
 454 902 454 902 534 957 c 128,-1,21
 614 1012 614 1012 707 1012 c 0,22,23
 744 1012 744 1012 769 998.5 c 128,-1,24
 794 985 794 985 809.5 964 c 128,-1,25
 825 943 825 943 831.5 919 c 128,-1,26
 838 895 838 895 838 874 c 0,0,1
EndSplineSet
EndChar

StartChar: s
Encoding: 115 115 86
Width: 758
Flags: W
LayerCount: 2
Fore
SplineSet
715 883 m 0,0,1
 715 847 715 847 699 825.5 c 128,-1,2
 683 804 683 804 660 792 c 128,-1,3
 637 780 637 780 611.5 775.5 c 128,-1,4
 586 771 586 771 567 770 c 1,5,-1
 475 895 l 1,6,7
 469 900 469 900 456 905.5 c 128,-1,8
 443 911 443 911 424 911 c 0,9,10
 390 911 390 911 367 896.5 c 128,-1,11
 344 882 344 882 329.5 860.5 c 128,-1,12
 315 839 315 839 309 814.5 c 128,-1,13
 303 790 303 790 303 770 c 0,14,15
 303 742 303 742 319 713.5 c 128,-1,16
 335 685 335 685 361 656.5 c 128,-1,17
 387 628 387 628 419.5 600.5 c 128,-1,18
 452 573 452 573 485 547 c 0,19,20
 519 520 519 520 550.5 491.5 c 128,-1,21
 582 463 582 463 607 432.5 c 128,-1,22
 632 402 632 402 647 368 c 128,-1,23
 662 334 662 334 662 297 c 0,24,25
 662 234 662 234 636.5 176 c 128,-1,26
 611 118 611 118 561.5 73 c 128,-1,27
 512 28 512 28 438.5 1.5 c 128,-1,28
 365 -25 365 -25 270 -25 c 0,29,30
 196 -25 196 -25 142 -8.5 c 128,-1,31
 88 8 88 8 53 34.5 c 128,-1,32
 18 61 18 61 1 95 c 128,-1,33
 -16 129 -16 129 -16 164 c 0,34,35
 -16 213 -16 213 13.5 243.5 c 128,-1,36
 43 274 43 274 106 274 c 0,37,38
 125 274 125 274 142 269 c 128,-1,39
 159 264 159 264 173 257.5 c 128,-1,40
 187 251 187 251 197.5 243.5 c 128,-1,41
 208 236 208 236 213 231 c 1,42,-1
 174 131 l 1,43,44
 196 100 196 100 228.5 78.5 c 128,-1,45
 261 57 261 57 313 57 c 0,46,47
 344 57 344 57 373 69 c 128,-1,48
 402 81 402 81 424.5 103 c 128,-1,49
 447 125 447 125 460 156.5 c 128,-1,50
 473 188 473 188 473 227 c 0,51,52
 473 258 473 258 460.5 285.5 c 128,-1,53
 448 313 448 313 425.5 339 c 128,-1,54
 403 365 403 365 372.5 390.5 c 128,-1,55
 342 416 342 416 305 444 c 0,56,57
 273 469 273 469 243.5 498 c 128,-1,58
 214 527 214 527 190.5 559.5 c 128,-1,59
 167 592 167 592 153 628 c 128,-1,60
 139 664 139 664 139 702 c 0,61,62
 139 777 139 777 173 835 c 128,-1,63
 207 893 207 893 260.5 932.5 c 128,-1,64
 314 972 314 972 379.5 992 c 128,-1,65
 445 1012 445 1012 508 1012 c 0,66,67
 566 1012 566 1012 605.5 998.5 c 128,-1,68
 645 985 645 985 669.5 965.5 c 128,-1,69
 694 946 694 946 704.5 923.5 c 128,-1,70
 715 901 715 901 715 883 c 0,0,1
EndSplineSet
EndChar

StartChar: t
Encoding: 116 116 87
Width: 614
Flags: W
LayerCount: 2
Fore
SplineSet
414 858 m 1,0,-1
 285 215 l 2,1,2
 279 188 279 188 287 166.5 c 128,-1,3
 295 145 295 145 312.5 130.5 c 128,-1,4
 330 116 330 116 353.5 108 c 128,-1,5
 377 100 377 100 403 100 c 0,6,7
 432 100 432 100 463 105.5 c 128,-1,8
 494 111 494 111 522.5 119 c 128,-1,9
 551 127 551 127 575.5 135.5 c 128,-1,10
 600 144 600 144 616 150 c 1,11,-1
 616 68 l 1,12,13
 603 62 603 62 566 47 c 128,-1,14
 529 32 529 32 481 16 c 128,-1,15
 433 0 433 0 380 -12.5 c 128,-1,16
 327 -25 327 -25 283 -25 c 0,17,18
 227 -25 227 -25 190 -11.5 c 128,-1,19
 153 2 153 2 131 25.5 c 128,-1,20
 109 49 109 49 99.5 81.5 c 128,-1,21
 90 114 90 114 90 152 c 0,22,23
 90 172 90 172 91.5 193 c 128,-1,24
 93 214 93 214 98 236 c 2,25,-1
 223 858 l 1,26,-1
 94 846 l 1,27,-1
 94 913 l 1,28,-1
 248 981 l 1,29,-1
 348 1186 l 1,30,-1
 473 1186 l 1,31,-1
 432 952 l 1,32,-1
 715 952 l 1,33,-1
 715 858 l 1,34,-1
 414 858 l 1,0,-1
EndSplineSet
EndChar

StartChar: u
Encoding: 117 117 88
Width: 1079
Flags: W
LayerCount: 2
Fore
SplineSet
1073 49 m 1,0,1
 1054 38 1054 38 1020.5 25 c 128,-1,2
 987 12 987 12 948 1 c 128,-1,3
 909 -10 909 -10 868.5 -17.5 c 128,-1,4
 828 -25 828 -25 795 -25 c 0,5,6
 737 -25 737 -25 709 -5.5 c 128,-1,7
 681 14 681 14 670.5 39.5 c 128,-1,8
 660 65 660 65 661 91 c 128,-1,9
 662 117 662 117 662 129 c 1,10,11
 581 52 581 52 492.5 13.5 c 128,-1,12
 404 -25 404 -25 301 -25 c 0,13,14
 230 -25 230 -25 185 0 c 128,-1,15
 140 25 140 25 117 63 c 128,-1,16
 94 101 94 101 89 146 c 128,-1,17
 84 191 84 191 92 231 c 2,18,-1
 225 870 l 1,19,-1
 53 889 l 1,20,-1
 53 948 l 1,21,-1
 362 1012 l 1,22,-1
 446 1012 l 1,23,-1
 283 231 l 2,24,25
 277 205 277 205 285.5 181.5 c 128,-1,26
 294 158 294 158 310.5 140.5 c 128,-1,27
 327 123 327 123 348 112.5 c 128,-1,28
 369 102 369 102 389 102 c 0,29,30
 426 102 426 102 463.5 112.5 c 128,-1,31
 501 123 501 123 538 141 c 128,-1,32
 575 159 575 159 609 182.5 c 128,-1,33
 643 206 643 206 672 233 c 1,34,-1
 827 987 l 1,35,-1
 1018 987 l 1,36,-1
 854 199 l 2,37,38
 847 167 847 167 854 145.5 c 128,-1,39
 861 124 861 124 875.5 110 c 128,-1,40
 890 96 890 96 908.5 90 c 128,-1,41
 927 84 927 84 944 84 c 0,42,43
 964 84 964 84 997 90 c 128,-1,44
 1030 96 1030 96 1073 121 c 1,45,-1
 1073 49 l 1,0,1
EndSplineSet
EndChar

StartChar: v
Encoding: 118 118 89
Width: 946
Flags: W
LayerCount: 2
Fore
SplineSet
956 889 m 0,0,1
 956 863 956 863 951 840 c 128,-1,2
 946 817 946 817 939.5 797 c 128,-1,3
 933 777 933 777 925.5 761 c 128,-1,4
 918 745 918 745 913 735 c 0,5,6
 845 609 845 609 767 494 c 128,-1,7
 689 379 689 379 614 281.5 c 128,-1,8
 539 184 539 184 472 105.5 c 128,-1,9
 405 27 405 27 358 -25 c 1,10,-1
 240 -25 l 1,11,12
 261 20 261 20 272 58.5 c 128,-1,13
 283 97 283 97 281 131 c 0,14,15
 281 134 281 134 279 161.5 c 128,-1,16
 277 189 277 189 273.5 232.5 c 128,-1,17
 270 276 270 276 265 332 c 128,-1,18
 260 388 260 388 254 448 c 128,-1,19
 248 508 248 508 241.5 568.5 c 128,-1,20
 235 629 235 629 227.5 681.5 c 128,-1,21
 220 734 220 734 212.5 774.5 c 128,-1,22
 205 815 205 815 197 836 c 1,23,24
 187 857 187 857 177 867 c 128,-1,25
 167 877 167 877 150 877 c 2,26,-1
 4 885 l 1,27,-1
 4 944 l 1,28,-1
 223 1012 l 1,29,30
 307 1010 307 1010 345 974.5 c 128,-1,31
 383 939 383 939 391 866 c 2,32,-1
 455 236 l 1,33,34
 507 304 507 304 551 365.5 c 128,-1,35
 595 427 595 427 631.5 485 c 128,-1,36
 668 543 668 543 698 600.5 c 128,-1,37
 728 658 728 658 752 719 c 1,38,-1
 713 967 l 1,39,40
 733 987 733 987 763 999.5 c 128,-1,41
 793 1012 793 1012 831 1012 c 0,42,43
 897 1012 897 1012 926.5 978.5 c 128,-1,44
 956 945 956 945 956 889 c 0,0,1
EndSplineSet
EndChar

StartChar: w
Encoding: 119 119 90
Width: 1438
Flags: W
LayerCount: 2
Fore
SplineSet
1446 891 m 0,0,1
 1446 848 1446 848 1424 788 c 128,-1,2
 1402 728 1402 728 1366 658.5 c 128,-1,3
 1330 589 1330 589 1283 514 c 128,-1,4
 1236 439 1236 439 1186.5 366 c 128,-1,5
 1137 293 1137 293 1088.5 226.5 c 128,-1,6
 1040 160 1040 160 1000 107 c 128,-1,7
 960 54 960 54 932.5 19 c 128,-1,8
 905 -16 905 -16 897 -25 c 1,9,-1
 770 -25 l 1,10,-1
 725 674 l 1,11,12
 680 577 680 577 631 480.5 c 128,-1,13
 582 384 582 384 533 294 c 128,-1,14
 484 204 484 204 436.5 122.5 c 128,-1,15
 389 41 389 41 346 -25 c 1,16,-1
 195 -25 l 1,17,-1
 215 23 l 1,18,-1
 158 868 l 1,19,-1
 4 885 l 1,20,-1
 4 942 l 1,21,-1
 252 1012 l 1,22,-1
 344 1006 l 1,23,-1
 389 240 l 1,24,25
 429 313 429 313 473 401 c 128,-1,26
 517 489 517 489 562 582.5 c 128,-1,27
 607 676 607 676 651 772.5 c 128,-1,28
 695 869 695 869 735 961 c 1,29,-1
 889 979 l 1,30,-1
 940 199 l 1,31,32
 1035 321 1035 321 1107 450 c 128,-1,33
 1179 579 1179 579 1241 721 c 1,34,-1
 1200 961 l 1,35,36
 1204 965 1204 965 1213.5 973.5 c 128,-1,37
 1223 982 1223 982 1239 990.5 c 128,-1,38
 1255 999 1255 999 1276 1005.5 c 128,-1,39
 1297 1012 1297 1012 1323 1012 c 0,40,41
 1360 1012 1360 1012 1383.5 997.5 c 128,-1,42
 1407 983 1407 983 1421 963.5 c 128,-1,43
 1435 944 1435 944 1440.5 923.5 c 128,-1,44
 1446 903 1446 903 1446 891 c 0,0,1
EndSplineSet
EndChar

StartChar: x
Encoding: 120 120 91
Width: 1081
Flags: W
LayerCount: 2
Fore
SplineSet
1104 891 m 0,0,1
 1104 851 1104 851 1077.5 814.5 c 128,-1,2
 1051 778 1051 778 991 758 c 1,3,-1
 901 838 l 1,4,5
 874 827 874 827 841 798.5 c 128,-1,6
 808 770 808 770 773.5 725.5 c 128,-1,7
 739 681 739 681 705 622 c 128,-1,8
 671 563 671 563 641 492 c 1,9,10
 647 473 647 473 655.5 444.5 c 128,-1,11
 664 416 664 416 675 382.5 c 128,-1,12
 686 349 686 349 698.5 313.5 c 128,-1,13
 711 278 711 278 725 246 c 0,14,15
 740 213 740 213 756.5 184 c 128,-1,16
 773 155 773 155 791 133 c 128,-1,17
 809 111 809 111 827.5 98.5 c 128,-1,18
 846 86 846 86 864 86 c 0,19,20
 887 86 887 86 913.5 90.5 c 128,-1,21
 940 95 940 95 981 115 c 1,22,-1
 981 41 l 1,23,24
 922 10 922 10 864.5 -7.5 c 128,-1,25
 807 -25 807 -25 741 -25 c 0,26,27
 707 -25 707 -25 678 -6.5 c 128,-1,28
 649 12 649 12 624.5 42 c 128,-1,29
 600 72 600 72 579.5 111.5 c 128,-1,30
 559 151 559 151 543 193 c 128,-1,31
 527 235 527 235 514.5 277 c 128,-1,32
 502 319 502 319 494 354 c 1,33,34
 465 300 465 300 427.5 234.5 c 128,-1,35
 390 169 390 169 342 111 c 128,-1,36
 294 53 294 53 235.5 14 c 128,-1,37
 177 -25 177 -25 106 -25 c 0,38,39
 43 -25 43 -25 3 4.5 c 128,-1,40
 -37 34 -37 34 -37 88 c 0,41,42
 -37 138 -37 138 -4.5 168 c 128,-1,43
 28 198 28 198 90 209 c 1,44,-1
 176 127 l 1,45,46
 207 146 207 146 241.5 179 c 128,-1,47
 276 212 276 212 311.5 258.5 c 128,-1,48
 347 305 347 305 380.5 365 c 128,-1,49
 414 425 414 425 442 498 c 1,50,51
 437 518 437 518 426 553 c 128,-1,52
 415 588 415 588 399.5 627.5 c 128,-1,53
 384 667 384 667 367 708 c 128,-1,54
 350 749 350 749 334 782.5 c 128,-1,55
 318 816 318 816 305 837.5 c 128,-1,56
 292 859 292 859 285 860 c 2,57,-1
 106 883 l 1,58,-1
 106 938 l 1,59,60
 115 941 115 941 135 947.5 c 128,-1,61
 155 954 155 954 180.5 962.5 c 128,-1,62
 206 971 206 971 233.5 979.5 c 128,-1,63
 261 988 261 988 285 995.5 c 128,-1,64
 309 1003 309 1003 327 1007.5 c 128,-1,65
 345 1012 345 1012 352 1012 c 0,66,67
 388 1012 388 1012 420 986 c 128,-1,68
 452 960 452 960 480.5 910 c 128,-1,69
 509 860 509 860 534.5 788 c 128,-1,70
 560 716 560 716 584 623 c 1,71,72
 614 681 614 681 655.5 749 c 128,-1,73
 697 817 697 817 747 875.5 c 128,-1,74
 797 934 797 934 855.5 973 c 128,-1,75
 914 1012 914 1012 979 1012 c 0,76,77
 1035 1012 1035 1012 1069.5 978.5 c 128,-1,78
 1104 945 1104 945 1104 891 c 0,0,1
EndSplineSet
EndChar

StartChar: y
Encoding: 121 121 92
Width: 1018
Flags: W
LayerCount: 2
Fore
SplineSet
971 846 m 1,0,1
 959 834 959 834 936 802 c 128,-1,2
 913 770 913 770 888.5 730 c 128,-1,3
 864 690 864 690 840.5 647.5 c 128,-1,4
 817 605 817 605 803 573 c 0,5,6
 781 524 781 524 751.5 454 c 128,-1,7
 722 384 722 384 685.5 303.5 c 128,-1,8
 649 223 649 223 606 136.5 c 128,-1,9
 563 50 563 50 514 -33 c 0,10,11
 466 -114 466 -114 411.5 -192.5 c 128,-1,12
 357 -271 357 -271 296 -332.5 c 128,-1,13
 235 -394 235 -394 167.5 -431.5 c 128,-1,14
 100 -469 100 -469 27 -469 c 0,15,16
 -29 -469 -29 -469 -66 -455 c 128,-1,17
 -103 -441 -103 -441 -125 -420.5 c 128,-1,18
 -147 -400 -147 -400 -155.5 -376.5 c 128,-1,19
 -164 -353 -164 -353 -164 -334 c 0,20,21
 -164 -311 -164 -311 -153.5 -289.5 c 128,-1,22
 -143 -268 -143 -268 -124 -251.5 c 128,-1,23
 -105 -235 -105 -235 -79 -225 c 128,-1,24
 -53 -215 -53 -215 -23 -213 c 1,25,-1
 96 -332 l 1,26,27
 128 -329 128 -329 159 -306.5 c 128,-1,28
 190 -284 190 -284 224.5 -239 c 128,-1,29
 259 -194 259 -194 300 -126 c 128,-1,30
 341 -58 341 -58 393 37 c 1,31,32
 391 49 391 49 383 90.5 c 128,-1,33
 375 132 375 132 363.5 191.5 c 128,-1,34
 352 251 352 251 337.5 323 c 128,-1,35
 323 395 323 395 307 469 c 0,36,37
 291 541 291 541 273.5 613.5 c 128,-1,38
 256 686 256 686 239.5 744 c 128,-1,39
 223 802 223 802 210 839 c 128,-1,40
 197 876 197 876 190 877 c 2,41,-1
 4 891 l 1,42,-1
 4 942 l 1,43,-1
 32 951 l 2,44,45
 52 958 52 958 76 965.5 c 128,-1,46
 100 973 100 973 127 981.5 c 128,-1,47
 154 990 154 990 178 996.5 c 128,-1,48
 202 1003 202 1003 221.5 1007.5 c 128,-1,49
 241 1012 241 1012 250 1012 c 0,50,51
 283 1012 283 1012 308 996.5 c 128,-1,52
 333 981 333 981 352.5 952 c 128,-1,53
 372 923 372 923 388.5 882.5 c 128,-1,54
 405 842 405 842 420 791 c 0,55,56
 446 700 446 700 474 565.5 c 128,-1,57
 502 431 502 431 532 266 c 1,58,-1
 844 1012 l 1,59,-1
 903 1012 l 1,60,-1
 1073 956 l 1,61,-1
 1073 909 l 1,62,-1
 971 846 l 1,0,1
EndSplineSet
EndChar

StartChar: z
Encoding: 122 122 93
Width: 911
Flags: W
LayerCount: 2
Fore
SplineSet
227 145 m 1,0,-1
 399 190 l 1,1,2
 420 182 420 182 447 170.5 c 128,-1,3
 474 159 474 159 502.5 148 c 128,-1,4
 531 137 531 137 558 129 c 128,-1,5
 585 121 585 121 606 121 c 0,6,7
 628 121 628 121 644.5 127.5 c 128,-1,8
 661 134 661 134 673.5 144 c 128,-1,9
 686 154 686 154 696 165.5 c 128,-1,10
 706 177 706 177 715 188 c 1,11,-1
 602 313 l 1,12,13
 612 331 612 331 626 345.5 c 128,-1,14
 640 360 640 360 655.5 370 c 128,-1,15
 671 380 671 380 687 385.5 c 128,-1,16
 703 391 703 391 717 391 c 0,17,18
 745 391 745 391 766.5 379.5 c 128,-1,19
 788 368 788 368 803 350 c 128,-1,20
 818 332 818 332 826 309 c 128,-1,21
 834 286 834 286 834 264 c 0,22,23
 834 202 834 202 806.5 149 c 128,-1,24
 779 96 779 96 735.5 57.5 c 128,-1,25
 692 19 692 19 639.5 -3 c 128,-1,26
 587 -25 587 -25 537 -25 c 0,27,28
 490 -25 490 -25 447.5 -11.5 c 128,-1,29
 405 2 405 2 365.5 18.5 c 128,-1,30
 326 35 326 35 288 49 c 128,-1,31
 250 63 250 63 213 63 c 0,32,33
 205 63 205 63 189.5 60 c 128,-1,34
 174 57 174 57 160 43 c 1,35,-1
 109 -53 l 1,36,-1
 -33 23 l 1,37,-1
 662 836 l 1,38,-1
 481 797 l 1,39,40
 439 820 439 820 394 838 c 128,-1,41
 349 856 349 856 307 856 c 0,42,43
 294 856 294 856 278 852 c 128,-1,44
 262 848 262 848 247 840.5 c 128,-1,45
 232 833 232 833 218.5 822 c 128,-1,46
 205 811 205 811 197 797 c 1,47,-1
 305 666 l 1,48,49
 301 660 301 660 291 648.5 c 128,-1,50
 281 637 281 637 266.5 625.5 c 128,-1,51
 252 614 252 614 233 606 c 128,-1,52
 214 598 214 598 193 598 c 0,53,54
 164 598 164 598 142.5 609.5 c 128,-1,55
 121 621 121 621 107 639 c 128,-1,56
 93 657 93 657 86.5 678.5 c 128,-1,57
 80 700 80 700 80 719 c 0,58,59
 80 766 80 766 99.5 817.5 c 128,-1,60
 119 869 119 869 156.5 912.5 c 128,-1,61
 194 956 194 956 247.5 984 c 128,-1,62
 301 1012 301 1012 369 1012 c 0,63,64
 415 1012 415 1012 457.5 996 c 128,-1,65
 500 980 500 980 538 960.5 c 128,-1,66
 576 941 576 941 610.5 925 c 128,-1,67
 645 909 645 909 676 909 c 0,68,69
 682 909 682 909 693 911.5 c 128,-1,70
 704 914 704 914 723 924 c 1,71,-1
 768 1038 l 1,72,-1
 922 958 l 1,73,-1
 227 145 l 1,0,-1
EndSplineSet
EndChar

StartChar: braceleft
Encoding: 123 123 94
Width: 995
Flags: W
LayerCount: 2
Fore
SplineSet
1032 1354 m 1,0,1
 949 1354 949 1354 895 1334 c 128,-1,2
 841 1314 841 1314 807 1282 c 0,3,4
 772 1249 772 1249 752.5 1204 c 128,-1,5
 733 1159 733 1159 721 1108 c 128,-1,6
 709 1057 709 1057 700.5 1002 c 128,-1,7
 692 947 692 947 679 894 c 128,-1,8
 666 841 666 841 644.5 792.5 c 128,-1,9
 623 744 623 744 584 705 c 1,10,11
 550 673 550 673 498.5 644.5 c 128,-1,12
 447 616 447 616 369 596 c 1,13,14
 415 580 415 580 449 562.5 c 128,-1,15
 483 545 483 545 508 522 c 0,16,17
 540 492 540 492 553.5 453 c 128,-1,18
 567 414 567 414 568 370 c 128,-1,19
 569 326 569 326 561.5 278 c 128,-1,20
 554 230 554 230 544 182.5 c 128,-1,21
 534 135 534 135 525 89 c 128,-1,22
 516 43 516 43 514 3 c 128,-1,23
 512 -37 512 -37 520.5 -70 c 128,-1,24
 529 -103 529 -103 555 -125 c 0,25,26
 571 -139 571 -139 592 -147 c 128,-1,27
 613 -155 613 -155 636.5 -159.5 c 128,-1,28
 660 -164 660 -164 685.5 -165 c 128,-1,29
 711 -166 711 -166 735 -166 c 1,30,-1
 719 -252 l 1,31,32
 663 -252 663 -252 611 -249.5 c 128,-1,33
 559 -247 559 -247 514.5 -238 c 128,-1,34
 470 -229 470 -229 433.5 -212.5 c 128,-1,35
 397 -196 397 -196 371 -168 c 0,36,37
 342 -137 342 -137 331 -96 c 128,-1,38
 320 -55 320 -55 320.5 -9 c 128,-1,39
 321 37 321 37 329.5 86.5 c 128,-1,40
 338 136 338 136 348.5 186 c 128,-1,41
 359 236 359 236 368.5 283.5 c 128,-1,42
 378 331 378 331 379.5 373 c 128,-1,43
 381 415 381 415 371.5 450 c 128,-1,44
 362 485 362 485 336 508 c 0,45,46
 318 525 318 525 293 533 c 128,-1,47
 268 541 268 541 239.5 544 c 128,-1,48
 211 547 211 547 180 547 c 2,49,-1
 119 547 l 1,50,-1
 137 641 l 1,51,52
 179 641 179 641 216.5 642 c 128,-1,53
 254 643 254 643 286 649 c 128,-1,54
 318 655 318 655 345.5 667.5 c 128,-1,55
 373 680 373 680 395 702 c 0,56,57
 433 738 433 738 453.5 791.5 c 128,-1,58
 474 845 474 845 486.5 906 c 128,-1,59
 499 967 499 967 510 1032.5 c 128,-1,60
 521 1098 521 1098 539.5 1160 c 128,-1,61
 558 1222 558 1222 590 1275.5 c 128,-1,62
 622 1329 622 1329 678 1366 c 1,63,64
 741 1409 741 1409 831.5 1424.5 c 128,-1,65
 922 1440 922 1440 1047 1440 c 1,66,-1
 1032 1354 l 1,0,1
EndSplineSet
EndChar

StartChar: bar
Encoding: 124 124 95
Width: 724
Flags: W
LayerCount: 2
Fore
SplineSet
300 -528 m 1,0,-1
 300 1630 l 1,1,-1
 424 1630 l 1,2,-1
 424 -528 l 1,3,-1
 300 -528 l 1,0,-1
EndSplineSet
EndChar

StartChar: braceright
Encoding: 125 125 96
Width: 995
Flags: W
LayerCount: 2
Fore
SplineSet
879 547 m 1,0,1
 837 547 837 547 799.5 545.5 c 128,-1,2
 762 544 762 544 729.5 538 c 128,-1,3
 697 532 697 532 670 519.5 c 128,-1,4
 643 507 643 507 621 485 c 0,5,6
 583 449 583 449 563 396 c 128,-1,7
 543 343 543 343 530 282 c 128,-1,8
 517 221 517 221 506.5 155 c 128,-1,9
 496 89 496 89 477.5 27.5 c 128,-1,10
 459 -34 459 -34 427 -87.5 c 128,-1,11
 395 -141 395 -141 340 -178 c 0,12,13
 275 -222 275 -222 184.5 -237 c 128,-1,14
 94 -252 94 -252 -31 -252 c 1,15,-1
 -16 -166 l 1,16,17
 67 -166 67 -166 121.5 -146 c 128,-1,18
 176 -126 176 -126 211 -94 c 0,19,20
 246 -61 246 -61 265 -16 c 128,-1,21
 284 29 284 29 295.5 80.5 c 128,-1,22
 307 132 307 132 315 187 c 128,-1,23
 323 242 323 242 336 295 c 128,-1,24
 349 348 349 348 371 396.5 c 128,-1,25
 393 445 393 445 432 483 c 0,26,27
 466 517 466 517 517.5 544.5 c 128,-1,28
 569 572 569 572 647 594 c 1,29,30
 555 621 555 621 510 666 c 1,31,32
 467 706 467 706 456 761.5 c 128,-1,33
 445 817 445 817 451 879 c 128,-1,34
 457 941 457 941 472.5 1006 c 128,-1,35
 488 1071 488 1071 497 1129.5 c 128,-1,36
 506 1188 506 1188 501.5 1236 c 128,-1,37
 497 1284 497 1284 463 1313 c 0,38,39
 446 1327 446 1327 424.5 1335 c 128,-1,40
 403 1343 403 1343 379.5 1347.5 c 128,-1,41
 356 1352 356 1352 330.5 1353 c 128,-1,42
 305 1354 305 1354 281 1354 c 1,43,-1
 299 1440 l 1,44,45
 354 1440 354 1440 405 1437.5 c 128,-1,46
 456 1435 456 1435 500.5 1426 c 128,-1,47
 545 1417 545 1417 582 1400.5 c 128,-1,48
 619 1384 619 1384 645 1356 c 0,49,50
 683 1314 683 1314 691 1256.5 c 128,-1,51
 699 1199 699 1199 691 1134 c 128,-1,52
 683 1069 683 1069 667 1002 c 128,-1,53
 651 935 651 935 642.5 873.5 c 128,-1,54
 634 812 634 812 639.5 761.5 c 128,-1,55
 645 711 645 711 680 680 c 0,56,57
 698 663 698 663 723 655 c 128,-1,58
 748 647 748 647 776.5 644 c 128,-1,59
 805 641 805 641 836 641 c 2,60,-1
 897 641 l 1,61,-1
 879 547 l 1,0,1
EndSplineSet
EndChar

StartChar: asciitilde
Encoding: 126 126 97
Width: 1706
Flags: W
LayerCount: 2
Fore
SplineSet
1544 627 m 1,0,1
 1485 586 1485 586 1434 558.5 c 128,-1,2
 1383 531 1383 531 1336.5 514 c 128,-1,3
 1290 497 1290 497 1246.5 490 c 128,-1,4
 1203 483 1203 483 1159 483 c 0,5,6
 1086 483 1086 483 1014 504.5 c 128,-1,7
 942 526 942 526 869 552 c 128,-1,8
 796 578 796 578 721 599.5 c 128,-1,9
 646 621 646 621 567 621 c 0,10,11
 489 621 489 621 392.5 578.5 c 128,-1,12
 296 536 296 536 193 461 c 1,13,-1
 193 594 l 1,14,15
 302 672 302 672 400 705.5 c 128,-1,16
 498 739 498 739 582 739 c 0,17,18
 656 739 656 739 731 717.5 c 128,-1,19
 806 696 806 696 879 670.5 c 128,-1,20
 952 645 952 645 1023 623.5 c 128,-1,21
 1094 602 1094 602 1161 602 c 0,22,23
 1198 602 1198 602 1239.5 610 c 128,-1,24
 1281 618 1281 618 1328 636.5 c 128,-1,25
 1375 655 1375 655 1428.5 685 c 128,-1,26
 1482 715 1482 715 1544 760 c 1,27,-1
 1544 627 l 1,0,1
EndSplineSet
EndChar

StartChar: quoteleft
Encoding: 8216 8216 98
Width: 520
Flags: W
LayerCount: 2
Fore
SplineSet
582 1446 m 1,0,1
 547 1413 547 1413 506.5 1373 c 128,-1,2
 466 1333 466 1333 431.5 1287.5 c 128,-1,3
 397 1242 397 1242 373 1192.5 c 128,-1,4
 349 1143 349 1143 348 1092 c 1,5,-1
 473 1092 l 1,6,7
 479 1084 479 1084 486.5 1070 c 128,-1,8
 494 1056 494 1056 494 1028 c 0,9,10
 494 1003 494 1003 482.5 977 c 128,-1,11
 471 951 471 951 450.5 929.5 c 128,-1,12
 430 908 430 908 402 894.5 c 128,-1,13
 374 881 374 881 340 881 c 256,14,15
 306 881 306 881 277.5 890 c 128,-1,16
 249 899 249 899 228 917.5 c 128,-1,17
 207 936 207 936 195.5 965 c 128,-1,18
 184 994 184 994 184 1034 c 0,19,20
 184 1098 184 1098 215 1160.5 c 128,-1,21
 246 1223 246 1223 290.5 1278 c 128,-1,22
 335 1333 335 1333 382.5 1376.5 c 128,-1,23
 430 1420 430 1420 463 1446 c 1,24,-1
 582 1446 l 1,0,1
EndSplineSet
EndChar

StartChar: quoteright
Encoding: 8217 8217 99
Width: 520
Flags: W
LayerCount: 2
Fore
SplineSet
588 1296 m 0,0,1
 588 1231 588 1231 557.5 1167.5 c 128,-1,2
 527 1104 527 1104 483.5 1048.5 c 128,-1,3
 440 993 440 993 393 949.5 c 128,-1,4
 346 906 346 906 313 881 c 1,5,-1
 190 881 l 1,6,7
 225 914 225 914 266 954 c 128,-1,8
 307 994 307 994 342 1039.5 c 128,-1,9
 377 1085 377 1085 400.5 1135 c 128,-1,10
 424 1185 424 1185 424 1237 c 1,11,-1
 297 1237 l 1,12,13
 292 1245 292 1245 285.5 1259.5 c 128,-1,14
 279 1274 279 1274 279 1294 c 0,15,16
 279 1319 279 1319 291 1346 c 128,-1,17
 303 1373 303 1373 324 1395.5 c 128,-1,18
 345 1418 345 1418 374 1432 c 128,-1,19
 403 1446 403 1446 438 1446 c 0,20,21
 463 1446 463 1446 489.5 1439.5 c 128,-1,22
 516 1433 516 1433 538 1416 c 128,-1,23
 560 1399 560 1399 574 1370 c 128,-1,24
 588 1341 588 1341 588 1296 c 0,0,1
EndSplineSet
EndChar

StartChar: quotedblleft
Encoding: 8220 8220 100
Width: 936
Flags: W
LayerCount: 2
Fore
SplineSet
582 1446 m 1,0,1
 547 1413 547 1413 506.5 1373 c 128,-1,2
 466 1333 466 1333 431.5 1287.5 c 128,-1,3
 397 1242 397 1242 373 1192.5 c 128,-1,4
 349 1143 349 1143 348 1092 c 1,5,-1
 473 1092 l 1,6,7
 479 1084 479 1084 486.5 1070 c 128,-1,8
 494 1056 494 1056 494 1028 c 0,9,10
 494 1003 494 1003 482.5 977 c 128,-1,11
 471 951 471 951 450.5 929.5 c 128,-1,12
 430 908 430 908 402 894.5 c 128,-1,13
 374 881 374 881 340 881 c 256,14,15
 306 881 306 881 277.5 890 c 128,-1,16
 249 899 249 899 228 917.5 c 128,-1,17
 207 936 207 936 195.5 965 c 128,-1,18
 184 994 184 994 184 1034 c 0,19,20
 184 1098 184 1098 215 1160.5 c 128,-1,21
 246 1223 246 1223 290.5 1278 c 128,-1,22
 335 1333 335 1333 382.5 1376.5 c 128,-1,23
 430 1420 430 1420 463 1446 c 1,24,-1
 582 1446 l 1,0,1
995 1446 m 1,25,26
 961 1413 961 1413 920.5 1373 c 128,-1,27
 880 1333 880 1333 844.5 1287.5 c 128,-1,28
 809 1242 809 1242 785.5 1192.5 c 128,-1,29
 762 1143 762 1143 762 1092 c 1,30,-1
 889 1092 l 1,31,32
 894 1082 894 1082 900.5 1067 c 128,-1,33
 907 1052 907 1052 907 1032 c 0,34,35
 907 1007 907 1007 895 980 c 128,-1,36
 883 953 883 953 862 931 c 128,-1,37
 841 909 841 909 811.5 895 c 128,-1,38
 782 881 782 881 748 881 c 0,39,40
 723 881 723 881 696.5 887.5 c 128,-1,41
 670 894 670 894 648 911 c 128,-1,42
 626 928 626 928 612 956.5 c 128,-1,43
 598 985 598 985 598 1030 c 0,44,45
 598 1095 598 1095 628.5 1158.5 c 128,-1,46
 659 1222 659 1222 702 1277.5 c 128,-1,47
 745 1333 745 1333 792 1376.5 c 128,-1,48
 839 1420 839 1420 872 1446 c 1,49,-1
 995 1446 l 1,25,26
EndSplineSet
EndChar

StartChar: quotedblright
Encoding: 8221 8221 101
Width: 936
Flags: W
LayerCount: 2
Fore
SplineSet
588 1296 m 0,0,1
 588 1231 588 1231 557.5 1167.5 c 128,-1,2
 527 1104 527 1104 483.5 1048.5 c 128,-1,3
 440 993 440 993 393 949.5 c 128,-1,4
 346 906 346 906 313 881 c 1,5,-1
 190 881 l 1,6,7
 225 914 225 914 266 954 c 128,-1,8
 307 994 307 994 342 1039.5 c 128,-1,9
 377 1085 377 1085 400.5 1135 c 128,-1,10
 424 1185 424 1185 424 1237 c 1,11,-1
 297 1237 l 1,12,13
 292 1245 292 1245 285.5 1259.5 c 128,-1,14
 279 1274 279 1274 279 1294 c 0,15,16
 279 1319 279 1319 291 1346 c 128,-1,17
 303 1373 303 1373 324 1395.5 c 128,-1,18
 345 1418 345 1418 374 1432 c 128,-1,19
 403 1446 403 1446 438 1446 c 0,20,21
 463 1446 463 1446 489.5 1439.5 c 128,-1,22
 516 1433 516 1433 538 1416 c 128,-1,23
 560 1399 560 1399 574 1370 c 128,-1,24
 588 1341 588 1341 588 1296 c 0,0,1
1001 1292 m 0,25,26
 1001 1228 1001 1228 970 1165.5 c 128,-1,27
 939 1103 939 1103 895 1048 c 128,-1,28
 851 993 851 993 803.5 949.5 c 128,-1,29
 756 906 756 906 723 881 c 1,30,-1
 604 881 l 1,31,32
 638 914 638 914 678.5 954 c 128,-1,33
 719 994 719 994 754 1039.5 c 128,-1,34
 789 1085 789 1085 812.5 1135 c 128,-1,35
 836 1185 836 1185 838 1237 c 1,36,-1
 713 1237 l 1,37,38
 707 1243 707 1243 699.5 1257 c 128,-1,39
 692 1271 692 1271 692 1298 c 0,40,41
 692 1323 692 1323 703.5 1349.5 c 128,-1,42
 715 1376 715 1376 735.5 1397.5 c 128,-1,43
 756 1419 756 1419 784.5 1432.5 c 128,-1,44
 813 1446 813 1446 848 1446 c 0,45,46
 914 1446 914 1446 957.5 1409 c 128,-1,47
 1001 1372 1001 1372 1001 1292 c 0,25,26
EndSplineSet
EndChar

StartChar: u0950
Encoding: 2384 2384 102
Width: 2136
Flags: W
LayerCount: 2
Fore
SplineSet
1607 1408 m 1,0,1
 1609 1392 1609 1392 1609 1385 c 0,2,3
 1608 1376 1608 1376 1608 1372 c 0,4,5
 1607 1363 1607 1363 1599 1347 c 1,6,-1
 1584 1328 l 1,7,-1
 1341 1263 l 1,8,-1
 1334 1295 l 1,9,-1
 1549 1443 l 1,10,-1
 1564 1445 l 1,11,12
 1578 1445 1578 1445 1588.5 1439 c 128,-1,13
 1599 1433 1599 1433 1607 1408 c 1,0,1
1897 1309 m 1,14,15
 1794 1176 1794 1176 1661 1105 c 1,16,17
 1598 1073 1598 1073 1523.5 1055 c 128,-1,18
 1449 1037 1449 1037 1368 1037 c 0,19,20
 1219 1037 1219 1037 1119 1137 c 0,21,22
 1047 1209 1047 1209 1010 1330 c 1,23,-1
 1092 1370 l 1,24,25
 1134 1239 1134 1239 1220 1175 c 1,26,27
 1294 1122 1294 1122 1387 1122 c 0,28,29
 1527 1122 1527 1122 1635.5 1178.5 c 128,-1,30
 1744 1235 1744 1235 1833 1348 c 1,31,-1
 1897 1309 l 1,14,15
835 574 m 1,32,33
 761 545 761 545 663 523 c 1,34,-1
 586 511 l 1,35,-1
 598 597 l 1,36,37
 626 597 626 597 640.5 599 c 128,-1,38
 655 601 655 601 690 608 c 0,39,40
 797 629 797 629 871 672 c 0,41,42
 970 730 970 730 993 830 c 0,43,44
 995 839 995 839 996 853 c 128,-1,45
 997 867 997 867 997 878 c 0,46,47
 997 929 997 929 972 971 c 1,48,49
 923 1049 923 1049 806 1049 c 0,50,51
 732 1049 732 1049 669 1026 c 1,52,-1
 509 958 l 1,53,-1
 505 1037 l 1,54,55
 597 1083 597 1083 672.5 1108.5 c 128,-1,56
 748 1134 748 1134 825 1134 c 0,57,58
 988 1134 988 1134 1052 1027 c 0,59,60
 1085 970 1085 970 1085 902 c 0,61,62
 1085 867 1085 867 1077 830 c 0,63,64
 1063 765 1063 765 1023 712 c 0,65,66
 988 666 988 666 924 622 c 1,67,68
 942 610 942 610 951 601 c 0,69,70
 956 597 956 597 977 574 c 1,71,72
 1009 535 1009 535 1027 494 c 1,73,74
 1046 461 1046 461 1079 439 c 1,75,76
 1115 418 1115 418 1162 418 c 0,77,78
 1246 418 1246 418 1345 542 c 1,79,-1
 1447 680 l 1,80,81
 1542 803 1542 803 1621 861 c 0,82,83
 1727 938 1727 938 1848 938 c 0,84,85
 1997 938 1997 938 2065 822 c 0,86,87
 2121 726 2121 726 2121 613 c 0,88,89
 2121 559 2121 559 2108.5 501 c 128,-1,90
 2096 443 2096 443 2071.5 394 c 128,-1,91
 2047 345 2047 345 2003 292 c 0,92,93
 1884 148 1884 148 1712 148 c 0,94,95
 1542 148 1542 148 1461 255 c 0,96,97
 1432 294 1432 294 1415.5 344 c 128,-1,98
 1399 394 1399 394 1399 457 c 1,99,-1
 1488 473 l 1,100,101
 1488 384 1488 384 1534 319 c 1,102,103
 1598 234 1598 234 1731 234 c 0,104,105
 1857 234 1857 234 1945 343 c 0,106,107
 2003 415 2003 415 2022 499 c 0,108,109
 2027 521 2027 521 2029.5 551.5 c 128,-1,110
 2032 582 2032 582 2032 605 c 0,111,112
 2032 690 2032 690 1997 755 c 0,113,114
 1972 801 1972 801 1930 824.5 c 128,-1,115
 1888 848 1888 848 1827 848 c 0,116,117
 1753 848 1753 848 1688 811 c 0,118,119
 1613 768 1613 768 1510 634 c 1,120,-1
 1397 490 l 1,121,122
 1334 415 1334 415 1277 376 c 0,123,124
 1210 329 1210 329 1143 329 c 1,125,-1
 1092 333 l 2,126,127
 1078 335 1078 335 1065.5 339.5 c 128,-1,128
 1053 344 1053 344 1041 351 c 1,129,-1
 1037 319 l 1,130,-1
 1030 289 l 1,131,132
 1000 142 1000 142 894 68 c 1,133,134
 802 6 802 6 668 6 c 0,135,136
 517 6 517 6 405 101 c 1,137,138
 324 173 324 173 268 294 c 1,139,140
 238 362 238 362 217 450 c 1,141,-1
 303 485 l 1,142,143
 347 294 347 294 439 195 c 1,144,145
 538 91 538 91 685 91 c 0,146,147
 781 91 781 91 846 134 c 0,148,149
 920 184 920 184 943 289 c 0,150,151
 951 329 951 329 951 364 c 0,152,153
 951 434 951 434 916 487 c 0,154,155
 890 526 890 526 835 574 c 1,32,33
EndSplineSet
EndChar

StartChar: u0C01
Encoding: 3073 3073 103
Width: 949
Flags: W
LayerCount: 2
Fore
SplineSet
879 350 m 1,0,1
 808 181 808 181 713 96 c 1,2,3
 610 1 610 1 463 1 c 0,4,5
 311 1 311 1 253 141 c 1,6,7
 225 213 225 213 225 302 c 0,8,9
 225 372 225 372 241 456 c 1,10,11
 283 652 283 652 393 790 c 1,12,13
 530 959 530 959 727 959 c 1,14,-1
 706 859 l 1,15,16
 557 859 557 859 448 725 c 1,17,18
 362 615 362 615 329 457 c 0,19,20
 317 396 317 396 317 343 c 0,21,22
 317 273 317 273 339 216 c 1,23,24
 379 103 379 103 485 103 c 0,25,26
 597 103 597 103 676 177 c 0,27,28
 741 238 741 238 806 382 c 1,29,-1
 879 350 l 1,0,1
EndSplineSet
AnchorPoint: "BR" -69 188 mark 0
EndChar

StartChar: u0C03
Encoding: 3075 3075 105
Width: 676
Flags: W
LayerCount: 2
Fore
SplineSet
645 653 m 0,0,1
 631 582 631 582 569.5 532 c 128,-1,2
 508 482 508 482 438 482 c 256,3,4
 368 482 368 482 328 532 c 0,5,6
 299 569 299 569 299 616 c 0,7,8
 299 632 299 632 303 651 c 0,9,10
 317 721 317 721 379 772 c 128,-1,11
 441 823 441 823 510 823 c 0,12,13
 578 823 578 823 620 773 c 0,14,15
 648 740 648 740 648 691 c 0,16,17
 648 673 648 673 645 653 c 0,0,1
546 190 m 0,18,19
 532 122 532 122 472 70.5 c 128,-1,20
 412 19 412 19 340 19 c 0,21,22
 270 19 270 19 230 69 c 0,23,24
 201 106 201 106 201 153 c 0,25,26
 201 169 201 169 205 188 c 0,27,28
 219 258 219 258 281 309 c 128,-1,29
 343 360 343 360 413 360 c 0,30,31
 481 360 481 360 523 310 c 0,32,33
 550 277 550 277 550 228 c 0,34,35
 550 210 550 210 546 190 c 0,18,19
558 651 m 1,36,37
 560 667 560 667 560 674 c 0,38,39
 560 695 560 695 548 711 c 0,40,41
 529 734 529 734 492 734 c 0,42,43
 456 734 456 734 426 711 c 128,-1,44
 396 688 396 688 388 649 c 0,45,46
 387 642 387 642 387 628 c 0,47,48
 387 607 387 607 399 588 c 1,49,50
 420 565 420 565 456 565 c 256,51,52
 492 565 492 565 521 589.5 c 128,-1,53
 550 614 550 614 558 651 c 1,36,37
461 189 m 1,54,55
 463 203 463 203 463 210 c 0,56,57
 463 232 463 232 448 250 c 1,58,59
 432 275 432 275 395 275 c 0,60,61
 362 275 362 275 329 250 c 1,62,63
 300 225 300 225 292 189 c 0,64,65
 291 182 291 182 291 168 c 0,66,67
 291 147 291 147 303 128 c 1,68,69
 322 105 322 105 359 105 c 0,70,71
 395 105 395 105 424 129 c 128,-1,72
 453 153 453 153 461 189 c 1,54,55
EndSplineSet
AnchorPoint: "BR" -69 188 mark 0
EndChar

StartChar: u0C05
Encoding: 3077 3077 106
Width: 1519
Flags: W
LayerCount: 2
Fore
SplineSet
712 763 m 1,0,1
 714 782 714 782 714 789 c 0,2,3
 714 811 714 811 702 830 c 0,4,5
 686 858 686 858 649 858 c 0,6,7
 613 858 613 858 581.5 831 c 128,-1,8
 550 804 550 804 542 762 c 1,9,10
 540 743 540 743 540 735 c 0,11,12
 540 712 540 712 552 693 c 0,13,14
 571 664 571 664 607 664 c 0,15,16
 644 664 644 664 672 689.5 c 128,-1,17
 700 715 700 715 712 763 c 1,0,1
971 442 m 1,18,19
 941 490 941 490 933 553 c 0,20,21
 932 565 932 565 931.5 579.5 c 128,-1,22
 931 594 931 594 931 601 c 0,23,24
 931 637 931 637 939 674 c 0,25,26
 964 791 964 791 1048.5 874 c 128,-1,27
 1133 957 1133 957 1239 957 c 0,28,29
 1372 957 1372 957 1444 864 c 1,30,31
 1500 787 1500 787 1500 661 c 0,32,33
 1500 591 1500 591 1484 505 c 1,34,35
 1431 259 1431 259 1193 118 c 0,36,37
 992 0 992 0 767 0 c 0,38,39
 525 0 525 0 376 113 c 1,40,41
 241 217 241 217 241 392 c 0,42,43
 241 443 241 443 253 504 c 1,44,45
 306 749 306 749 454 869 c 0,46,47
 563 957 563 957 673 957 c 0,48,49
 744 957 744 957 780 900 c 0,50,51
 803 863 803 863 803 810 c 0,52,53
 803 787 803 787 799 762 c 1,54,55
 783 684 783 684 720 624 c 128,-1,56
 657 564 657 564 586 564 c 0,57,58
 512 564 512 564 476 621 c 1,59,60
 451 658 451 658 451 709 c 0,61,62
 451 724 451 724 451 739 c 1,63,64
 455 754 455 754 456 759 c 1,65,66
 419 726 419 726 389 660.5 c 128,-1,67
 359 595 359 595 340 504 c 0,68,69
 331 461 331 461 331 418 c 0,70,71
 331 273 331 273 456 186.5 c 128,-1,72
 581 100 581 100 789 100 c 0,73,74
 985 100 985 100 1151 189 c 0,75,76
 1354 298 1354 298 1400 505 c 0,77,78
 1414 569 1414 569 1414 627 c 0,79,80
 1414 718 1414 718 1374 779 c 1,81,82
 1318 856 1318 856 1220 856 c 0,83,84
 1153 856 1153 856 1098 800 c 128,-1,85
 1043 744 1043 744 1027 662 c 0,86,87
 1022 636 1022 636 1022 604 c 0,88,89
 1022 574 1022 574 1030 542 c 1,90,91
 1049 481 1049 481 1098 441 c 1,92,-1
 1204 441 l 1,93,-1
 1183 345 l 1,94,-1
 492 345 l 1,95,-1
 513 441 l 1,96,-1
 971 442 l 1,18,19
EndSplineSet
EndChar

StartChar: u0C06
Encoding: 3078 3078 107
Width: 1479
Flags: W
LayerCount: 2
Fore
SplineSet
1253 510 m 1,0,1
 1306 533 1306 533 1346.5 591.5 c 128,-1,2
 1387 650 1387 650 1403 720 c 1,3,4
 1405 736 1405 736 1405 744 c 0,5,6
 1405 793 1405 793 1359 824.5 c 128,-1,7
 1313 856 1313 856 1255 856 c 0,8,9
 1192 856 1192 856 1139 830 c 0,10,11
 1068 794 1068 794 1052 720 c 0,12,13
 1048 701 1048 701 1048 685 c 0,14,15
 1048 625 1048 625 1099 582.5 c 128,-1,16
 1150 540 1150 540 1253 510 c 1,0,1
689 762 m 1,17,18
 691 778 691 778 691 783 c 0,19,20
 691 805 691 805 677 828 c 1,21,22
 658 856 658 856 623 856 c 256,23,24
 588 856 588 856 557 829 c 128,-1,25
 526 802 526 802 518 760 c 1,26,27
 516 738 516 738 516 731 c 0,28,29
 516 705 516 705 527 689 c 0,30,31
 546 661 546 661 582 661 c 0,32,33
 619 661 619 661 648 689 c 128,-1,34
 677 717 677 717 689 762 c 1,17,18
493 475 m 1,35,-1
 1092 475 l 1,36,37
 1025 493 1025 493 990 551 c 1,38,39
 961 597 961 597 961 658 c 0,40,41
 961 667 961 667 961.5 681.5 c 128,-1,42
 962 696 962 696 967 718 c 0,43,44
 993 848 993 848 1100 909 c 1,45,46
 1178 955 1178 955 1276 955 c 0,47,48
 1364 955 1364 955 1429 902 c 128,-1,49
 1494 849 1494 849 1494 770 c 0,50,51
 1494 755 1494 755 1494 740 c 1,52,53
 1490 725 1490 725 1489 720 c 0,54,55
 1473 639 1473 639 1434.5 568.5 c 128,-1,56
 1396 498 1396 498 1343 458 c 1,57,58
 1361 430 1361 430 1369 388 c 1,59,60
 1371 366 1371 366 1371 355 c 0,61,62
 1371 332 1371 332 1367 307 c 1,63,64
 1330 135 1330 135 1118 59 c 0,65,66
 958 2 958 2 713 2 c 0,67,68
 478 2 478 2 337 119 c 1,69,70
 216 222 216 222 216 391 c 0,71,72
 216 445 216 445 228 506 c 0,73,74
 278 742 278 742 419 865 c 1,75,76
 528 958 528 958 644 958 c 0,77,78
 716 958 716 958 752 901 c 1,79,80
 778 862 778 862 778 809 c 0,81,82
 778 798 778 798 776 784 c 128,-1,83
 774 770 774 770 773 762 c 0,84,85
 757 684 757 684 694 624 c 128,-1,86
 631 564 631 564 560 564 c 0,87,88
 486 564 486 564 450 621 c 1,89,90
 425 658 425 658 425 709 c 0,91,92
 425 724 425 724 425 739 c 1,93,94
 429 754 429 754 430 759 c 2,95,-1
 431 764 l 1,96,97
 395 725 395 725 362 655 c 1,98,99
 347 620 347 620 334.5 583 c 128,-1,100
 322 546 322 546 313 503 c 128,-1,101
 304 460 304 460 304 417 c 0,102,103
 304 282 304 282 414 194 c 1,104,105
 537 99 537 99 734 99 c 0,106,107
 939 99 939 99 1073 138 c 1,108,109
 1256 189 1256 189 1281 303 c 0,110,111
 1283 314 1283 314 1283 333 c 0,112,113
 1283 345 1283 345 1279 356 c 0,114,115
 1271 375 1271 375 1249 396 c 1,116,-1
 1160 377 l 1,117,-1
 1104 370 l 1,118,-1
 472 370 l 1,119,-1
 493 475 l 1,35,-1
EndSplineSet
EndChar

StartChar: u0C07
Encoding: 3079 3079 108
Width: 1230
Flags: W
LayerCount: 2
Fore
SplineSet
1208 571 m 1,0,1
 1196 510 1196 510 1162.5 437.5 c 128,-1,2
 1129 365 1129 365 1076 297 c 1,3,4
 1098 240 1098 240 1098 165 c 0,5,6
 1098 105 1098 105 1084 41 c 0,7,8
 1059 -70 1059 -70 991 -140 c 1,9,10
 933 -198 933 -198 857 -210 c 1,11,-1
 866 -112 l 1,12,13
 909 -107 909 -107 946 -65 c 1,14,15
 985 -26 985 -26 999 42 c 0,16,17
 1008 86 1008 86 1008 130 c 2,18,-1
 1008 150 l 2,19,20
 1008 183 1008 183 1003 211 c 1,21,22
 905 116 905 116 796 63 c 0,23,24
 669 2 669 2 532 2 c 0,25,26
 377 2 377 2 302 79 c 1,27,28
 248 137 248 137 248 219 c 0,29,30
 248 235 248 235 248 251 c 1,31,32
 252 267 252 267 253 274 c 0,33,34
 273 373 273 373 386 459 c 0,35,36
 511 555 511 555 660 555 c 0,37,38
 759 555 759 555 858 514 c 0,39,40
 971 467 971 467 1032 377 c 1,41,42
 1064 421 1064 421 1086 474 c 0,43,44
 1095 495 1095 495 1105.5 525.5 c 128,-1,45
 1116 556 1116 556 1118 568 c 0,46,47
 1127 615 1127 615 1127 659 c 0,48,49
 1127 724 1127 724 1101 773 c 0,50,51
 1058 854 1058 854 976 854 c 0,52,53
 902 854 902 854 849 810 c 1,54,55
 800 773 800 773 778 713 c 1,56,-1
 692 713 l 1,57,58
 694 729 694 729 694 738 c 0,59,60
 694 777 694 777 666 809 c 1,61,62
 624 853 624 853 545 853 c 0,63,64
 485 853 485 853 442 823 c 128,-1,65
 399 793 399 793 388 743 c 0,66,67
 383 720 383 720 383 690 c 0,68,69
 383 671 383 671 387 650 c 1,70,-1
 399 610 l 1,71,-1
 317 550 l 1,72,-1
 302 610 l 1,73,74
 300 625 300 625 299 644.5 c 128,-1,75
 298 664 298 664 298 680 c 0,76,77
 298 695 298 695 298 706 c 128,-1,78
 298 717 298 717 303 743 c 0,79,80
 319 827 319 827 395 890.5 c 128,-1,81
 471 954 471 954 567 954 c 0,82,83
 642 954 642 954 689.5 923.5 c 128,-1,84
 737 893 737 893 765 837 c 1,85,86
 807 887 807 887 863 919 c 1,87,88
 928 954 928 954 998 954 c 0,89,90
 1115 954 1115 954 1176 847 c 1,91,92
 1216 780 1216 780 1216 682 c 0,93,94
 1216 629 1216 629 1208 571 c 1,0,1
964 291 m 1,95,96
 917 373 917 373 815 419 c 0,97,98
 731 456 731 456 636 456 c 0,99,100
 524 456 524 456 433 396 c 0,101,102
 351 343 351 343 335 271 c 0,103,104
 331 252 331 252 331 236 c 0,105,106
 331 182 331 182 374 145 c 1,107,108
 432 99 432 99 548 99 c 0,109,110
 671 99 671 99 784 156 c 1,111,112
 884 205 884 205 964 291 c 1,95,96
EndSplineSet
EndChar

StartChar: u0C08
Encoding: 3080 3080 109
Width: 2015
Flags: W
LayerCount: 2
Fore
SplineSet
1849 298 m 0,0,1
 1854 321 1854 321 1854 349 c 0,2,3
 1854 402 1854 402 1828 446 c 1,4,5
 1792 511 1792 511 1718 511 c 0,6,7
 1646 511 1646 511 1581 447 c 128,-1,8
 1516 383 1516 383 1495 297 c 0,9,10
 1493 285 1493 285 1492 274 c 128,-1,11
 1491 263 1491 263 1491 249 c 0,12,13
 1491 199 1491 199 1519 159 c 1,14,15
 1556 102 1556 102 1631 102 c 0,16,17
 1705 102 1705 102 1767 157 c 128,-1,18
 1829 212 1829 212 1849 298 c 0,0,1
1127 611 m 1,19,20
 1112 717 1112 717 1052 784 c 1,21,22
 987 859 987 859 892 859 c 256,23,24
 797 859 797 859 698 785 c 1,25,26
 613 720 613 720 548 611 c 1,27,-1
 1127 611 l 1,19,20
1131 515 m 1,28,-1
 507 515 l 1,29,30
 492 448 492 448 492 380 c 0,31,32
 492 282 492 282 528 215 c 0,33,34
 589 104 589 104 730 104 c 0,35,36
 865 104 865 104 978 221.5 c 128,-1,37
 1091 339 1091 339 1131 515 c 1,28,-1
837 954 m 1,38,39
 793 969 793 969 753 1020 c 1,40,41
 738 1041 738 1041 728.5 1057.5 c 128,-1,42
 719 1074 719 1074 711 1095 c 1,43,-1
 802 1146 l 1,44,45
 814 1127 814 1127 825 1111 c 128,-1,46
 836 1095 836 1095 847 1083 c 0,47,48
 889 1039 889 1039 931 1039 c 0,49,50
 1008 1039 1008 1039 1103 1127 c 1,51,-1
 1273 1293 l 1,52,53
 1386 1382 1386 1382 1503 1382 c 2,54,-1
 1661 1382 l 1,55,-1
 1638 1270 l 1,56,-1
 1477 1270 l 2,57,58
 1396 1270 1396 1270 1314 1202 c 1,59,-1
 1169 1061 l 1,60,61
 1077 976 1077 976 995 951 c 1,62,63
 1094 922 1094 922 1152 829 c 0,64,65
 1182 782 1182 782 1200.5 727.5 c 128,-1,66
 1219 673 1219 673 1219 615 c 1,67,-1
 1741 615 l 2,68,69
 1791 615 1791 615 1846 650 c 128,-1,70
 1901 685 1901 685 1917 753 c 1,71,72
 1919 769 1919 769 1919 776 c 0,73,74
 1919 813 1919 813 1890 845 c 0,75,76
 1853 885 1853 885 1800 885 c 0,77,78
 1726 885 1726 885 1669 848 c 1,79,80
 1623 815 1623 815 1614 772 c 1,81,-1
 1530 777 l 1,82,83
 1555 858 1555 858 1616 912 c 1,84,85
 1700 984 1700 984 1821 984 c 0,86,87
 1909 984 1909 984 1965 912 c 1,88,89
 2008 859 2008 859 2008 792 c 0,90,91
 2008 773 2008 773 2004 752 c 0,92,93
 1992 696 1992 696 1957 643 c 128,-1,94
 1922 590 1922 590 1875 562 c 1,95,96
 1917 526 1917 526 1936 452 c 0,97,98
 1944 419 1944 419 1944 383 c 0,99,100
 1944 346 1944 346 1936 304 c 0,101,102
 1911 183 1911 183 1814.5 95 c 128,-1,103
 1718 7 1718 7 1611 7 c 256,104,105
 1504 7 1504 7 1444 93 c 1,106,107
 1405 153 1405 153 1405 232 c 0,108,109
 1405 261 1405 261 1412 303 c 1,110,111
 1424 364 1424 364 1454 421 c 0,112,113
 1469 450 1469 450 1487 473.5 c 128,-1,114
 1505 497 1505 497 1527 516 c 1,115,-1
 1214 516 l 1,116,117
 1191 404 1191 404 1145.5 315.5 c 128,-1,118
 1100 227 1100 227 1026 152 c 0,119,120
 882 4 882 4 709 4 c 0,121,122
 535 4 535 4 454 148 c 1,123,124
 404 234 404 234 404 360 c 0,125,126
 404 432 404 432 420 516 c 1,127,-1
 262 516 l 1,128,-1
 283 612 l 1,129,-1
 455 612 l 1,130,131
 513 738 513 738 619 832.5 c 128,-1,132
 725 927 725 927 837 954 c 1,38,39
EndSplineSet
EndChar

StartChar: u0C09
Encoding: 3081 3081 110
Width: 1671
Flags: W
LayerCount: 2
Fore
SplineSet
1660 618 m 1,0,-1
 585 618 l 1,1,2
 559 586 559 586 536 540 c 128,-1,3
 513 494 513 494 499 441 c 1,4,5
 478 345 478 345 478 277 c 0,6,7
 478 217 478 217 494 180 c 1,8,9
 523 104 523 104 616 104 c 0,10,11
 711 104 711 104 792 199 c 1,12,-1
 878 326 l 1,13,-1
 952 326 l 1,14,15
 957 296 957 296 959 281 c 0,16,17
 968 234 968 234 976 201 c 1,18,19
 1013 106 1013 106 1112 106 c 0,20,21
 1205 106 1205 106 1273 174 c 0,22,23
 1331 232 1331 232 1345 299 c 1,24,-1
 1352 349 l 1,25,26
 1352 371 1352 371 1337 386 c 1,27,28
 1323 314 1323 314 1263.5 262 c 128,-1,29
 1204 210 1204 210 1139 210 c 0,30,31
 1078 210 1078 210 1039 261 c 1,32,33
 1014 297 1014 297 1014 344 c 0,34,35
 1014 362 1014 362 1018 385 c 0,36,37
 1034 463 1034 463 1093.5 520 c 128,-1,38
 1153 577 1153 577 1218 577 c 0,39,40
 1362 577 1362 577 1413 467 c 1,41,42
 1435 417 1435 417 1435 359 c 0,43,44
 1435 341 1435 341 1435 323 c 1,45,46
 1431 305 1431 305 1430 298 c 0,47,48
 1407 191 1407 191 1335 112 c 0,49,50
 1239 5 1239 5 1091 5 c 0,51,52
 1017 5 1017 5 968 41 c 0,53,54
 908 84 908 84 879 190 c 1,55,56
 805 87 805 87 728 43 c 0,57,58
 663 6 663 6 592 6 c 0,59,60
 464 6 464 6 413 99 c 1,61,62
 385 154 385 154 385 242 c 0,63,64
 385 323 385 323 408 444 c 1,65,66
 419 495 419 495 435 532 c 0,67,68
 444 554 444 554 446 562 c 1,69,70
 458 591 458 591 474 619 c 1,71,-1
 270 619 l 1,72,-1
 286 700 l 1,73,-1
 526 700 l 1,74,75
 618 814 618 814 745 884 c 128,-1,76
 872 954 872 954 997 954 c 1,77,-1
 1040 1159 l 1,78,-1
 1126 1159 l 1,79,-1
 1083 956 l 1,80,81
 1172 956 1172 956 1250 921 c 1,82,83
 1304 898 1304 898 1362 851 c 1,84,-1
 1304 766 l 1,85,86
 1248 805 1248 805 1190 828 c 1,87,88
 1106 858 1106 858 1020 858 c 0,89,90
 920 858 920 858 819.5 817.5 c 128,-1,91
 719 777 719 777 634 699 c 1,92,-1
 1667 699 l 1,93,-1
 1660 618 l 1,0,-1
1252 390 m 1,94,95
 1254 404 1254 404 1254 412 c 0,96,97
 1254 431 1254 431 1242 447 c 1,98,99
 1227 473 1227 473 1195 473 c 0,100,101
 1166 473 1166 473 1137 448 c 1,102,103
 1112 423 1112 423 1104 388 c 0,104,105
 1103 383 1103 383 1103 377.5 c 128,-1,106
 1103 372 1103 372 1103 370 c 0,107,108
 1103 349 1103 349 1114 330 c 1,109,110
 1132 304 1132 304 1160 304 c 0,111,112
 1186 304 1186 304 1218 329 c 1,113,114
 1241 351 1241 351 1252 390 c 1,94,95
EndSplineSet
EndChar

StartChar: u0C0A
Encoding: 3082 3082 111
Width: 2251
Flags: W
LayerCount: 2
Fore
SplineSet
2105 393 m 0,0,1
 2110 415 2110 415 2110 443 c 0,2,3
 2110 492 2110 492 2084 538 c 1,4,5
 2045 598 2045 598 1971 598 c 256,6,7
 1897 598 1897 598 1834.5 539.5 c 128,-1,8
 1772 481 1772 481 1751 393 c 0,9,10
 1746 370 1746 370 1746 342 c 0,11,12
 1746 291 1746 291 1772 252 c 0,13,14
 1809 194 1809 194 1884 194 c 0,15,16
 1954 194 1954 194 2019 251 c 128,-1,17
 2084 308 2084 308 2105 393 c 0,0,1
1261 392 m 1,18,19
 1263 406 1263 406 1263 414 c 0,20,21
 1263 433 1263 433 1251 449 c 1,22,23
 1236 475 1236 475 1204 475 c 0,24,25
 1175 475 1175 475 1146 450 c 1,26,27
 1121 425 1121 425 1113 390 c 0,28,29
 1112 385 1112 385 1112 379.5 c 128,-1,30
 1112 374 1112 374 1112 372 c 0,31,32
 1112 351 1112 351 1123 332 c 1,33,34
 1141 306 1141 306 1169 306 c 0,35,36
 1195 306 1195 306 1227 331 c 1,37,38
 1250 353 1250 353 1261 392 c 1,18,19
572 614 m 1,39,-1
 528 532 l 1,40,41
 510 489 510 489 501 443 c 0,42,43
 483 358 483 358 483 290 c 0,44,45
 483 223 483 223 501 181 c 0,46,47
 533 105 533 105 619 105 c 0,48,49
 714 105 714 105 795 200 c 1,50,-1
 881 327 l 1,51,-1
 955 327 l 1,52,-1
 969 238 l 1,53,54
 1001 103 1001 103 1118 103 c 0,55,56
 1210 103 1210 103 1278 167 c 0,57,58
 1335 221 1335 221 1349 288 c 0,59,60
 1354 311 1354 311 1354 340 c 0,61,62
 1354 368 1354 368 1343 386 c 1,63,64
 1329 314 1329 314 1269.5 262 c 128,-1,65
 1210 210 1210 210 1145 210 c 0,66,67
 1084 210 1084 210 1045 261 c 1,68,69
 1020 297 1020 297 1020 344 c 0,70,71
 1020 362 1020 362 1024 385 c 0,72,73
 1040 463 1040 463 1099.5 520 c 128,-1,74
 1159 577 1159 577 1224 577 c 0,75,76
 1357 577 1357 577 1414 472 c 1,77,78
 1440 418 1440 418 1440 353 c 0,79,80
 1440 334 1440 334 1439 323 c 128,-1,81
 1438 312 1438 312 1434 287 c 1,82,83
 1413 188 1413 188 1332 106 c 1,84,85
 1227 4 1227 4 1096 4 c 0,86,87
 1022 4 1022 4 973 40 c 0,88,89
 913 83 913 83 884 189 c 1,90,91
 810 86 810 86 733 42 c 0,92,93
 668 5 668 5 597 5 c 0,94,95
 480 5 480 5 426 98 c 1,96,97
 393 160 393 160 393 260 c 0,98,99
 393 339 393 339 414 442 c 0,100,101
 419 467 419 467 423.5 486.5 c 128,-1,102
 428 506 428 506 436 525.5 c 128,-1,103
 444 545 444 545 455 568.5 c 128,-1,104
 466 592 466 592 477 613 c 1,105,-1
 283 613 l 1,106,-1
 301 697 l 1,107,-1
 534 697 l 1,108,109
 598 776 598 776 691 841 c 1,110,111
 779 899 779 899 881 929 c 1,112,-1
 928 1157 l 1,113,-1
 1014 1157 l 1,114,-1
 971 949 l 1,115,-1
 1060 953 l 1,116,-1
 1142 949 l 1,117,-1
 1185 1157 l 1,118,-1
 1270 1157 l 1,119,-1
 1221 926 l 1,120,121
 1267 911 1267 911 1320 885 c 1,122,123
 1336 876 1336 876 1350.5 867 c 128,-1,124
 1365 858 1365 858 1390 839 c 1,125,-1
 1327 754 l 1,126,127
 1276 793 1276 793 1212 821 c 1,128,129
 1121 858 1121 858 1026 858 c 0,130,131
 923 858 923 858 821.5 815.5 c 128,-1,132
 720 773 720 773 636 696 c 1,133,-1
 1987 696 l 2,134,135
 2040 696 2040 696 2089 725 c 0,136,137
 2146 760 2146 760 2162 827 c 1,138,139
 2164 843 2164 843 2164 851 c 0,140,141
 2164 888 2164 888 2137 923 c 1,142,143
 2101 967 2101 967 2048 967 c 0,144,145
 1972 967 1972 967 1919 934 c 1,146,147
 1870 899 1870 899 1862 856 c 1,148,-1
 1777 856 l 1,149,150
 1791 931 1791 931 1861 992 c 1,151,152
 1946 1064 1946 1064 2069 1064 c 0,153,154
 2157 1064 2157 1064 2213 990 c 0,155,156
 2255 936 2255 936 2255 871 c 0,157,158
 2255 849 2255 849 2251 826 c 0,159,160
 2239 765 2239 765 2204 724 c 128,-1,161
 2169 683 2169 683 2116 653 c 1,162,163
 2162 613 2162 613 2183 542 c 0,164,165
 2188 523 2188 523 2190.5 505 c 128,-1,166
 2193 487 2193 487 2193 464 c 0,167,168
 2193 435 2193 435 2186 396 c 1,169,170
 2172 333 2172 333 2142 281.5 c 128,-1,171
 2112 230 2112 230 2063 186 c 0,172,173
 1968 100 1968 100 1859 100 c 0,174,175
 1752 100 1752 100 1692 186 c 1,176,177
 1653 247 1653 247 1653 326 c 0,178,179
 1653 342 1653 342 1654 359.5 c 128,-1,180
 1655 377 1655 377 1659 395 c 0,181,182
 1671 455 1671 455 1704 515 c 1,183,184
 1736 568 1736 568 1787 614 c 1,185,-1
 572 614 l 1,39,-1
EndSplineSet
EndChar

StartChar: u0C0C
Encoding: 3084 3084 113
Width: 1537
Flags: W
LayerCount: 2
Fore
SplineSet
1467 347 m 0,0,1
 1400 31 1400 31 1238 -170 c 1,2,3
 1047 -412 1047 -412 773 -412 c 0,4,5
 552 -412 552 -412 467 -281 c 1,6,7
 423 -209 423 -209 423 -117 c 0,8,9
 423 -99 423 -99 425.5 -77 c 128,-1,10
 428 -55 428 -55 432 -28 c 1,11,12
 458 100 458 100 586 200 c 1,13,14
 621 226 621 226 740 304 c 1,15,-1
 926 423 l 1,16,17
 973 459 973 459 1030 524 c 0,18,19
 1055 553 1055 553 1070 616 c 1,20,21
 1075 642 1075 642 1075 668 c 0,22,23
 1075 701 1075 701 1063 729 c 0,24,25
 1038 785 1038 785 963 785 c 256,26,27
 888 785 888 785 820 708 c 1,28,-1
 746 599 l 1,29,-1
 678 599 l 1,30,-1
 650 706 l 1,31,32
 610 784 610 784 514 784 c 0,33,34
 467 784 467 784 433 767.5 c 128,-1,35
 399 751 399 751 388 716 c 0,36,37
 386 707 386 707 385.5 687 c 128,-1,38
 385 667 385 667 385 653 c 2,39,-1
 385 630 l 1,40,-1
 390 590 l 1,41,-1
 306 544 l 1,42,-1
 298 600 l 1,43,44
 297 616 297 616 296.5 628.5 c 128,-1,45
 296 641 296 641 296 648 c 0,46,47
 296 670 296 670 297 682.5 c 128,-1,48
 298 695 298 695 302 717 c 0,49,50
 317 784 317 784 382.5 835 c 128,-1,51
 448 886 448 886 536 886 c 0,52,53
 634 886 634 886 685 825 c 1,54,55
 715 793 715 793 740 721 c 1,56,57
 773 786 773 786 827 828 c 1,58,59
 898 886 898 886 984 886 c 0,60,61
 1104 886 1104 886 1148 794 c 0,62,63
 1169 750 1169 750 1169 692 c 0,64,65
 1169 678 1169 678 1167 661.5 c 128,-1,66
 1165 645 1165 645 1159.5 616 c 128,-1,67
 1154 587 1154 587 1147 567.5 c 128,-1,68
 1140 548 1140 548 1128 526 c 1,69,70
 1064 423 1064 423 968 352 c 1,71,-1
 756 215 l 1,72,-1
 607 113 l 1,73,74
 540 56 540 56 520 -28 c 1,75,76
 513 -65 513 -65 513 -93 c 0,77,78
 513 -164 513 -164 552 -217 c 0,79,80
 622 -313 622 -313 797 -313 c 0,81,82
 1021 -313 1021 -313 1187 -103 c 0,83,84
 1325 73 1325 73 1383 346 c 0,85,86
 1408 466 1408 466 1408 573 c 0,87,88
 1408 613 1408 613 1407 631 c 1,89,90
 1403 654 1403 654 1403 665 c 1,91,92
 1382 855 1382 855 1277 855 c 1,93,-1
 1302 975 l 1,94,95
 1447 975 1447 975 1484 743 c 1,96,97
 1493 676 1493 676 1493 597 c 0,98,99
 1493 473 1493 473 1467 347 c 0,0,1
EndSplineSet
EndChar

StartChar: u0C0E
Encoding: 3086 3086 114
Width: 1192
Flags: W
LayerCount: 2
Fore
SplineSet
565 74 m 1,0,1
 528 41 528 41 479 19 c 1,2,3
 432 1 432 1 385 1 c 0,4,5
 285 1 285 1 230 83 c 1,6,7
 191 139 191 139 191 213 c 0,8,9
 191 242 191 242 198 281 c 0,10,11
 210 342 210 342 236.5 390 c 128,-1,12
 263 438 263 438 309 482 c 1,13,14
 395 568 395 568 495 568 c 0,15,16
 648 568 648 568 685 447 c 1,17,-1
 722 222 l 1,18,19
 755 99 755 99 893 99 c 0,20,21
 999 99 999 99 1082 205 c 0,22,23
 1143 282 1143 282 1200 431 c 1,24,25
 1229 516 1229 516 1257 633 c 1,26,27
 1278 732 1278 732 1278 835 c 0,28,29
 1278 897 1278 897 1270 962 c 0,30,31
 1245 1181 1245 1181 1135 1314 c 1,32,33
 995 1479 995 1479 748 1479 c 1,34,-1
 652 1475 l 1,35,36
 609 1471 609 1471 553 1459 c 1,37,-1
 557 1558 l 1,38,39
 677 1580 677 1580 772 1580 c 0,40,41
 1052 1580 1052 1580 1206 1397 c 0,42,43
 1332 1248 1332 1248 1358 1005 c 0,44,45
 1366 931 1366 931 1366 863 c 0,46,47
 1366 743 1366 743 1344 633 c 1,48,49
 1311 482 1311 482 1279 393 c 0,50,51
 1219 224 1219 224 1133 125 c 0,52,53
 1023 -2 1023 -2 874 -2 c 0,54,55
 694 -2 694 -2 641 119 c 1,56,-1
 606 344 l 1,57,58
 585 467 585 467 472 467 c 0,59,60
 408 467 408 467 353.5 412.5 c 128,-1,61
 299 358 299 358 283 279 c 0,62,63
 278 257 278 257 278 232 c 0,64,65
 278 186 278 186 303 150 c 0,66,67
 340 97 340 97 405 97 c 0,68,69
 424 97 424 97 442 101 c 128,-1,70
 460 105 460 105 482 116 c 0,71,72
 517 134 517 134 549 167 c 1,73,-1
 565 74 l 1,0,1
EndSplineSet
EndChar

StartChar: u0C0F
Encoding: 3087 3087 115
Width: 1365
Flags: W
LayerCount: 2
Fore
SplineSet
1000 1568 m 1,0,1
 911 1568 911 1568 840 1538 c 0,2,3
 745 1498 745 1498 677 1392 c 1,4,5
 663 1367 663 1367 652.5 1347.5 c 128,-1,6
 642 1328 642 1328 631 1302 c 1,7,-1
 603 1202 l 1,8,9
 598 1174 598 1174 593.5 1145.5 c 128,-1,10
 589 1117 589 1117 589 1094 c 0,11,12
 589 1065 589 1065 588 1045 c 128,-1,13
 587 1025 587 1025 587 1024 c 1,14,-1
 502 1024 l 1,15,-1
 510 1130 l 1,16,-1
 522 1212 l 1,17,18
 529 1241 529 1241 536 1269 c 128,-1,19
 543 1297 543 1297 553.5 1325 c 128,-1,20
 564 1353 564 1353 569 1367 c 1,21,22
 583 1397 583 1397 606 1434 c 0,23,24
 690 1568 690 1568 813 1625 c 1,25,26
 910 1668 910 1668 1022 1668 c 1,27,-1
 1000 1568 l 1,0,1
890 2 m 1,28,29
 711 2 711 2 657 123 c 1,30,-1
 618 348 l 1,31,32
 595 471 595 471 484 471 c 0,33,34
 420 471 420 471 365.5 416.5 c 128,-1,35
 311 362 311 362 295 283 c 0,36,37
 290 261 290 261 290 236 c 0,38,39
 290 190 290 190 315 154 c 0,40,41
 352 101 352 101 419 101 c 0,42,43
 440 101 440 101 457.5 105 c 128,-1,44
 475 109 475 109 496 120 c 0,45,46
 531 138 531 138 563 171 c 1,47,-1
 578 76 l 1,48,49
 496 2 496 2 398 2 c 0,50,51
 296 2 296 2 240 84 c 0,52,53
 201 140 201 140 201 214 c 0,54,55
 201 243 201 243 208 282 c 0,56,57
 220 343 220 343 246.5 391 c 128,-1,58
 273 439 273 439 319 483 c 1,59,60
 405 569 405 569 505 569 c 0,61,62
 658 569 658 569 698 448 c 1,63,64
 706 392 706 392 715.5 335 c 128,-1,65
 725 278 725 278 736 224 c 1,66,67
 769 101 769 101 908 101 c 0,68,69
 1032 101 1032 101 1123 210 c 0,70,71
 1202 306 1202 306 1237 472 c 0,72,73
 1258 571 1258 571 1258 671 c 0,74,75
 1258 798 1258 798 1233.5 896 c 128,-1,76
 1209 994 1209 994 1155 1073 c 1,77,78
 1038 1249 1038 1249 828 1249 c 1,79,-1
 843 1347 l 1,80,-1
 865 1348 l 1,81,-1
 883 1348 l 2,82,83
 1104 1348 1104 1348 1234 1145 c 1,84,85
 1347 964 1347 964 1347 691 c 1,86,-1
 1340 592 l 2,87,88
 1338 566 1338 566 1336 551 c 128,-1,89
 1334 536 1334 536 1326 492 c 1,90,91
 1280 280 1280 280 1168 146 c 0,92,93
 1047 1 1047 1 890 2 c 1,28,29
EndSplineSet
EndChar

StartChar: u0C10
Encoding: 3088 3088 116
Width: 1359
Flags: W
LayerCount: 2
Fore
SplineSet
1222 435 m 1,0,1
 1231 481 1231 481 1235.5 520.5 c 128,-1,2
 1240 560 1240 560 1240 602 c 0,3,4
 1240 684 1240 684 1218 741 c 1,5,6
 1176 857 1176 857 1063 857 c 0,7,8
 989 857 989 857 928 811 c 1,9,10
 886 776 886 776 850 715 c 1,11,-1
 772 715 l 1,12,13
 754 779 754 779 733 807 c 1,14,15
 689 857 689 857 587 857 c 0,16,17
 505 857 505 857 441 792 c 0,18,19
 385 736 385 736 376 680 c 2,20,-1
 374 668 l 1,21,-1
 375 661 l 1,22,-1
 294 661 l 1,23,24
 293 669 293 669 293 674 c 0,25,26
 293 678 293 678 295 692 c 0,27,28
 313 778 313 778 385 856 c 0,29,30
 477 956 477 956 608 956 c 0,31,32
 708 956 708 956 764 917 c 0,33,34
 800 892 800 892 832 831 c 1,35,36
 882 891 882 891 932 919 c 0,37,38
 999 956 999 956 1084 956 c 0,39,40
 1229 956 1229 956 1292 815 c 0,41,42
 1328 736 1328 736 1328 627 c 0,43,44
 1328 536 1328 536 1306 433 c 0,45,46
 1262 229 1262 229 1149 109 c 1,47,48
 1043 -1 1043 -1 923 -1 c 0,49,50
 754 -1 754 -1 696 120 c 1,51,-1
 649 345 l 2,52,53
 624 468 624 468 524 468 c 0,54,55
 460 468 460 468 405.5 413.5 c 128,-1,56
 351 359 351 359 335 280 c 0,57,58
 330 258 330 258 330 233 c 0,59,60
 330 187 330 187 355 151 c 0,61,62
 392 98 392 98 457 98 c 0,63,64
 476 98 476 98 494 102 c 128,-1,65
 512 106 512 106 534 117 c 0,66,67
 570 135 570 135 599 168 c 1,68,-1
 615 73 l 1,69,70
 578 40 578 40 529 18 c 1,71,72
 510 11 510 11 483.5 5.5 c 128,-1,73
 457 0 457 0 435 0 c 0,74,75
 335 0 335 0 279 82 c 0,76,77
 240 138 240 138 240 212 c 0,78,79
 240 241 240 241 247 280 c 0,80,81
 259 341 259 341 285.5 389 c 128,-1,82
 312 437 312 437 358 481 c 1,83,84
 444 567 444 567 544 567 c 0,85,86
 698 567 698 567 735 446 c 1,87,-1
 771 221 l 1,88,89
 804 98 804 98 942 98 c 0,90,91
 1028 98 1028 98 1102 184 c 1,92,93
 1186 279 1186 279 1222 435 c 1,0,1
EndSplineSet
EndChar

StartChar: u0C12
Encoding: 3090 3090 117
Width: 1299
Flags: W
LayerCount: 2
Fore
SplineSet
1181 473 m 1,0,1
 1218 408 1218 408 1218 334 c 0,2,3
 1218 295 1218 295 1211 266 c 0,4,5
 1188 156 1188 156 1104 82 c 1,6,7
 1016 3 1016 3 889 3 c 0,8,9
 779 3 779 3 721 49 c 0,10,11
 675 86 675 86 657 157 c 1,12,13
 599 85 599 85 528 48 c 0,14,15
 446 4 446 4 354 4 c 0,16,17
 272 4 272 4 223 75 c 1,18,19
 194 124 194 124 194 188 c 0,20,21
 194 216 194 216 201 255 c 1,22,23
 226 369 226 369 315 444 c 1,24,25
 372 494 372 494 505 557 c 1,26,27
 629 614 629 614 665 650 c 1,28,29
 681 668 681 668 693.5 691 c 128,-1,30
 706 714 706 714 710.5 735 c 128,-1,31
 715 756 715 756 715 771 c 0,32,33
 715 804 715 804 690 827 c 1,34,35
 655 857 655 857 587 857 c 0,36,37
 476 857 476 857 426 776 c 1,38,-1
 410 737 l 1,39,-1
 325 737 l 1,40,41
 354 814 354 814 379 847 c 0,42,43
 461 957 461 957 609 957 c 0,44,45
 721 957 721 957 771 897 c 1,46,47
 806 858 806 858 806 795 c 0,48,49
 806 772 806 772 799 737 c 0,50,51
 788 687 788 687 766 645 c 128,-1,52
 744 603 744 603 705 568 c 0,53,54
 642 512 642 512 522 463 c 1,55,56
 438 431 438 431 375 378 c 1,57,58
 304 320 304 320 288 252 c 1,59,60
 284 229 284 229 284 210 c 0,61,62
 284 174 284 174 300 145 c 0,63,64
 323 104 323 104 374 104 c 0,65,66
 464 104 464 104 542 159 c 0,67,68
 606 205 606 205 650 289 c 1,69,-1
 729 289 l 1,70,71
 729 246 729 246 736.5 214.5 c 128,-1,72
 744 183 744 183 758 164 c 1,73,74
 797 104 797 104 908 104 c 0,75,76
 989 104 989 104 1046 155.5 c 128,-1,77
 1103 207 1103 207 1119 281 c 0,78,79
 1124 303 1124 303 1124 328 c 0,80,81
 1124 340 1124 340 1121.5 358 c 128,-1,82
 1119 376 1119 376 1101 408 c 1,83,-1
 1181 473 l 1,0,1
EndSplineSet
EndChar

StartChar: u0C13
Encoding: 3091 3091 118
Width: 1299
Flags: W
LayerCount: 2
Fore
SplineSet
541 951 m 1,0,1
 529 997 529 997 529 1044 c 1,2,-1
 537 1133 l 1,3,4
 553 1208 553 1208 596 1275 c 0,5,6
 615 1305 615 1305 629.5 1323 c 128,-1,7
 644 1341 644 1341 672 1366 c 1,8,-1
 719 1295 l 1,9,10
 691 1272 691 1272 665.5 1231 c 128,-1,11
 640 1190 640 1190 625 1130 c 1,12,13
 618 1097 618 1097 618 1050 c 0,14,15
 618 1013 618 1013 634 960 c 1,16,17
 729 952 729 952 771 892 c 0,18,19
 800 850 800 850 800 794 c 0,20,21
 800 779 800 779 800 764 c 1,22,23
 796 749 796 749 795 744 c 0,24,25
 772 641 772 641 697 567 c 1,26,27
 634 509 634 509 513 451 c 1,28,29
 424 411 424 411 368 369 c 0,30,31
 297 315 297 315 283 258 c 0,32,33
 278 236 278 236 278 211 c 0,34,35
 278 176 278 176 293 148 c 1,36,37
 318 108 318 108 371 108 c 0,38,39
 456 108 456 108 530 161 c 128,-1,40
 604 214 604 214 648 293 c 1,41,-1
 727 293 l 1,42,43
 727 250 727 250 734.5 218.5 c 128,-1,44
 742 187 742 187 756 168 c 1,45,46
 795 108 795 108 906 108 c 0,47,48
 987 108 987 108 1044 159.5 c 128,-1,49
 1101 211 1101 211 1117 285 c 0,50,51
 1122 307 1122 307 1122 332 c 0,52,53
 1122 344 1122 344 1119.5 362 c 128,-1,54
 1117 380 1117 380 1099 412 c 1,55,-1
 1176 477 l 1,56,57
 1199 438 1199 438 1207 382 c 0,58,59
 1209 370 1209 370 1209 359 c 128,-1,60
 1209 348 1209 348 1209 337 c 0,61,62
 1209 305 1209 305 1204 279 c 0,63,64
 1181 167 1181 167 1096 90 c 1,65,66
 1001 6 1001 6 884 6 c 0,67,68
 774 6 774 6 716 52 c 0,69,70
 670 89 670 89 652 160 c 1,71,72
 594 88 594 88 523 51 c 0,73,74
 441 7 441 7 349 7 c 0,75,76
 261 7 261 7 218 72 c 1,77,78
 188 121 188 121 188 182 c 0,79,80
 188 217 188 217 196 257 c 0,81,82
 218 362 218 362 307 436 c 1,83,84
 363 480 363 480 497 545 c 1,85,86
 582 581 582 581 637 627.5 c 128,-1,87
 692 674 692 674 708 744 c 1,88,89
 710 763 710 763 710 770 c 0,90,91
 710 807 710 807 684 829 c 0,92,93
 649 859 649 859 579 859 c 0,94,95
 486 859 486 859 436 796 c 1,96,97
 429 785 429 785 427 778 c 1,98,99
 406 741 406 741 404 734 c 1,100,-1
 322 742 l 1,101,102
 341 805 341 805 362 834 c 1,103,104
 423 930 423 930 541 951 c 1,0,1
EndSplineSet
EndChar

StartChar: u0C14
Encoding: 3092 3092 119
Width: 1299
Flags: W
LayerCount: 2
Fore
SplineSet
1352 1020 m 0,0,1
 1354 1029 1354 1029 1354 1048 c 0,2,3
 1354 1071 1354 1071 1343 1087 c 0,4,5
 1324 1115 1324 1115 1291 1115 c 256,6,7
 1258 1115 1258 1115 1225 1086 c 1,8,9
 1197 1059 1197 1059 1188 1019 c 1,10,11
 1186 1003 1186 1003 1186 995 c 0,12,13
 1186 973 1186 973 1198 954 c 1,14,15
 1217 928 1217 928 1252 928 c 0,16,17
 1284 928 1284 928 1314.5 954.5 c 128,-1,18
 1345 981 1345 981 1352 1020 c 0,0,1
1145 1119 m 1,19,-1
 885 1119 l 1,20,-1
 890 1080 l 1,21,-1
 886 1036 l 1,22,23
 881 1008 881 1008 873 988 c 128,-1,24
 865 968 865 968 850 949 c 0,25,26
 825 916 825 916 786 893 c 1,27,28
 808 861 808 861 808 810 c 0,29,30
 808 799 808 799 808 788 c 1,31,32
 803 762 803 762 802 748 c 1,33,34
 777 636 777 636 702 565 c 1,35,36
 649 517 649 517 521 456 c 1,37,-1
 377 386 l 1,38,39
 310 342 310 342 291 264 c 0,40,41
 286 242 286 242 286 217 c 0,42,43
 286 182 286 182 302 154 c 0,44,45
 328 111 328 111 377 111 c 0,46,47
 462 111 462 111 541 168 c 0,48,49
 612 218 612 218 654 299 c 1,50,-1
 733 299 l 1,51,52
 744 203 744 203 763 173 c 0,53,54
 800 112 800 112 911 112 c 0,55,56
 989 112 989 112 1049 166.5 c 128,-1,57
 1109 221 1109 221 1125 296 c 0,58,59
 1130 317 1130 317 1130 340 c 0,60,61
 1130 382 1130 382 1107 417 c 1,62,-1
 1179 488 l 1,63,64
 1216 430 1216 430 1216 356 c 0,65,66
 1216 337 1216 337 1216 318 c 1,67,68
 1212 302 1212 302 1211 294 c 0,69,70
 1186 181 1186 181 1101 100 c 1,71,72
 1008 14 1008 14 890 14 c 0,73,74
 781 14 781 14 721 61 c 0,75,76
 675 98 675 98 657 170 c 1,77,78
 601 102 601 102 523 57.5 c 128,-1,79
 445 13 445 13 353 13 c 0,80,81
 271 13 271 13 222 84 c 1,82,83
 193 130 193 130 193 194 c 0,84,85
 193 226 193 226 201 266 c 0,86,87
 230 404 230 404 316 464 c 1,88,-1
 500 552 l 1,89,90
 586 589 586 589 635 632 c 0,91,92
 692 682 692 682 706 750 c 0,93,94
 708 761 708 761 708 780 c 0,95,96
 708 817 708 817 685 836 c 1,97,98
 653 865 653 865 583 865 c 0,99,100
 498 865 498 865 444 802 c 0,101,102
 437 794 437 794 423 769 c 0,103,104
 415 754 415 754 407 740 c 1,105,-1
 322 740 l 1,106,-1
 336 779 l 1,107,108
 358 826 358 826 395 865 c 1,109,-1
 352 865 l 1,110,-1
 373 965 l 1,111,-1
 717 965 l 2,112,113
 743 965 743 965 766.5 983.5 c 128,-1,114
 790 1002 790 1002 799 1038 c 0,115,116
 800 1043 800 1043 800 1048.5 c 128,-1,117
 800 1054 800 1054 800 1056 c 0,118,119
 800 1076 800 1076 789 1091 c 0,120,121
 774 1110 774 1110 752 1118 c 1,122,-1
 408 1118 l 1,123,-1
 427 1214 l 1,124,-1
 1310 1214 l 2,125,126
 1380 1214 1380 1214 1416 1157 c 1,127,128
 1442 1118 1442 1118 1442 1067 c 0,129,130
 1442 1058 1442 1058 1440 1044 c 128,-1,131
 1438 1030 1438 1030 1437 1022 c 0,132,133
 1421 945 1421 945 1359.5 888 c 128,-1,134
 1298 831 1298 831 1230 831 c 0,135,136
 1163 831 1163 831 1121 887 c 1,137,138
 1098 924 1098 924 1098 975 c 0,139,140
 1098 996 1098 996 1102 1021 c 1,141,142
 1113 1067 1113 1067 1145 1119 c 1,19,-1
EndSplineSet
EndChar

StartChar: u0C15.base
Encoding: 65539 -1 121
Width: 1233
Flags: W
LayerCount: 2
Fore
SplineSet
1155 312 m 1,0,1
 1120 137 1120 137 945 59 c 0,2,3
 815 1 815 1 614 1 c 0,4,5
 399 1 399 1 290 135 c 1,6,7
 220 224 220 224 220 324 c 0,8,9
 220 343 220 343 221 353.5 c 128,-1,10
 222 364 222 364 226 389 c 1,11,-1
 312 389 l 1,12,13
 308 368 308 368 308 347 c 0,14,15
 308 268 308 268 375 197 c 0,16,17
 467 98 467 98 633 98 c 0,18,19
 795 98 795 98 900 137 c 0,20,21
 1041 190 1041 190 1067 311 c 0,22,23
 1072 333 1072 333 1072 355 c 0,24,25
 1072 440 1072 440 984 469 c 0,26,27
 916 492 916 492 732 492 c 2,28,-1
 651 492 l 2,29,30
 482 492 482 492 420 524.5 c 128,-1,31
 358 557 358 557 358 646 c 0,32,33
 358 664 358 664 359 674.5 c 128,-1,34
 360 685 360 685 364 711 c 1,35,36
 387 821 387 821 464 875 c 0,37,38
 574 953 574 953 806 953 c 0,39,40
 1004 953 1004 953 1088 865 c 1,41,42
 1138 815 1138 815 1138 757 c 0,43,44
 1138 742 1138 742 1134 726 c 1,45,-1
 1049 726 l 1,46,47
 1057 765 1057 765 1004 804 c 1,48,49
 933 854 933 854 785 854 c 0,50,51
 608 854 608 854 527 810 c 1,52,53
 465 778 465 778 450 713 c 0,54,55
 446 694 446 694 446 680 c 0,56,57
 446 633 446 633 483 612 c 128,-1,58
 520 591 520 591 615 591 c 1,59,-1
 682 592 l 1,60,-1
 754 593 l 1,61,62
 1036 593 1036 593 1114 515 c 0,63,64
 1160 469 1160 469 1160 387 c 0,65,66
 1160 352 1160 352 1155 312 c 1,0,1
EndSplineSet
AnchorPoint: "BLW" 203 0 basechar 0
AnchorPoint: "BR" 368 188 basechar 0
AnchorPoint: "V" 200 446 basechar 0
Ligature2: "'blws' Below Base Substitutions in Telugu lookup 3 subtable" u0C15.base u0C30.sub
MultipleSubs2: "Multiple Substitution lookup 13 subtable" u0C30.sub.alt u0C15.base
LCarets2: 1 0 
GlyphClass: 2

EndChar

StartChar: u0C15.sub
Encoding: 65540 -1 122
Width: 1124
Flags: W
LayerCount: 2
Fore
SplineSet
1083 0 m 1,0,-1
 642 0 l 1,1,2
 661 -74 661 -74 661 -155 c 0,3,4
 661 -237 661 -237 645 -328 c 1,5,6
 610 -490 610 -490 514 -590 c 1,7,8
 401 -706 401 -706 214 -706 c 0,9,10
 76 -706 76 -706 -7 -604 c 1,11,12
 -71 -523 -71 -523 -71 -402 c 0,13,14
 -71 -362 -71 -362 -69 -344.5 c 128,-1,15
 -67 -327 -67 -327 -60 -295 c 0,16,17
 -33 -164 -33 -164 25 -58 c 128,-1,18
 83 48 83 48 242 202 c 0,19,20
 366 322 366 322 387 347 c 1,21,22
 448 425 448 425 475 548 c 0,23,24
 489 609 489 609 489 665 c 0,25,26
 489 754 489 754 445 805.5 c 128,-1,27
 401 857 401 857 317 857 c 1,28,-1
 292 856 l 1,29,-1
 277 854 l 1,30,-1
 298 952 l 1,31,-1
 321 956 l 1,32,-1
 357 957 l 1,33,34
 463 957 463 957 524 890 c 1,35,36
 577 826 577 826 577 707 c 0,37,38
 577 635 577 635 559 549 c 1,39,40
 537 450 537 450 502 379 c 1,41,42
 483 346 483 346 461 314.5 c 128,-1,43
 439 283 439 283 410 254 c 2,44,-1
 289 135 l 2,45,46
 233 80 233 80 192.5 36 c 128,-1,47
 152 -8 152 -8 131 -38 c 0,48,49
 57 -143 57 -143 24 -292 c 0,50,51
 15 -332 15 -332 15 -374 c 0,52,53
 15 -460 15 -460 66 -524 c 0,54,55
 129 -602 129 -602 236 -602 c 0,56,57
 373 -602 373 -602 459 -512 c 1,58,59
 528 -435 528 -435 557 -305 c 1,60,61
 562 -276 562 -276 566 -241 c 128,-1,62
 570 -206 570 -206 570 -176 c 0,63,64
 570 -160 570 -160 570 -145 c 1,65,66
 568 -130 568 -130 568 -125 c 0,67,68
 568 -82 568 -82 559 -48.5 c 128,-1,69
 550 -15 550 -15 532 14 c 1,70,-1
 581 100 l 1,71,-1
 1103 100 l 1,72,-1
 1083 0 l 1,0,-1
EndSplineSet
AnchorPoint: "BR" 0 188 mark 0
Ligature2: "'blwf' Below Base Form (sub)" u0C15 u0C4D
LCarets2: 1 0 

EndChar

StartChar: u0C15_u0C4D_u0C37.base
Encoding: 65542 -1 124
Width: 1233
Flags: W
LayerCount: 2
Fore
SplineSet
926 -251 m 1,0,1
 926 -309 926 -309 951 -344 c 1,2,3
 976 -373 976 -373 1032 -373 c 1,4,-1
 1014 -459 l 1,5,6
 939 -459 939 -459 899.5 -430.5 c 128,-1,7
 860 -402 860 -402 844 -331 c 1,8,9
 818 -350 818 -350 775.5 -362.5 c 128,-1,10
 733 -375 733 -375 689 -375 c 0,11,12
 628 -375 628 -375 586 -350 c 1,13,14
 549 -325 549 -325 526 -285 c 1,15,16
 491 -325 491 -325 435 -350 c 1,17,18
 385 -375 385 -375 301 -375 c 0,19,20
 160 -375 160 -375 127 -256 c 1,21,22
 123 -237 123 -237 120.5 -219 c 128,-1,23
 118 -201 118 -201 118 -179 c 0,24,25
 118 -140 118 -140 129 -87 c 1,26,-1
 215 -87 l 1,27,28
 204 -136 204 -136 204 -169 c 0,29,30
 204 -187 204 -187 208 -203 c 1,31,32
 223 -289 223 -289 319 -289 c 0,33,34
 417 -289 417 -289 467 -225 c 1,35,36
 476 -211 476 -211 482 -198 c 128,-1,37
 488 -185 488 -185 496 -162 c 1,38,-1
 584 -151 l 1,39,40
 584 -190 584 -190 596 -220 c 0,41,42
 625 -289 625 -289 706 -289 c 0,43,44
 780 -289 780 -289 830 -245 c 1,45,46
 883 -202 883 -202 901 -112 c 1,47,-1
 902 -101 l 1,48,-1
 903 -94 l 1,49,-1
 991 -82 l 1,50,-1
 989 -103 l 1,51,52
 982 -133 982 -133 979.5 -144 c 128,-1,53
 977 -155 977 -155 969 -173 c 1,54,55
 960 -203 960 -203 926 -251 c 1,0,1
1157 315 m 1,56,57
 1122 140 1122 140 947 62 c 0,58,59
 817 4 817 4 616 4 c 0,60,61
 401 4 401 4 292 138 c 1,62,63
 222 227 222 227 222 327 c 0,64,65
 222 346 222 346 223 356.5 c 128,-1,66
 224 367 224 367 228 392 c 1,67,-1
 314 392 l 1,68,69
 310 371 310 371 310 350 c 0,70,71
 310 272 310 272 377 201 c 0,72,73
 470 104 470 104 635 104 c 0,74,75
 849 104 849 104 961 168 c 0,76,77
 1049 218 1049 218 1070 314 c 0,78,79
 1075 336 1075 336 1075 358 c 0,80,81
 1075 443 1075 443 987 472 c 0,82,83
 919 495 919 495 735 495 c 2,84,-1
 654 495 l 2,85,86
 485 495 485 495 423 527.5 c 128,-1,87
 361 560 361 560 361 649 c 0,88,89
 361 667 361 667 362 677.5 c 128,-1,90
 363 688 363 688 367 714 c 1,91,92
 390 824 390 824 467 878 c 0,93,94
 577 956 577 956 809 956 c 0,95,96
 1007 956 1007 956 1091 868 c 1,97,98
 1141 818 1141 818 1141 760 c 0,99,100
 1141 745 1141 745 1137 729 c 1,101,-1
 1052 729 l 1,102,103
 1060 768 1060 768 1007 807 c 1,104,105
 936 857 936 857 788 857 c 0,106,107
 611 857 611 857 530 813 c 1,108,109
 468 781 468 781 453 716 c 0,110,111
 449 697 449 697 449 683 c 0,112,113
 449 636 449 636 486 615 c 128,-1,114
 523 594 523 594 618 594 c 1,115,-1
 685 595 l 1,116,-1
 757 596 l 1,117,118
 1039 596 1039 596 1117 518 c 0,119,120
 1163 472 1163 472 1163 390 c 0,121,122
 1163 355 1163 355 1157 315 c 1,56,57
EndSplineSet
AnchorPoint: "BR" 365 188 basechar 0
AnchorPoint: "V" 196 446 basechar 0
Ligature2: "'blws' Below Base Substitutions in Telugu lookup 3 subtable" u0C15_u0C4D_u0C37.base u0C30.sub
MultipleSubs2: "Multiple Substitution lookup 13 subtable" u0C30.sub.alt u0C15_u0C4D_u0C37.base
LCarets2: 1 0 
GlyphClass: 2

EndChar

StartChar: u0C16
Encoding: 3094 3094 125
Width: 1433
Flags: W
LayerCount: 2
Fore
SplineSet
690 237 m 1,0,1
 647 284 647 284 597 309 c 1,2,3
 533 339 533 339 455 339 c 0,4,5
 385 339 385 339 338.5 307.5 c 128,-1,6
 292 276 292 276 280 225 c 1,7,8
 278 211 278 211 278 203 c 0,9,10
 278 164 278 164 313 135 c 1,11,12
 356 101 356 101 434 101 c 0,13,14
 511 101 511 101 571 135.5 c 128,-1,15
 631 170 631 170 690 237 c 1,0,1
596 716 m 0,16,17
 597 721 597 721 597 726.5 c 128,-1,18
 597 732 597 732 597 734 c 0,19,20
 597 757 597 757 588 772 c 1,21,22
 572 795 572 795 540 795 c 0,23,24
 510 795 510 795 487 772 c 1,25,26
 461 750 461 750 456.5 723.5 c 128,-1,27
 452 697 452 697 452 692 c 0,28,29
 452 673 452 673 461 658 c 1,30,31
 476 636 476 636 508 636 c 0,32,33
 537 636 537 636 562.5 658 c 128,-1,34
 588 680 588 680 596 716 c 0,16,17
632 909 m 1,35,36
 809 909 809 909 881 790 c 0,37,38
 923 720 923 720 923 622 c 0,39,40
 923 569 923 569 909 504 c 128,-1,41
 895 439 895 439 868.5 375 c 128,-1,42
 842 311 842 311 802 254 c 1,43,44
 863 172 863 172 891 150 c 1,45,46
 948 102 948 102 1023 102 c 0,47,48
 1116 102 1116 102 1190.5 195 c 128,-1,49
 1265 288 1265 288 1295 436 c 1,50,51
 1314 520 1314 520 1314 602 c 0,52,53
 1314 674 1314 674 1293 735 c 0,54,55
 1253 852 1253 852 1127 852 c 1,56,-1
 1142 949 l 1,57,58
 1304 949 1304 949 1367 801 c 0,59,60
 1402 719 1402 719 1402 610 c 0,61,62
 1402 529 1402 529 1381 434 c 1,63,64
 1342 247 1342 247 1239.5 123.5 c 128,-1,65
 1137 0 1137 0 1000 0 c 0,66,67
 908 0 908 0 838 56 c 0,68,69
 784 98 784 98 744 177 c 1,70,71
 709 135 709 135 674 106 c 128,-1,72
 639 77 639 77 596 51 c 1,73,74
 508 1 508 1 412 1 c 0,75,76
 298 1 298 1 235 69 c 1,77,78
 189 122 189 122 189 186 c 0,79,80
 189 205 189 205 193 226 c 0,81,82
 211 311 211 311 289 374 c 128,-1,83
 367 437 367 437 476 437 c 0,84,85
 573 437 573 437 641 401 c 0,86,87
 695 373 695 373 744 312 c 1,88,89
 770 355 770 355 788 399 c 0,90,91
 796 420 796 420 803.5 445.5 c 128,-1,92
 811 471 811 471 817 498 c 128,-1,93
 823 525 823 525 825.5 548 c 128,-1,94
 828 571 828 571 828 596 c 0,95,96
 828 652 828 652 810 692 c 0,97,98
 775 771 775 771 675 797 c 1,99,100
 682 778 682 778 682 750 c 0,101,102
 682 732 682 732 678 713 c 0,103,104
 662 638 662 638 604 587 c 128,-1,105
 546 536 546 536 481 536 c 0,106,107
 418 536 418 536 381 586 c 1,108,109
 358 622 358 622 358 668 c 0,110,111
 358 677 358 677 358.5 684 c 128,-1,112
 359 691 359 691 363 712 c 0,113,114
 382 805 382 805 454 855 c 128,-1,115
 526 905 526 905 632 909 c 1,35,36
709 -272 m 1,116,-1
 565 -272 l 1,117,-1
 664 -9 l 1,118,-1
 721 -9 l 1,119,-1
 709 -272 l 1,116,-1
EndSplineSet
AnchorPoint: "BR" 578 188 basechar 0
AnchorPoint: "BLW" 298 0 basechar 0
Ligature2: "'blws' Below Base Substitutions in Telugu lookup 3 subtable" u0C16 u0C30.sub
AlternateSubs2: "Alternate Substitution lookup 14 subtable" u0C16.base
MultipleSubs2: "Multiple Substitution lookup 13 subtable" u0C30.sub.alt u0C16

EndChar

StartChar: u0C16.base
Encoding: 65543 -1 126
Width: 1433
Flags: W
LayerCount: 2
Fore
SplineSet
690 237 m 1,0,1
 647 284 647 284 597 309 c 1,2,3
 533 339 533 339 455 339 c 0,4,5
 385 339 385 339 338.5 307.5 c 128,-1,6
 292 276 292 276 280 225 c 1,7,8
 278 211 278 211 278 203 c 0,9,10
 278 164 278 164 313 135 c 1,11,12
 356 101 356 101 434 101 c 0,13,14
 511 101 511 101 571 135.5 c 128,-1,15
 631 170 631 170 690 237 c 1,0,1
596 716 m 0,16,17
 597 721 597 721 597 726.5 c 128,-1,18
 597 732 597 732 597 734 c 0,19,20
 597 757 597 757 588 772 c 1,21,22
 572 795 572 795 540 795 c 0,23,24
 510 795 510 795 487 772 c 1,25,26
 461 750 461 750 456.5 723.5 c 128,-1,27
 452 697 452 697 452 692 c 0,28,29
 452 673 452 673 461 658 c 1,30,31
 476 636 476 636 508 636 c 0,32,33
 537 636 537 636 562.5 658 c 128,-1,34
 588 680 588 680 596 716 c 0,16,17
632 909 m 1,35,36
 809 909 809 909 881 790 c 0,37,38
 923 720 923 720 923 622 c 0,39,40
 923 569 923 569 908 500 c 0,41,42
 880 369 880 369 806 257 c 1,43,44
 883 154 883 154 919 131 c 0,45,46
 963 102 963 102 1023 102 c 0,47,48
 1116 102 1116 102 1192 199.5 c 128,-1,49
 1268 297 1268 297 1298 446 c 1,50,51
 1312 510 1312 510 1312 571 c 0,52,53
 1312 653 1312 653 1282 718 c 0,54,55
 1219 856 1219 856 1040 856 c 1,56,-1
 1061 956 l 1,57,58
 1286 956 1286 956 1365 786 c 1,59,60
 1402 704 1402 704 1402 599 c 0,61,62
 1402 535 1402 535 1384 445 c 1,63,64
 1344 259 1344 259 1234 124 c 1,65,66
 1131 0 1131 0 1001 0 c 0,67,68
 936 0 936 0 882 33 c 0,69,70
 842 58 842 58 749 176 c 1,71,72
 682 95 682 95 594 47 c 128,-1,73
 506 -1 506 -1 414 -1 c 0,74,75
 300 -1 300 -1 237 67 c 1,76,77
 191 120 191 120 191 184 c 0,78,79
 191 203 191 203 195 224 c 0,80,81
 213 309 213 309 291 372 c 128,-1,82
 369 435 369 435 478 435 c 0,83,84
 575 435 575 435 643 399 c 0,85,86
 697 371 697 371 746 310 c 1,87,88
 772 353 772 353 790 397 c 0,89,90
 798 418 798 418 805.5 443.5 c 128,-1,91
 813 469 813 469 819 496 c 128,-1,92
 825 523 825 523 827.5 546 c 128,-1,93
 830 569 830 569 830 594 c 0,94,95
 830 650 830 650 812 690 c 0,96,97
 777 769 777 769 677 795 c 1,98,99
 684 776 684 776 684 748 c 0,100,101
 684 730 684 730 680 711 c 0,102,103
 664 636 664 636 606 585 c 128,-1,104
 548 534 548 534 483 534 c 0,105,106
 420 534 420 534 383 584 c 1,107,108
 360 620 360 620 360 666 c 0,109,110
 360 675 360 675 360.5 682 c 128,-1,111
 361 689 361 689 365 710 c 0,112,113
 386 806 386 806 457 855 c 128,-1,114
 528 904 528 904 632 909 c 1,35,36
711 -273 m 1,115,-1
 567 -273 l 1,116,-1
 666 -10 l 1,117,-1
 723 -10 l 1,118,-1
 711 -273 l 1,115,-1
EndSplineSet
AnchorPoint: "BLW" 306 0 basechar 0
AnchorPoint: "BR" 580 188 basechar 0
AnchorPoint: "V" 391 457.5 basechar 0
Ligature2: "'blws' Below Base Substitutions in Telugu lookup 3 subtable" u0C16.base u0C30.sub
MultipleSubs2: "Multiple Substitution lookup 13 subtable" u0C30.sub.alt u0C16.base
LCarets2: 1 0 
GlyphClass: 2

EndChar

StartChar: u0C16.sub
Encoding: 65544 -1 127
Width: 28
Flags: W
LayerCount: 2
Fore
SplineSet
-373 -679 m 1,0,1
 -402 -814 -402 -814 -473 -900 c 128,-1,2
 -544 -986 -544 -986 -646 -986 c 0,3,4
 -707 -986 -707 -986 -744 -954 c 0,5,6
 -767 -935 -767 -935 -800 -878 c 1,7,8
 -851 -927 -851 -927 -909 -959 c 0,9,10
 -937 -974 -937 -974 -966 -981.5 c 128,-1,11
 -995 -989 -995 -989 -1025 -989 c 0,12,13
 -1104 -989 -1104 -989 -1146 -938 c 0,14,15
 -1178 -898 -1178 -898 -1178 -855 c 0,16,17
 -1178 -847 -1178 -847 -1176 -828 c 1,18,19
 -1164 -765 -1164 -765 -1110.5 -720.5 c 128,-1,20
 -1057 -676 -1057 -676 -979 -676 c 0,21,22
 -867 -676 -867 -676 -790 -765 c 1,23,24
 -783 -754 -783 -754 -775 -734.5 c 128,-1,25
 -767 -715 -767 -715 -762 -703 c 1,26,-1
 -746 -646 l 1,27,28
 -738 -609 -738 -609 -738 -574 c 0,29,30
 -738 -542 -738 -542 -746 -513 c 1,31,32
 -767 -449 -767 -449 -828 -421 c 1,33,-1
 -830 -475 l 1,34,35
 -842 -528 -842 -528 -884 -565.5 c 128,-1,36
 -926 -603 -926 -603 -972 -603 c 0,37,38
 -1019 -603 -1019 -603 -1042 -566 c 1,39,40
 -1058 -543 -1058 -543 -1058 -511 c 0,41,42
 -1058 -496 -1058 -496 -1054 -477 c 0,43,44
 -1042 -416 -1042 -416 -992 -376 c 1,45,46
 -942 -339 -942 -339 -865 -339 c 0,47,48
 -744 -339 -744 -339 -693 -432 c 1,49,50
 -667 -485 -667 -485 -667 -557 c 0,51,52
 -667 -601 -667 -601 -676 -648 c 1,53,54
 -678 -664 -678 -664 -684 -683.5 c 128,-1,55
 -690 -703 -690 -703 -701 -732 c 1,56,57
 -717 -779 -717 -779 -745 -818 c 1,58,-1
 -694 -879 l 1,59,60
 -662 -908 -662 -908 -625 -908 c 0,61,62
 -558 -908 -558 -908 -506.5 -844.5 c 128,-1,63
 -455 -781 -455 -781 -434 -682 c 0,64,65
 -426 -640 -426 -640 -426 -601 c 0,66,67
 -426 -537 -426 -537 -449 -486 c 1,68,69
 -482 -407 -482 -407 -568 -407 c 1,70,-1
 -557 -329 l 1,71,72
 -444 -329 -444 -329 -395 -420 c 1,73,74
 -360 -481 -360 -481 -360 -591 c 1,75,-1
 -373 -679 l 1,0,1
-820 -1186 m 1,76,-1
 -905 -1186 l 1,77,-1
 -838 -997 l 1,78,-1
 -809 -997 l 1,79,-1
 -820 -1186 l 1,76,-1
-894 -475 m 1,80,81
 -890 -453 -890 -453 -900.5 -440 c 128,-1,82
 -911 -427 -911 -427 -933 -425 c 1,83,84
 -954 -425 -954 -425 -969 -438 c 128,-1,85
 -984 -451 -984 -451 -988 -476 c 1,86,87
 -993 -494 -993 -494 -984 -512 c 1,88,89
 -975 -524 -975 -524 -954 -526 c 1,90,91
 -938 -526 -938 -526 -920.5 -513 c 128,-1,92
 -903 -500 -903 -500 -894 -475 c 1,80,81
-834 -830 m 1,93,94
 -862 -794 -862 -794 -899 -773 c 1,95,96
 -935 -757 -935 -757 -995 -757 c 0,97,98
 -1018 -757 -1018 -757 -1036 -761 c 128,-1,99
 -1054 -765 -1054 -765 -1070 -776 c 1,100,101
 -1100 -794 -1100 -794 -1108 -830 c 0,102,103
 -1109 -835 -1109 -835 -1109 -846 c 0,104,105
 -1109 -871 -1109 -871 -1088 -890 c 1,106,107
 -1058 -913 -1058 -913 -1007 -913 c 0,108,109
 -961 -913 -961 -913 -920 -892 c 128,-1,110
 -879 -871 -879 -871 -834 -830 c 1,93,94
EndSplineSet
AnchorPoint: "BLW" -312 0 mark 0
Ligature2: "'blwf' Below Base Form (sub)" u0C16 u0C4D
LCarets2: 1 0 

EndChar

StartChar: u0C16_u0C3F
Encoding: 65545 -1 128
Width: 1218
Flags: W
LayerCount: 2
Fore
SplineSet
593 716 m 0,0,1
 594 721 594 721 594 726.5 c 128,-1,2
 594 732 594 732 594 734 c 0,3,4
 594 757 594 757 585 772 c 1,5,6
 569 795 569 795 537 795 c 0,7,8
 507 795 507 795 484 772 c 1,9,10
 458 750 458 750 453.5 723.5 c 128,-1,11
 449 697 449 697 449 692 c 0,12,13
 449 673 449 673 458 658 c 1,14,15
 473 636 473 636 505 636 c 0,16,17
 534 636 534 636 559.5 658 c 128,-1,18
 585 680 585 680 593 716 c 0,0,1
697 234 m 1,19,20
 674 259 674 259 652 275.5 c 128,-1,21
 630 292 630 292 602 304 c 0,22,23
 539 333 539 333 456 333 c 0,24,25
 389 333 389 333 340 301 c 128,-1,26
 291 269 291 269 282 219 c 0,27,28
 280 203 280 203 280 196 c 0,29,30
 280 157 280 157 313 132 c 0,31,32
 357 100 357 100 435 100 c 0,33,34
 512 100 512 100 578 134.5 c 128,-1,35
 644 169 644 169 697 234 c 1,19,20
837 1193 m 0,36,37
 841 1212 841 1212 841 1227 c 0,38,39
 841 1243 841 1243 838.5 1252.5 c 128,-1,40
 836 1262 836 1262 828 1280 c 1,41,42
 809 1316 809 1316 765 1316 c 0,43,44
 722 1316 722 1316 686 1280 c 1,45,46
 654 1245 654 1245 642 1191 c 0,47,48
 637 1170 637 1170 637 1148 c 0,49,50
 637 1122 637 1122 648 1100 c 1,51,52
 669 1064 669 1064 712 1064 c 0,53,54
 756 1064 756 1064 790 1099 c 128,-1,55
 824 1134 824 1134 837 1193 c 0,36,37
895 1356 m 1,56,57
 921 1330 921 1330 929 1284 c 0,58,59
 933 1263 933 1263 933 1242 c 0,60,61
 933 1230 933 1230 931 1214 c 128,-1,62
 929 1198 929 1198 928 1189 c 0,63,64
 910 1103 910 1103 840 1037.5 c 128,-1,65
 770 972 770 972 693 972 c 256,66,67
 616 972 616 972 570 1036 c 1,68,69
 542 1083 542 1083 542 1137 c 0,70,71
 542 1149 542 1149 544 1164 c 128,-1,72
 546 1179 546 1179 547 1187 c 0,73,74
 572 1311 572 1311 670 1381.5 c 128,-1,75
 768 1452 768 1452 915 1452 c 0,76,77
 1129 1452 1129 1452 1259 1297 c 0,78,79
 1372 1163 1372 1163 1405 941 c 0,80,81
 1417 855 1417 855 1417 773 c 0,82,83
 1417 668 1417 668 1395 549 c 1,84,85
 1367 419 1367 419 1332 320 c 0,86,87
 1281 179 1281 179 1210 100 c 0,88,89
 1122 1 1122 1 1002 1 c 0,90,91
 900 1 900 1 823 82 c 0,92,93
 805 100 805 100 754 175 c 1,94,95
 719 135 719 135 680.5 104 c 128,-1,96
 642 73 642 73 598 50 c 0,97,98
 510 3 510 3 417 3 c 0,99,100
 298 3 298 3 238 68 c 1,101,102
 194 118 194 118 194 183 c 0,103,104
 194 201 194 201 198 222 c 0,105,106
 214 306 214 306 292 369.5 c 128,-1,107
 370 433 370 433 479 433 c 0,108,109
 530 433 530 433 569.5 426 c 128,-1,110
 609 419 609 419 646 403 c 0,111,112
 702 378 702 378 752 320 c 1,113,114
 766 342 766 342 775 360 c 128,-1,115
 784 378 784 378 793 406 c 1,116,117
 812 450 812 450 821 501 c 0,118,119
 826 527 826 527 828.5 550 c 128,-1,120
 831 573 831 573 831 598 c 0,121,122
 831 654 831 654 813 694 c 0,123,124
 778 773 778 773 678 799 c 1,125,126
 685 780 685 780 685 752 c 0,127,128
 685 734 685 734 681 715 c 0,129,130
 665 640 665 640 607 589 c 128,-1,131
 549 538 549 538 484 538 c 0,132,133
 421 538 421 538 384 588 c 1,134,135
 361 624 361 624 361 670 c 0,136,137
 361 679 361 679 361.5 686 c 128,-1,138
 362 693 362 693 366 714 c 0,139,140
 384 806 384 806 454.5 857 c 128,-1,141
 525 908 525 908 631 908 c 0,142,143
 808 908 808 908 880 789 c 0,144,145
 922 719 922 719 922 621 c 0,146,147
 922 568 922 568 907 499 c 1,148,149
 896 439 896 439 867 368 c 1,150,151
 844 307 844 307 805 249 c 1,152,153
 865 170 865 170 890 149 c 0,154,155
 946 102 946 102 1021 102 c 0,156,157
 1141 102 1141 102 1220 267 c 1,158,159
 1263 360 1263 360 1306 544 c 1,160,161
 1327 644 1327 644 1327 749 c 0,162,163
 1327 814 1327 814 1316 892 c 0,164,165
 1287 1090 1287 1090 1189 1213 c 1,166,167
 1073 1355 1073 1355 895 1356 c 1,56,57
711 -270 m 1,168,-1
 567 -270 l 1,169,-1
 666 -7 l 1,170,-1
 723 -7 l 1,171,-1
 711 -270 l 1,168,-1
EndSplineSet
AnchorPoint: "BLW" 296 0 basechar 0
AnchorPoint: "BR" 576 188 basechar 0
Ligature2: "'psts' Post Base Sub 0C3F short i" u0C16.base u0C3F
LCarets2: 1 0 
GlyphClass: 2

EndChar

StartChar: u0C17.base
Encoding: 65546 -1 130
Width: 1192
Flags: W
LayerCount: 2
Fore
SplineSet
1150 475 m 1,0,1
 1118 317 1118 317 1063.5 202 c 128,-1,2
 1009 87 1009 87 911 -27 c 1,3,-1
 854 29 l 1,4,5
 940 132 940 132 986 231 c 0,6,7
 1007 278 1007 278 1028 341.5 c 128,-1,8
 1049 405 1049 405 1063 474 c 0,9,10
 1072 517 1072 517 1072 561 c 0,11,12
 1072 670 1072 670 1005 752 c 1,13,14
 917 855 917 855 776 855 c 0,15,16
 632 855 632 855 504 752 c 0,17,18
 369 643 369 643 332 473 c 0,19,20
 317 404 317 404 311.5 349.5 c 128,-1,21
 306 295 306 295 306 240 c 0,22,23
 306 148 306 148 352 28 c 1,24,-1
 273 -28 l 1,25,26
 247 39 247 39 232.5 98.5 c 128,-1,27
 218 158 218 158 218 211 c 0,28,29
 218 324 218 324 247 475 c 1,30,31
 293 689 293 689 461 827 c 0,32,33
 620 958 620 958 800 958 c 0,34,35
 974 958 974 958 1083 827 c 1,36,37
 1164 728 1164 728 1164 588 c 0,38,39
 1164 534 1164 534 1150 475 c 1,0,1
EndSplineSet
AnchorPoint: "BLW" 224 0 basechar 0
AnchorPoint: "BR" 426 188 basechar 0
AnchorPoint: "TR" 364 384 basechar 0
AnchorPoint: "V" 230 458 basechar 0
Ligature2: "'blws' Below Base Substitutions in Telugu lookup 3 subtable" u0C17.base u0C30.sub
MultipleSubs2: "Multiple Substitution lookup 13 subtable" u0C30.sub.alt u0C17.base
LCarets2: 1 0 
GlyphClass: 2

EndChar

StartChar: u0C17.sub
Encoding: 65547 -1 131
Width: 28
Flags: W
LayerCount: 2
Fore
SplineSet
-375 -684 m 1,0,1
 -403 -818 -403 -818 -478 -955 c 0,2,3
 -499 -992 -499 -992 -548 -1059 c 1,4,-1
 -606 -1008 l 1,5,-1
 -548 -917 l 1,6,7
 -487 -803 -487 -803 -461 -684 c 0,8,9
 -453 -644 -453 -644 -453 -609 c 0,10,11
 -453 -539 -453 -539 -489 -490 c 1,12,13
 -539 -425 -539 -425 -628 -425 c 0,14,15
 -720 -425 -720 -425 -799 -492 c 128,-1,16
 -878 -559 -878 -559 -907 -685 c 1,17,18
 -922 -755 -922 -755 -922 -834 c 0,19,20
 -922 -855 -922 -855 -922 -869 c 128,-1,21
 -922 -883 -922 -883 -917 -918 c 1,22,23
 -915 -947 -915 -947 -912.5 -959.5 c 128,-1,24
 -910 -972 -910 -972 -899 -1008 c 1,25,-1
 -980 -1059 l 1,26,27
 -984 -1044 -984 -1044 -992 -1009 c 128,-1,28
 -1000 -974 -1000 -974 -1003.5 -952 c 128,-1,29
 -1007 -930 -1007 -930 -1008 -893 c 128,-1,30
 -1009 -856 -1009 -856 -1009 -851 c 0,31,32
 -1009 -769 -1009 -769 -993 -685 c 1,33,34
 -957 -516 -957 -516 -841 -417 c 1,35,36
 -735 -328 -735 -328 -609 -328 c 0,37,38
 -482 -328 -482 -328 -414 -417 c 0,39,40
 -365 -482 -365 -482 -365 -579 c 0,41,42
 -365 -623 -365 -623 -375 -684 c 1,0,1
EndSplineSet
AnchorPoint: "BLW" -364 0 mark 0
Ligature2: "'blwf' Below Base Form (sub)" u0C17 u0C4D
LCarets2: 1 0 

EndChar

StartChar: u0C18.sub
Encoding: 65549 -1 134
Width: 28
Flags: W
LayerCount: 2
Fore
SplineSet
-368 -651 m 0,0,1
 -391 -764 -391 -764 -455 -848 c 0,2,3
 -536 -954 -536 -954 -645 -954 c 0,4,5
 -708 -954 -708 -954 -748 -929 c 1,6,7
 -785 -908 -785 -908 -811 -862 c 1,8,9
 -847 -909 -847 -909 -903 -935 c 1,10,11
 -949 -953 -949 -953 -998 -953 c 0,12,13
 -1123 -953 -1123 -953 -1139 -799 c 1,14,15
 -1139 -728 -1139 -728 -1162 -687.5 c 128,-1,16
 -1185 -647 -1185 -647 -1220 -647 c 0,17,18
 -1262 -647 -1262 -647 -1295.5 -676 c 128,-1,19
 -1329 -705 -1329 -705 -1341 -755 c 0,20,21
 -1345 -771 -1345 -771 -1345 -787 c 0,22,23
 -1345 -813 -1345 -813 -1331 -836 c 0,24,25
 -1312 -869 -1312 -869 -1269 -869 c 0,26,27
 -1251 -869 -1251 -869 -1233.5 -862 c 128,-1,28
 -1216 -855 -1216 -855 -1201 -843 c 1,29,-1
 -1187 -911 l 1,30,31
 -1236 -948 -1236 -948 -1286 -948 c 0,32,33
 -1351 -948 -1351 -948 -1388 -890 c 1,34,35
 -1410 -851 -1410 -851 -1410 -800 c 0,36,37
 -1410 -778 -1410 -778 -1406 -753 c 1,38,39
 -1390 -674 -1390 -674 -1331.5 -619.5 c 128,-1,40
 -1273 -565 -1273 -565 -1203 -565 c 0,41,42
 -1079 -565 -1079 -565 -1065 -717 c 1,43,44
 -1065 -871 -1065 -871 -980 -871 c 0,45,46
 -899 -871 -899 -871 -835 -789 c 1,47,48
 -791 -728 -791 -728 -772 -651 c 0,49,50
 -767 -628 -767 -628 -767 -596 c 0,51,52
 -767 -573 -767 -573 -771 -548.5 c 128,-1,53
 -775 -524 -775 -524 -784 -498 c 0,54,55
 -817 -398 -817 -398 -903 -387 c 1,56,-1
 -887 -310 l 1,57,58
 -756 -310 -756 -310 -712 -444 c 0,59,60
 -697 -491 -697 -491 -697 -555 c 0,61,62
 -697 -605 -697 -605 -706 -652 c 1,63,-1
 -724 -716 l 2,64,65
 -729 -731 -729 -731 -736.5 -747 c 128,-1,66
 -744 -763 -744 -763 -755 -782 c 1,67,68
 -755 -808 -755 -808 -726 -837 c 1,69,70
 -687 -873 -687 -873 -626 -873 c 0,71,72
 -549 -873 -549 -873 -492 -794 c 1,73,74
 -449 -730 -449 -730 -431 -648 c 1,75,76
 -427 -625 -427 -625 -424.5 -605.5 c 128,-1,77
 -422 -586 -422 -586 -422 -567 c 0,78,79
 -422 -527 -422 -527 -434 -491 c 0,80,81
 -463 -396 -463 -396 -562 -396 c 1,82,-1
 -546 -315 l 1,83,84
 -416 -315 -416 -315 -372 -436 c 1,85,86
 -357 -482 -357 -482 -357 -546 c 0,87,88
 -357 -599 -357 -599 -368 -651 c 0,0,1
-1159 -1168 m 1,89,-1
 -1245 -1168 l 1,90,-1
 -1175 -978 l 1,91,-1
 -1147 -978 l 1,92,-1
 -1159 -1168 l 1,89,-1
EndSplineSet
AnchorPoint: "BLW" -372 0 mark 0
Ligature2: "'blwf' Below Base Form (sub)" u0C18 u0C4D
LCarets2: 1 0 

EndChar

StartChar: u0C19
Encoding: 3097 3097 135
Width: 1419
Flags: W
LayerCount: 2
Fore
SplineSet
933 681 m 1,0,-1
 984 926 l 1,1,-1
 1070 926 l 1,2,-1
 1019 681 l 1,3,-1
 1287 681 l 1,4,-1
 1266 585 l 1,5,-1
 728 585 l 1,6,7
 714 571 714 571 689 550 c 128,-1,8
 664 529 664 529 638 511 c 0,9,10
 617 497 617 497 571 474 c 0,11,12
 545 460 545 460 520 446 c 1,13,14
 450 413 450 413 406 367 c 1,15,16
 367 324 367 324 351 254 c 1,17,18
 347 231 347 231 347 212 c 0,19,20
 347 176 347 176 363 147 c 0,21,22
 386 106 386 106 437 106 c 0,23,24
 529 106 529 106 616.5 160.5 c 128,-1,25
 704 215 704 215 743 292 c 1,26,-1
 824 292 l 1,27,28
 824 252 824 252 834.5 223 c 128,-1,29
 845 194 845 194 867 168 c 0,30,31
 918 108 918 108 1031 108 c 0,32,33
 1109 108 1109 108 1165.5 160 c 128,-1,34
 1222 212 1222 212 1241 288 c 0,35,36
 1243 297 1243 297 1243 315 c 128,-1,37
 1243 333 1243 333 1243 342 c 1,38,-1
 1328 393 l 1,39,40
 1332 365 1332 365 1332 337 c 0,41,42
 1332 318 1332 318 1332 299 c 1,43,44
 1328 283 1328 283 1327 275 c 0,45,46
 1305 168 1305 168 1217.5 87 c 128,-1,47
 1130 6 1130 6 1009 6 c 0,48,49
 896 6 896 6 826 52 c 1,50,51
 769 91 769 91 748 160 c 1,52,53
 694 95 694 95 601 49 c 1,54,55
 555 28 555 28 509.5 17 c 128,-1,56
 464 6 464 6 415 6 c 0,57,58
 334 6 334 6 285 77 c 1,59,60
 256 126 256 126 256 190 c 0,61,62
 256 218 256 218 263 257 c 1,63,64
 284 355 284 355 342 425.5 c 128,-1,65
 400 496 400 496 507 546 c 1,66,67
 593 583 593 583 642 625 c 0,68,69
 699 674 699 674 715 742 c 0,70,71
 717 751 717 751 717 767 c 0,72,73
 717 806 717 806 689 828 c 1,74,75
 653 860 653 860 582 860 c 0,76,77
 486 860 486 860 426 795 c 1,78,79
 405 774 405 774 383 730 c 1,80,-1
 299 744 l 1,81,82
 331 816 331 816 363 852 c 0,83,84
 458 961 458 961 603 961 c 0,85,86
 716 961 716 961 767 900 c 1,87,88
 806 860 806 860 806 796 c 0,89,90
 806 784 806 784 806 772 c 1,91,92
 802 753 802 753 801 744 c 2,93,-1
 797 725 l 1,94,-1
 793 704 l 1,95,-1
 788 688 l 1,96,-1
 933 681 l 1,0,-1
EndSplineSet
AnchorPoint: "BR" 505 188 basechar 0
AnchorPoint: "BLW" 264 0 basechar 0
AnchorPoint: "V" 373 451 basechar 0
EndChar

StartChar: u0C19.sub
Encoding: 65550 -1 136
Width: 28
Flags: W
LayerCount: 2
Fore
SplineSet
-683 -571 m 1,0,1
 -701 -593 -701 -593 -717 -608 c 128,-1,2
 -733 -623 -733 -623 -759 -641 c 1,3,4
 -789 -664 -789 -664 -845 -689 c 0,5,6
 -880 -705 -880 -705 -912 -735 c 1,7,8
 -937 -763 -937 -763 -948 -800 c 1,9,10
 -952 -819 -952 -819 -952 -833 c 0,11,12
 -952 -852 -952 -852 -941.5 -874 c 128,-1,13
 -931 -896 -931 -896 -898 -896 c 0,14,15
 -847 -896 -847 -896 -801.5 -863.5 c 128,-1,16
 -756 -831 -756 -831 -728 -785 c 1,17,-1
 -660 -785 l 1,18,19
 -660 -811 -660 -811 -655.5 -829 c 128,-1,20
 -651 -847 -651 -847 -642 -859 c 0,21,22
 -617 -895 -617 -895 -552 -895 c 0,23,24
 -502 -895 -502 -895 -468 -864 c 128,-1,25
 -434 -833 -434 -833 -422 -783 c 0,26,27
 -420 -774 -420 -774 -420 -755 c 0,28,29
 -420 -732 -420 -732 -429 -713 c 1,30,-1
 -369 -662 l 1,31,32
 -350 -704 -350 -704 -350 -747 c 0,33,34
 -350 -759 -350 -759 -352 -773.5 c 128,-1,35
 -354 -788 -354 -788 -355 -796 c 0,36,37
 -370 -870 -370 -870 -427 -922 c 128,-1,38
 -484 -974 -484 -974 -569 -974 c 0,39,40
 -639 -974 -639 -974 -668 -951 c 1,41,42
 -701 -929 -701 -929 -719 -879 c 1,43,44
 -769 -929 -769 -929 -812 -952 c 128,-1,45
 -855 -975 -855 -975 -916 -975 c 0,46,47
 -974 -975 -974 -975 -1002 -926 c 1,48,49
 -1020 -898 -1020 -898 -1020 -854 c 0,50,51
 -1020 -839 -1020 -839 -1020 -824 c 1,52,53
 -1016 -809 -1016 -809 -1015 -802 c 0,54,55
 -1003 -741 -1003 -741 -957 -691 c 0,56,57
 -922 -652 -922 -652 -857 -617 c 1,58,59
 -804 -595 -804 -595 -761 -556 c 1,60,61
 -710 -514 -710 -514 -702 -473 c 0,62,63
 -700 -462 -700 -462 -700 -458 c 0,64,65
 -700 -437 -700 -437 -719 -421 c 1,66,67
 -744 -403 -744 -403 -787 -403 c 0,68,69
 -829 -403 -829 -403 -862 -428 c 1,70,71
 -880 -443 -880 -443 -891 -468 c 1,72,-1
 -962 -468 l 1,73,74
 -947 -421 -947 -421 -914 -384 c 0,75,76
 -860 -323 -860 -323 -771 -323 c 0,77,78
 -697 -323 -697 -323 -657 -360 c 1,79,80
 -632 -388 -632 -388 -632 -428 c 0,81,82
 -632 -449 -632 -449 -634 -460 c 2,83,-1
 -643 -493 l 1,84,-1
 -526 -493 l 1,85,-1
 -489 -318 l 1,86,-1
 -424 -318 l 1,87,-1
 -461 -493 l 1,88,-1
 -338 -493 l 1,89,-1
 -354 -571 l 1,90,-1
 -683 -571 l 1,0,1
EndSplineSet
AnchorPoint: "BLW" -330 0 mark 0
Ligature2: "'blwf' Below Base Form (sub)" u0C19 u0C4D
LCarets2: 1 0 

EndChar

